<svg width="148" height="24" viewBox="0 0 148 24" fill="none" xmlns="http://www.w3.org/2000/svg">
<rect width="148" height="24" rx="4" fill="#73B7AD"/>
<path d="M30.988 16.5L34.792 8.1H35.98L39.796 16.5H38.536L35.14 8.772H35.62L32.224 16.5H30.988ZM32.608 14.4L32.932 13.44H37.66L38.008 14.4H32.608ZM43.4865 18.9C42.9025 18.9 42.3345 18.816 41.7825 18.648C41.2385 18.488 40.7945 18.256 40.4505 17.952L41.0025 17.064C41.2985 17.32 41.6625 17.52 42.0945 17.664C42.5265 17.816 42.9785 17.892 43.4505 17.892C44.2025 17.892 44.7545 17.716 45.1065 17.364C45.4585 17.012 45.6345 16.476 45.6345 15.756V14.412L45.7545 13.152L45.6945 11.88V10.14H46.7865V15.636C46.7865 16.756 46.5065 17.58 45.9465 18.108C45.3865 18.636 44.5665 18.9 43.4865 18.9ZM43.3425 16.236C42.7265 16.236 42.1745 16.108 41.6865 15.852C41.2065 15.588 40.8225 15.224 40.5345 14.76C40.2545 14.296 40.1145 13.76 40.1145 13.152C40.1145 12.536 40.2545 12 40.5345 11.544C40.8225 11.08 41.2065 10.72 41.6865 10.464C42.1745 10.208 42.7265 10.08 43.3425 10.08C43.8865 10.08 44.3825 10.192 44.8305 10.416C45.2785 10.632 45.6345 10.968 45.8985 11.424C46.1705 11.88 46.3065 12.456 46.3065 13.152C46.3065 13.84 46.1705 14.412 45.8985 14.868C45.6345 15.324 45.2785 15.668 44.8305 15.9C44.3825 16.124 43.8865 16.236 43.3425 16.236ZM43.4745 15.228C43.8985 15.228 44.2745 15.14 44.6025 14.964C44.9305 14.788 45.1865 14.544 45.3705 14.232C45.5625 13.92 45.6585 13.56 45.6585 13.152C45.6585 12.744 45.5625 12.384 45.3705 12.072C45.1865 11.76 44.9305 11.52 44.6025 11.352C44.2745 11.176 43.8985 11.088 43.4745 11.088C43.0505 11.088 42.6705 11.176 42.3345 11.352C42.0065 11.52 41.7465 11.76 41.5545 12.072C41.3705 12.384 41.2785 12.744 41.2785 13.152C41.2785 13.56 41.3705 13.92 41.5545 14.232C41.7465 14.544 42.0065 14.788 42.3345 14.964C42.6705 15.14 43.0505 15.228 43.4745 15.228ZM48.8676 16.5V10.14H49.9716V11.868L49.8636 11.436C50.0396 10.996 50.3356 10.66 50.7516 10.428C51.1676 10.196 51.6796 10.08 52.2876 10.08V11.196C52.2396 11.188 52.1916 11.184 52.1436 11.184C52.1036 11.184 52.0636 11.184 52.0236 11.184C51.4076 11.184 50.9196 11.368 50.5596 11.736C50.1996 12.104 50.0196 12.636 50.0196 13.332V16.5H48.8676ZM56.3609 16.572C55.6809 16.572 55.0809 16.432 54.5609 16.152C54.0489 15.872 53.6489 15.488 53.3609 15C53.0809 14.512 52.9409 13.952 52.9409 13.32C52.9409 12.688 53.0769 12.128 53.3489 11.64C53.6289 11.152 54.0089 10.772 54.4889 10.5C54.9769 10.22 55.5249 10.08 56.1329 10.08C56.7489 10.08 57.2929 10.216 57.7649 10.488C58.2369 10.76 58.6049 11.144 58.8689 11.64C59.1409 12.128 59.2769 12.7 59.2769 13.356C59.2769 13.404 59.2729 13.46 59.2649 13.524C59.2649 13.588 59.2609 13.648 59.2529 13.704H53.8409V12.876H58.6529L58.1849 13.164C58.1929 12.756 58.1089 12.392 57.9329 12.072C57.7569 11.752 57.5129 11.504 57.2009 11.328C56.8969 11.144 56.5409 11.052 56.1329 11.052C55.7329 11.052 55.3769 11.144 55.0649 11.328C54.7529 11.504 54.5089 11.756 54.3329 12.084C54.1569 12.404 54.0689 12.772 54.0689 13.188V13.38C54.0689 13.804 54.1649 14.184 54.3569 14.52C54.5569 14.848 54.8329 15.104 55.1849 15.288C55.5369 15.472 55.9409 15.564 56.3969 15.564C56.7729 15.564 57.1129 15.5 57.4169 15.372C57.7289 15.244 58.0009 15.052 58.2329 14.796L58.8689 15.54C58.5809 15.876 58.2209 16.132 57.7889 16.308C57.3649 16.484 56.8889 16.572 56.3609 16.572ZM63.5405 18.9C62.9565 18.9 62.3885 18.816 61.8365 18.648C61.2925 18.488 60.8485 18.256 60.5045 17.952L61.0565 17.064C61.3525 17.32 61.7165 17.52 62.1485 17.664C62.5805 17.816 63.0325 17.892 63.5045 17.892C64.2565 17.892 64.8085 17.716 65.1605 17.364C65.5125 17.012 65.6885 16.476 65.6885 15.756V14.412L65.8085 13.152L65.7485 11.88V10.14H66.8405V15.636C66.8405 16.756 66.5605 17.58 66.0005 18.108C65.4405 18.636 64.6205 18.9 63.5405 18.9ZM63.3965 16.236C62.7805 16.236 62.2285 16.108 61.7405 15.852C61.2605 15.588 60.8765 15.224 60.5885 14.76C60.3085 14.296 60.1685 13.76 60.1685 13.152C60.1685 12.536 60.3085 12 60.5885 11.544C60.8765 11.08 61.2605 10.72 61.7405 10.464C62.2285 10.208 62.7805 10.08 63.3965 10.08C63.9405 10.08 64.4365 10.192 64.8845 10.416C65.3325 10.632 65.6885 10.968 65.9525 11.424C66.2245 11.88 66.3605 12.456 66.3605 13.152C66.3605 13.84 66.2245 14.412 65.9525 14.868C65.6885 15.324 65.3325 15.668 64.8845 15.9C64.4365 16.124 63.9405 16.236 63.3965 16.236ZM63.5285 15.228C63.9525 15.228 64.3285 15.14 64.6565 14.964C64.9845 14.788 65.2405 14.544 65.4245 14.232C65.6165 13.92 65.7125 13.56 65.7125 13.152C65.7125 12.744 65.6165 12.384 65.4245 12.072C65.2405 11.76 64.9845 11.52 64.6565 11.352C64.3285 11.176 63.9525 11.088 63.5285 11.088C63.1045 11.088 62.7245 11.176 62.3885 11.352C62.0605 11.52 61.8005 11.76 61.6085 12.072C61.4245 12.384 61.3325 12.744 61.3325 13.152C61.3325 13.56 61.4245 13.92 61.6085 14.232C61.8005 14.544 62.0605 14.788 62.3885 14.964C62.7245 15.14 63.1045 15.228 63.5285 15.228ZM72.8697 16.5V15.156L72.8097 14.904V12.612C72.8097 12.124 72.6657 11.748 72.3777 11.484C72.0977 11.212 71.6737 11.076 71.1057 11.076C70.7297 11.076 70.3617 11.14 70.0017 11.268C69.6417 11.388 69.3377 11.552 69.0897 11.76L68.6097 10.896C68.9377 10.632 69.3297 10.432 69.7857 10.296C70.2497 10.152 70.7337 10.08 71.2377 10.08C72.1097 10.08 72.7817 10.292 73.2537 10.716C73.7257 11.14 73.9617 11.788 73.9617 12.66V16.5H72.8697ZM70.7817 16.572C70.3097 16.572 69.8937 16.492 69.5337 16.332C69.1817 16.172 68.9097 15.952 68.7177 15.672C68.5257 15.384 68.4297 15.06 68.4297 14.7C68.4297 14.356 68.5097 14.044 68.6697 13.764C68.8377 13.484 69.1057 13.26 69.4737 13.092C69.8497 12.924 70.3537 12.84 70.9857 12.84H73.0017V13.668H71.0337C70.4577 13.668 70.0697 13.764 69.8697 13.956C69.6697 14.148 69.5697 14.38 69.5697 14.652C69.5697 14.964 69.6937 15.216 69.9417 15.408C70.1897 15.592 70.5337 15.684 70.9737 15.684C71.4057 15.684 71.7817 15.588 72.1017 15.396C72.4297 15.204 72.6657 14.924 72.8097 14.556L73.0377 15.348C72.8857 15.724 72.6177 16.024 72.2337 16.248C71.8497 16.464 71.3657 16.572 70.7817 16.572ZM75.9736 16.5V10.14H77.0776V11.868L76.9696 11.436C77.1456 10.996 77.4416 10.66 77.8576 10.428C78.2736 10.196 78.7856 10.08 79.3936 10.08V11.196C79.3456 11.188 79.2976 11.184 79.2496 11.184C79.2096 11.184 79.1696 11.184 79.1296 11.184C78.5136 11.184 78.0256 11.368 77.6656 11.736C77.3056 12.104 77.1256 12.636 77.1256 13.332V16.5H75.9736ZM86.6501 16.572C86.0021 16.572 85.4221 16.432 84.9101 16.152C84.4061 15.872 84.0101 15.488 83.7221 15C83.4341 14.512 83.2901 13.952 83.2901 13.32C83.2901 12.688 83.4341 12.128 83.7221 11.64C84.0101 11.152 84.4061 10.772 84.9101 10.5C85.4221 10.22 86.0021 10.08 86.6501 10.08C87.2261 10.08 87.7381 10.196 88.1861 10.428C88.6421 10.652 88.9941 10.988 89.2421 11.436L88.3661 12C88.1581 11.688 87.9021 11.46 87.5981 11.316C87.3021 11.164 86.9821 11.088 86.6381 11.088C86.2221 11.088 85.8501 11.18 85.5221 11.364C85.1941 11.548 84.9341 11.808 84.7421 12.144C84.5501 12.472 84.4541 12.864 84.4541 13.32C84.4541 13.776 84.5501 14.172 84.7421 14.508C84.9341 14.844 85.1941 15.104 85.5221 15.288C85.8501 15.472 86.2221 15.564 86.6381 15.564C86.9821 15.564 87.3021 15.492 87.5981 15.348C87.9021 15.196 88.1581 14.964 88.3661 14.652L89.2421 15.204C88.9941 15.644 88.6421 15.984 88.1861 16.224C87.7381 16.456 87.2261 16.572 86.6501 16.572ZM93.2438 16.572C92.6038 16.572 92.0358 16.432 91.5398 16.152C91.0438 15.872 90.6518 15.488 90.3638 15C90.0758 14.504 89.9318 13.944 89.9318 13.32C89.9318 12.688 90.0758 12.128 90.3638 11.64C90.6518 11.152 91.0438 10.772 91.5398 10.5C92.0358 10.22 92.6038 10.08 93.2438 10.08C93.8758 10.08 94.4398 10.22 94.9358 10.5C95.4398 10.772 95.8318 11.152 96.1118 11.64C96.3998 12.12 96.5438 12.68 96.5438 13.32C96.5438 13.952 96.3998 14.512 96.1118 15C95.8318 15.488 95.4398 15.872 94.9358 16.152C94.4398 16.432 93.8758 16.572 93.2438 16.572ZM93.2438 15.564C93.6518 15.564 94.0158 15.472 94.3358 15.288C94.6638 15.104 94.9198 14.844 95.1038 14.508C95.2878 14.164 95.3798 13.768 95.3798 13.32C95.3798 12.864 95.2878 12.472 95.1038 12.144C94.9198 11.808 94.6638 11.548 94.3358 11.364C94.0158 11.18 93.6518 11.088 93.2438 11.088C92.8358 11.088 92.4718 11.18 92.1518 11.364C91.8318 11.548 91.5758 11.808 91.3838 12.144C91.1918 12.472 91.0958 12.864 91.0958 13.32C91.0958 13.768 91.1918 14.164 91.3838 14.508C91.5758 14.844 91.8318 15.104 92.1518 15.288C92.4718 15.472 92.8358 15.564 93.2438 15.564ZM101.413 10.08C101.933 10.08 102.389 10.18 102.781 10.38C103.181 10.58 103.493 10.884 103.717 11.292C103.941 11.7 104.053 12.216 104.053 12.84V16.5H102.901V12.972C102.901 12.356 102.749 11.892 102.445 11.58C102.149 11.268 101.729 11.112 101.185 11.112C100.777 11.112 100.421 11.192 100.117 11.352C99.813 11.512 99.577 11.748 99.409 12.06C99.249 12.372 99.169 12.76 99.169 13.224V16.5H98.017V10.14H99.121V11.856L98.941 11.4C99.149 10.984 99.469 10.66 99.901 10.428C100.333 10.196 100.837 10.08 101.413 10.08ZM108.249 16.572C107.609 16.572 107.113 16.4 106.761 16.056C106.409 15.712 106.233 15.22 106.233 14.58V8.748H107.385V14.532C107.385 14.876 107.469 15.14 107.637 15.324C107.813 15.508 108.061 15.6 108.381 15.6C108.741 15.6 109.041 15.5 109.281 15.3L109.641 16.128C109.465 16.28 109.253 16.392 109.005 16.464C108.765 16.536 108.513 16.572 108.249 16.572ZM105.153 11.088V10.14H109.209V11.088H105.153ZM114.862 16.5V15.156L114.802 14.904V12.612C114.802 12.124 114.658 11.748 114.37 11.484C114.09 11.212 113.666 11.076 113.098 11.076C112.722 11.076 112.354 11.14 111.994 11.268C111.634 11.388 111.33 11.552 111.082 11.76L110.602 10.896C110.93 10.632 111.322 10.432 111.778 10.296C112.242 10.152 112.726 10.08 113.23 10.08C114.102 10.08 114.774 10.292 115.246 10.716C115.718 11.14 115.954 11.788 115.954 12.66V16.5H114.862ZM112.774 16.572C112.302 16.572 111.886 16.492 111.526 16.332C111.174 16.172 110.902 15.952 110.71 15.672C110.518 15.384 110.422 15.06 110.422 14.7C110.422 14.356 110.502 14.044 110.662 13.764C110.83 13.484 111.098 13.26 111.466 13.092C111.842 12.924 112.346 12.84 112.978 12.84H114.994V13.668H113.026C112.45 13.668 112.062 13.764 111.862 13.956C111.662 14.148 111.562 14.38 111.562 14.652C111.562 14.964 111.686 15.216 111.934 15.408C112.182 15.592 112.526 15.684 112.966 15.684C113.398 15.684 113.774 15.588 114.094 15.396C114.422 15.204 114.658 14.924 114.802 14.556L115.03 15.348C114.878 15.724 114.61 16.024 114.226 16.248C113.842 16.464 113.358 16.572 112.774 16.572ZM120.738 16.572C120.09 16.572 119.51 16.432 118.998 16.152C118.494 15.872 118.098 15.488 117.81 15C117.522 14.512 117.378 13.952 117.378 13.32C117.378 12.688 117.522 12.128 117.81 11.64C118.098 11.152 118.494 10.772 118.998 10.5C119.51 10.22 120.09 10.08 120.738 10.08C121.314 10.08 121.826 10.196 122.274 10.428C122.73 10.652 123.082 10.988 123.33 11.436L122.454 12C122.246 11.688 121.99 11.46 121.686 11.316C121.39 11.164 121.07 11.088 120.726 11.088C120.31 11.088 119.938 11.18 119.61 11.364C119.282 11.548 119.022 11.808 118.83 12.144C118.638 12.472 118.542 12.864 118.542 13.32C118.542 13.776 118.638 14.172 118.83 14.508C119.022 14.844 119.282 15.104 119.61 15.288C119.938 15.472 120.31 15.564 120.726 15.564C121.07 15.564 121.39 15.492 121.686 15.348C121.99 15.196 122.246 14.964 122.454 14.652L123.33 15.204C123.082 15.644 122.73 15.984 122.274 16.224C121.826 16.456 121.314 16.572 120.738 16.572ZM126.967 16.572C126.327 16.572 125.831 16.4 125.479 16.056C125.127 15.712 124.951 15.22 124.951 14.58V8.748H126.103V14.532C126.103 14.876 126.187 15.14 126.355 15.324C126.531 15.508 126.779 15.6 127.099 15.6C127.459 15.6 127.759 15.5 127.999 15.3L128.359 16.128C128.183 16.28 127.971 16.392 127.723 16.464C127.483 16.536 127.231 16.572 126.967 16.572ZM123.871 11.088V10.14H127.927V11.088H123.871ZM132.145 16.572C131.505 16.572 130.937 16.432 130.441 16.152C129.945 15.872 129.553 15.488 129.265 15C128.977 14.504 128.833 13.944 128.833 13.32C128.833 12.688 128.977 12.128 129.265 11.64C129.553 11.152 129.945 10.772 130.441 10.5C130.937 10.22 131.505 10.08 132.145 10.08C132.777 10.08 133.341 10.22 133.837 10.5C134.341 10.772 134.733 11.152 135.013 11.64C135.301 12.12 135.445 12.68 135.445 13.32C135.445 13.952 135.301 14.512 135.013 15C134.733 15.488 134.341 15.872 133.837 16.152C133.341 16.432 132.777 16.572 132.145 16.572ZM132.145 15.564C132.553 15.564 132.917 15.472 133.237 15.288C133.565 15.104 133.821 14.844 134.005 14.508C134.189 14.164 134.281 13.768 134.281 13.32C134.281 12.864 134.189 12.472 134.005 12.144C133.821 11.808 133.565 11.548 133.237 11.364C132.917 11.18 132.553 11.088 132.145 11.088C131.737 11.088 131.373 11.18 131.053 11.364C130.733 11.548 130.477 11.808 130.285 12.144C130.093 12.472 129.997 12.864 129.997 13.32C129.997 13.768 130.093 14.164 130.285 14.508C130.477 14.844 130.733 15.104 131.053 15.288C131.373 15.472 131.737 15.564 132.145 15.564Z" fill="white"/>
</svg>
