<svg width="106" height="38" viewBox="0 0 106 38" fill="none" xmlns="http://www.w3.org/2000/svg">
<rect x="2.36511" y="6" width="102" height="32" rx="8" fill="#FF9801"/>
<path d="M18.2067 28L23.3107 16.72H24.9907L30.0947 28H28.0147L26.8947 25.392H21.3907L20.2867 28H18.2067ZM24.1267 18.944L22.0947 23.76H26.1907L24.1587 18.944H24.1267ZM31.3289 28V16.72H36.2249C37.4622 16.72 38.4169 17.0293 39.0889 17.648C39.7609 18.2667 40.0969 19.1307 40.0969 20.24C40.0969 21.3493 39.7609 22.2187 39.0889 22.848C38.4169 23.4667 37.4622 23.776 36.2249 23.776H33.3769V28H31.3289ZM33.3769 22.16H35.9049C37.3769 22.16 38.1129 21.52 38.1129 20.24C38.1129 18.9707 37.3769 18.336 35.9049 18.336H33.3769V22.16ZM41.7664 28V16.72H43.8144V26.256H49.2224V28H41.7664ZM50.7508 28V16.72H52.7988V28H50.7508ZM60.4988 28.16C59.3255 28.16 58.3175 27.9253 57.4748 27.456C56.6428 26.976 56.0028 26.304 55.5548 25.44C55.1068 24.5653 54.8828 23.536 54.8828 22.352C54.8828 21.168 55.1068 20.144 55.5548 19.28C56.0028 18.416 56.6428 17.7493 57.4748 17.28C58.3175 16.8 59.3255 16.56 60.4988 16.56C61.2561 16.56 61.9708 16.6773 62.6428 16.912C63.3255 17.1467 63.8855 17.4827 64.3228 17.92L63.6508 19.552C63.1708 19.1467 62.6801 18.8533 62.1788 18.672C61.6775 18.48 61.1388 18.384 60.5628 18.384C59.4215 18.384 58.5521 18.7307 57.9548 19.424C57.3575 20.1067 57.0588 21.0827 57.0588 22.352C57.0588 23.6213 57.3575 24.6027 57.9548 25.296C58.5521 25.9893 59.4215 26.336 60.5628 26.336C61.1388 26.336 61.6775 26.2453 62.1788 26.064C62.6801 25.872 63.1708 25.5733 63.6508 25.168L64.3228 26.8C63.8855 27.2267 63.3255 27.5627 62.6428 27.808C61.9708 28.0427 61.2561 28.16 60.4988 28.16ZM64.6598 28L69.7638 16.72H71.4438L76.5478 28H74.4678L73.3478 25.392H67.8438L66.7398 28H64.6598ZM70.5798 18.944L68.5478 23.76H72.6438L70.6118 18.944H70.5798ZM77.782 28V16.72H82.678C83.9154 16.72 84.87 17.0187 85.542 17.616C86.214 18.2027 86.55 19.0293 86.55 20.096C86.55 20.9387 86.3314 21.6373 85.894 22.192C85.4567 22.736 84.8274 23.104 84.006 23.296C84.55 23.4667 84.998 23.8773 85.35 24.528L87.238 28H84.982L83.03 24.4C82.838 24.048 82.6087 23.808 82.342 23.68C82.086 23.552 81.7554 23.488 81.35 23.488H79.83V28H77.782ZM79.83 21.968H82.326C83.8194 21.968 84.566 21.36 84.566 20.144C84.566 18.9387 83.8194 18.336 82.326 18.336H79.83V21.968Z" fill="white"/>
</svg>
