<svg width="244" height="72" viewBox="0 0 244 72" fill="none" xmlns="http://www.w3.org/2000/svg">
<g filter="url(#filter0_d_212_1143)">
<rect x="12" y="6" width="220" height="48" rx="14" fill="#73B7AD"/>
</g>
<path d="M97.5425 35.16C96.3692 35.16 95.3612 34.9253 94.5185 34.456C93.6865 33.976 93.0465 33.304 92.5985 32.44C92.1505 31.5653 91.9265 30.536 91.9265 29.352C91.9265 28.168 92.1505 27.144 92.5985 26.28C93.0465 25.416 93.6865 24.7493 94.5185 24.28C95.3612 23.8 96.3692 23.56 97.5425 23.56C98.2998 23.56 99.0145 23.6773 99.6865 23.912C100.369 24.1467 100.929 24.4827 101.367 24.92L100.695 26.552C100.215 26.1467 99.7238 25.8533 99.2225 25.672C98.7212 25.48 98.1825 25.384 97.6065 25.384C96.4652 25.384 95.5958 25.7307 94.9985 26.424C94.4012 27.1067 94.1025 28.0827 94.1025 29.352C94.1025 30.6213 94.4012 31.6027 94.9985 32.296C95.5958 32.9893 96.4652 33.336 97.6065 33.336C98.1825 33.336 98.7212 33.2453 99.2225 33.064C99.7238 32.872 100.215 32.5733 100.695 32.168L101.367 33.8C100.929 34.2267 100.369 34.5627 99.6865 34.808C99.0145 35.0427 98.2998 35.16 97.5425 35.16ZM105.257 35.16C104.691 35.16 104.185 35.0533 103.737 34.84C103.299 34.616 102.953 34.3173 102.697 33.944C102.451 33.5707 102.329 33.1493 102.329 32.68C102.329 32.104 102.478 31.6507 102.777 31.32C103.075 30.9787 103.561 30.7333 104.233 30.584C104.905 30.4347 105.806 30.36 106.937 30.36H107.497V30.024C107.497 29.4907 107.379 29.1067 107.145 28.872C106.91 28.6373 106.515 28.52 105.961 28.52C105.523 28.52 105.075 28.5893 104.617 28.728C104.158 28.856 103.694 29.0587 103.225 29.336L102.649 27.976C102.926 27.784 103.251 27.6187 103.625 27.48C104.009 27.3307 104.409 27.2187 104.825 27.144C105.251 27.0587 105.651 27.016 106.025 27.016C107.166 27.016 108.014 27.2827 108.569 27.816C109.123 28.3387 109.401 29.1547 109.401 30.264V35H107.529V33.752C107.347 34.1893 107.059 34.536 106.665 34.792C106.27 35.0373 105.801 35.16 105.257 35.16ZM105.673 33.784C106.195 33.784 106.627 33.6027 106.969 33.24C107.321 32.8773 107.497 32.4187 107.497 31.864V31.512H106.953C105.95 31.512 105.251 31.592 104.857 31.752C104.473 31.9013 104.281 32.1787 104.281 32.584C104.281 32.936 104.403 33.224 104.649 33.448C104.894 33.672 105.235 33.784 105.673 33.784ZM111.431 35V27.176H113.383V28.392C113.649 27.944 114.007 27.6027 114.455 27.368C114.913 27.1333 115.425 27.016 115.991 27.016C117.836 27.016 118.759 28.088 118.759 30.232V35H116.759V30.328C116.759 29.72 116.641 29.2773 116.407 29C116.183 28.7227 115.831 28.584 115.351 28.584C114.764 28.584 114.295 28.7707 113.943 29.144C113.601 29.5067 113.431 29.992 113.431 30.6V35H111.431ZM124.406 35.16C123.585 35.16 122.87 34.9947 122.262 34.664C121.654 34.3227 121.185 33.8427 120.854 33.224C120.523 32.6053 120.358 31.88 120.358 31.048C120.358 30.216 120.523 29.5013 120.854 28.904C121.185 28.296 121.654 27.832 122.262 27.512C122.87 27.1813 123.585 27.016 124.406 27.016C124.907 27.016 125.403 27.096 125.894 27.256C126.385 27.416 126.79 27.64 127.11 27.928L126.518 29.32C126.241 29.0747 125.926 28.888 125.574 28.76C125.233 28.632 124.902 28.568 124.582 28.568C123.889 28.568 123.35 28.7867 122.966 29.224C122.593 29.6507 122.406 30.264 122.406 31.064C122.406 31.8533 122.593 32.4773 122.966 32.936C123.35 33.384 123.889 33.608 124.582 33.608C124.891 33.608 125.222 33.544 125.574 33.416C125.926 33.288 126.241 33.096 126.518 32.84L127.11 34.248C126.79 34.5253 126.379 34.7493 125.878 34.92C125.387 35.08 124.897 35.16 124.406 35.16ZM132.037 35.16C131.151 35.16 130.389 34.9947 129.749 34.664C129.109 34.3333 128.613 33.864 128.261 33.256C127.919 32.648 127.749 31.928 127.749 31.096C127.749 30.2853 127.914 29.576 128.245 28.968C128.586 28.36 129.05 27.8853 129.637 27.544C130.234 27.192 130.911 27.016 131.669 27.016C132.778 27.016 133.653 27.368 134.293 28.072C134.943 28.776 135.269 29.736 135.269 30.952V31.544H129.669C129.818 32.9413 130.618 33.64 132.069 33.64C132.506 33.64 132.943 33.576 133.381 33.448C133.818 33.3093 134.218 33.096 134.581 32.808L135.141 34.152C134.767 34.4613 134.298 34.7067 133.733 34.888C133.167 35.0693 132.602 35.16 132.037 35.16ZM131.749 28.376C131.162 28.376 130.687 28.5573 130.325 28.92C129.962 29.2827 129.743 29.7733 129.669 30.392H133.605C133.562 29.7413 133.381 29.2453 133.061 28.904C132.751 28.552 132.314 28.376 131.749 28.376ZM139.573 35.16C138.645 35.16 137.957 34.9093 137.509 34.408C137.071 33.896 136.853 33.1493 136.853 32.168V23.72H138.853V32.072C138.853 33.032 139.258 33.512 140.069 33.512C140.186 33.512 140.303 33.5067 140.421 33.496C140.538 33.4853 140.65 33.464 140.757 33.432L140.725 35.016C140.341 35.112 139.957 35.16 139.573 35.16ZM144.538 35.16C143.973 35.16 143.466 35.0533 143.018 34.84C142.581 34.616 142.234 34.3173 141.978 33.944C141.733 33.5707 141.61 33.1493 141.61 32.68C141.61 32.104 141.759 31.6507 142.058 31.32C142.357 30.9787 142.842 30.7333 143.514 30.584C144.186 30.4347 145.087 30.36 146.218 30.36H146.778V30.024C146.778 29.4907 146.661 29.1067 146.426 28.872C146.191 28.6373 145.797 28.52 145.242 28.52C144.805 28.52 144.357 28.5893 143.898 28.728C143.439 28.856 142.975 29.0587 142.506 29.336L141.93 27.976C142.207 27.784 142.533 27.6187 142.906 27.48C143.29 27.3307 143.69 27.2187 144.106 27.144C144.533 27.0587 144.933 27.016 145.306 27.016C146.447 27.016 147.295 27.2827 147.85 27.816C148.405 28.3387 148.682 29.1547 148.682 30.264V35H146.81V33.752C146.629 34.1893 146.341 34.536 145.946 34.792C145.551 35.0373 145.082 35.16 144.538 35.16ZM144.954 33.784C145.477 33.784 145.909 33.6027 146.25 33.24C146.602 32.8773 146.778 32.4187 146.778 31.864V31.512H146.234C145.231 31.512 144.533 31.592 144.138 31.752C143.754 31.9013 143.562 32.1787 143.562 32.584C143.562 32.936 143.685 33.224 143.93 33.448C144.175 33.672 144.517 33.784 144.954 33.784ZM150.712 35V27.176H152.664V28.552C153.048 27.624 153.869 27.112 155.128 27.016L155.736 26.968L155.864 28.664L154.712 28.776C153.4 28.904 152.744 29.576 152.744 30.792V35H150.712Z" fill="white"/>
<defs>
<filter id="filter0_d_212_1143" x="0" y="0" width="244" height="72" filterUnits="userSpaceOnUse" color-interpolation-filters="sRGB">
<feFlood flood-opacity="0" result="BackgroundImageFix"/>
<feColorMatrix in="SourceAlpha" type="matrix" values="0 0 0 0 0 0 0 0 0 0 0 0 0 0 0 0 0 0 127 0" result="hardAlpha"/>
<feOffset dy="6"/>
<feGaussianBlur stdDeviation="6"/>
<feColorMatrix type="matrix" values="0 0 0 0 0.247059 0 0 0 0 0.54902 0 0 0 0 1 0 0 0 0.263686 0"/>
<feBlend mode="normal" in2="BackgroundImageFix" result="effect1_dropShadow_212_1143"/>
<feBlend mode="normal" in="SourceGraphic" in2="effect1_dropShadow_212_1143" result="shape"/>
</filter>
</defs>
</svg>
