<svg width="940" height="619" viewBox="0 0 940 619" fill="none" xmlns="http://www.w3.org/2000/svg">
<g filter="url(#filter0_d_278_1024)">
<rect x="751" y="553" width="177" height="48" rx="14" fill="#FF9801"/>
</g>
<path d="M799.394 582V570.72H806.77V572.352H801.442V575.536H806.434V577.168H801.442V582H799.394ZM808.379 582V570.72H810.427V582H808.379ZM812.879 582V570.72H814.415L820.479 578.592V570.72H822.383V582H820.863L814.783 574.096V582H812.879ZM823.631 582L828.735 570.72H830.415L835.519 582H833.439L832.319 579.392H826.815L825.711 582H823.631ZM829.551 572.944L827.519 577.76H831.615L829.583 572.944H829.551ZM836.754 582V570.72H838.802V580.256H844.21V582H836.754ZM845.738 582V570.72H847.786V582H845.738ZM849.758 582V580.496L855.71 572.432H849.758V570.72H858.11V572.224L852.158 580.288H858.35V582H849.758ZM858.553 582L863.657 570.72H865.337L870.441 582H868.361L867.241 579.392H861.737L860.633 582H858.553ZM864.473 572.944L862.441 577.76H866.537L864.505 572.944H864.473ZM871.675 582V570.72H876.571C877.809 570.72 878.763 571.019 879.435 571.616C880.107 572.203 880.443 573.029 880.443 574.096C880.443 574.939 880.225 575.637 879.787 576.192C879.35 576.736 878.721 577.104 877.899 577.296C878.443 577.467 878.891 577.877 879.243 578.528L881.131 582H878.875L876.923 578.4C876.731 578.048 876.502 577.808 876.235 577.68C875.979 577.552 875.649 577.488 875.243 577.488H873.723V582H871.675ZM873.723 575.968H876.219C877.713 575.968 878.459 575.36 878.459 574.144C878.459 572.939 877.713 572.336 876.219 572.336H873.723V575.968Z" fill="white"/>
<defs>
<filter id="filter0_d_278_1024" x="739" y="547" width="201" height="72" filterUnits="userSpaceOnUse" color-interpolation-filters="sRGB">
<feFlood flood-opacity="0" result="BackgroundImageFix"/>
<feColorMatrix in="SourceAlpha" type="matrix" values="0 0 0 0 0 0 0 0 0 0 0 0 0 0 0 0 0 0 127 0" result="hardAlpha"/>
<feOffset dy="6"/>
<feGaussianBlur stdDeviation="6"/>
<feColorMatrix type="matrix" values="0 0 0 0 0.247059 0 0 0 0 0.54902 0 0 0 0 1 0 0 0 0.263686 0"/>
<feBlend mode="normal" in2="BackgroundImageFix" result="effect1_dropShadow_278_1024"/>
<feBlend mode="normal" in="SourceGraphic" in2="effect1_dropShadow_278_1024" result="shape"/>
</filter>
</defs>
</svg>
