<svg width="244" height="72" viewBox="0 0 244 72" fill="none" xmlns="http://www.w3.org/2000/svg">
<g filter="url(#filter0_d_212_1139)">
<rect x="12" y="6" width="220" height="48" rx="14" fill="#73B7AD"/>
</g>
<path d="M99.8826 35.16C98.6346 35.16 97.5786 34.9253 96.7146 34.456C95.8612 33.9867 95.2106 33.32 94.7626 32.456C94.3146 31.592 94.0906 30.568 94.0906 29.384C94.0906 28.1893 94.3199 27.16 94.7786 26.296C95.2372 25.4213 95.8986 24.7493 96.7626 24.28C97.6266 23.8 98.6612 23.56 99.8666 23.56C100.656 23.56 101.397 23.6773 102.091 23.912C102.784 24.136 103.36 24.4507 103.819 24.856L103.131 26.456C102.629 26.0613 102.117 25.7787 101.595 25.608C101.072 25.4373 100.496 25.352 99.8666 25.352C98.6719 25.352 97.7652 25.6987 97.1466 26.392C96.5386 27.0853 96.2346 28.0827 96.2346 29.384C96.2346 30.696 96.5492 31.6933 97.1786 32.376C97.8079 33.0587 98.7412 33.4 99.9786 33.4C100.331 33.4 100.688 33.3733 101.051 33.32C101.424 33.256 101.792 33.1653 102.155 33.048V30.424H99.5626V28.904H103.867V34.328C103.344 34.584 102.725 34.7867 102.011 34.936C101.296 35.0853 100.587 35.16 99.8826 35.16ZM108.88 35.16C106.96 35.16 106 34.0827 106 31.928V27.176H108V31.96C108 32.5147 108.112 32.9253 108.336 33.192C108.56 33.4587 108.917 33.592 109.408 33.592C109.941 33.592 110.378 33.4107 110.72 33.048C111.061 32.6747 111.232 32.184 111.232 31.576V27.176H113.232V35H111.28V33.832C110.757 34.7173 109.957 35.16 108.88 35.16ZM117.889 35.16C117.324 35.16 116.817 35.0533 116.369 34.84C115.932 34.616 115.585 34.3173 115.329 33.944C115.084 33.5707 114.961 33.1493 114.961 32.68C114.961 32.104 115.111 31.6507 115.409 31.32C115.708 30.9787 116.193 30.7333 116.865 30.584C117.537 30.4347 118.439 30.36 119.569 30.36H120.129V30.024C120.129 29.4907 120.012 29.1067 119.777 28.872C119.543 28.6373 119.148 28.52 118.593 28.52C118.156 28.52 117.708 28.5893 117.249 28.728C116.791 28.856 116.327 29.0587 115.857 29.336L115.281 27.976C115.559 27.784 115.884 27.6187 116.257 27.48C116.641 27.3307 117.041 27.2187 117.457 27.144C117.884 27.0587 118.284 27.016 118.657 27.016C119.799 27.016 120.647 27.2827 121.201 27.816C121.756 28.3387 122.033 29.1547 122.033 30.264V35H120.161V33.752C119.98 34.1893 119.692 34.536 119.297 34.792C118.903 35.0373 118.433 35.16 117.889 35.16ZM118.305 33.784C118.828 33.784 119.26 33.6027 119.601 33.24C119.953 32.8773 120.129 32.4187 120.129 31.864V31.512H119.585C118.583 31.512 117.884 31.592 117.489 31.752C117.105 31.9013 116.913 32.1787 116.913 32.584C116.913 32.936 117.036 33.224 117.281 33.448C117.527 33.672 117.868 33.784 118.305 33.784ZM124.063 35V27.176H126.015V28.552C126.399 27.624 127.221 27.112 128.479 27.016L129.087 26.968L129.215 28.664L128.063 28.776C126.751 28.904 126.095 29.576 126.095 30.792V35H124.063ZM133.212 35.16C132.529 35.16 131.927 34.9947 131.404 34.664C130.892 34.3333 130.492 33.864 130.204 33.256C129.916 32.6373 129.772 31.912 129.772 31.08C129.772 30.2373 129.916 29.5173 130.204 28.92C130.492 28.312 130.892 27.8427 131.404 27.512C131.927 27.1813 132.529 27.016 133.212 27.016C133.767 27.016 134.268 27.1387 134.716 27.384C135.164 27.6293 135.5 27.9547 135.724 28.36V23.72H137.724V35H135.772V33.704C135.559 34.152 135.223 34.5093 134.764 34.776C134.305 35.032 133.788 35.16 133.212 35.16ZM133.772 33.64C134.369 33.64 134.849 33.4267 135.212 33C135.575 32.5627 135.756 31.9227 135.756 31.08C135.756 30.2267 135.575 29.592 135.212 29.176C134.849 28.7493 134.369 28.536 133.772 28.536C133.175 28.536 132.695 28.7493 132.332 29.176C131.969 29.592 131.788 30.2267 131.788 31.08C131.788 31.9227 131.969 32.5627 132.332 33C132.695 33.4267 133.175 33.64 133.772 33.64ZM142.374 35.16C141.808 35.16 141.302 35.0533 140.854 34.84C140.416 34.616 140.07 34.3173 139.814 33.944C139.568 33.5707 139.446 33.1493 139.446 32.68C139.446 32.104 139.595 31.6507 139.894 31.32C140.192 30.9787 140.678 30.7333 141.35 30.584C142.022 30.4347 142.923 30.36 144.054 30.36H144.614V30.024C144.614 29.4907 144.496 29.1067 144.262 28.872C144.027 28.6373 143.632 28.52 143.078 28.52C142.64 28.52 142.192 28.5893 141.734 28.728C141.275 28.856 140.811 29.0587 140.342 29.336L139.766 27.976C140.043 27.784 140.368 27.6187 140.742 27.48C141.126 27.3307 141.526 27.2187 141.942 27.144C142.368 27.0587 142.768 27.016 143.142 27.016C144.283 27.016 145.131 27.2827 145.686 27.816C146.24 28.3387 146.518 29.1547 146.518 30.264V35H144.646V33.752C144.464 34.1893 144.176 34.536 143.782 34.792C143.387 35.0373 142.918 35.16 142.374 35.16ZM142.79 33.784C143.312 33.784 143.744 33.6027 144.086 33.24C144.438 32.8773 144.614 32.4187 144.614 31.864V31.512H144.07C143.067 31.512 142.368 31.592 141.974 31.752C141.59 31.9013 141.398 32.1787 141.398 32.584C141.398 32.936 141.52 33.224 141.766 33.448C142.011 33.672 142.352 33.784 142.79 33.784ZM148.548 35V27.176H150.5V28.552C150.884 27.624 151.705 27.112 152.964 27.016L153.572 26.968L153.7 28.664L152.548 28.776C151.236 28.904 150.58 29.576 150.58 30.792V35H148.548Z" fill="white"/>
<defs>
<filter id="filter0_d_212_1139" x="0" y="0" width="244" height="72" filterUnits="userSpaceOnUse" color-interpolation-filters="sRGB">
<feFlood flood-opacity="0" result="BackgroundImageFix"/>
<feColorMatrix in="SourceAlpha" type="matrix" values="0 0 0 0 0 0 0 0 0 0 0 0 0 0 0 0 0 0 127 0" result="hardAlpha"/>
<feOffset dy="6"/>
<feGaussianBlur stdDeviation="6"/>
<feColorMatrix type="matrix" values="0 0 0 0 0.247059 0 0 0 0 0.54902 0 0 0 0 1 0 0 0 0.263686 0"/>
<feBlend mode="normal" in2="BackgroundImageFix" result="effect1_dropShadow_212_1139"/>
<feBlend mode="normal" in="SourceGraphic" in2="effect1_dropShadow_212_1139" result="shape"/>
</filter>
</defs>
</svg>
