<svg width="63" height="31" viewBox="0 0 63 31" fill="none" xmlns="http://www.w3.org/2000/svg">
<g clip-path="url(#clip0_278_1076)">
<rect width="63" height="31" rx="7" fill="#73B7AD"/>
<path d="M22.9265 10.6H24.4865V19H22.9265V10.6ZM18.5825 19H17.0225V10.6H18.5825V19ZM23.0465 15.4H18.4505V14.068H23.0465V15.4ZM29.4734 19.084C28.8174 19.084 28.2334 18.944 27.7214 18.664C27.2094 18.376 26.8054 17.984 26.5094 17.488C26.2134 16.992 26.0654 16.428 26.0654 15.796C26.0654 15.156 26.2134 14.592 26.5094 14.104C26.8054 13.608 27.2094 13.22 27.7214 12.94C28.2334 12.66 28.8174 12.52 29.4734 12.52C30.1374 12.52 30.7254 12.66 31.2374 12.94C31.7574 13.22 32.1614 13.604 32.4494 14.092C32.7454 14.58 32.8934 15.148 32.8934 15.796C32.8934 16.428 32.7454 16.992 32.4494 17.488C32.1614 17.984 31.7574 18.376 31.2374 18.664C30.7254 18.944 30.1374 19.084 29.4734 19.084ZM29.4734 17.8C29.8414 17.8 30.1694 17.72 30.4574 17.56C30.7454 17.4 30.9694 17.168 31.1294 16.864C31.2974 16.56 31.3814 16.204 31.3814 15.796C31.3814 15.38 31.2974 15.024 31.1294 14.728C30.9694 14.424 30.7454 14.192 30.4574 14.032C30.1694 13.872 29.8454 13.792 29.4854 13.792C29.1174 13.792 28.7894 13.872 28.5014 14.032C28.2214 14.192 27.9974 14.424 27.8294 14.728C27.6614 15.024 27.5774 15.38 27.5774 15.796C27.5774 16.204 27.6614 16.56 27.8294 16.864C27.9974 17.168 28.2214 17.4 28.5014 17.56C28.7894 17.72 29.1134 17.8 29.4734 17.8ZM34.68 21.412C34.368 21.412 34.056 21.36 33.744 21.256C33.432 21.152 33.172 21.008 32.964 20.824L33.564 19.72C33.716 19.856 33.888 19.964 34.08 20.044C34.272 20.124 34.468 20.164 34.668 20.164C34.94 20.164 35.16 20.096 35.328 19.96C35.496 19.824 35.652 19.596 35.796 19.276L36.168 18.436L36.288 18.256L38.712 12.592H40.152L37.152 19.516C36.952 19.996 36.728 20.376 36.48 20.656C36.24 20.936 35.968 21.132 35.664 21.244C35.368 21.356 35.04 21.412 34.68 21.412ZM36 19.228L33.108 12.592H34.668L37.02 18.124L36 19.228Z" fill="white"/>
</g>
<defs>
<clipPath id="clip0_278_1076">
<rect width="63" height="31" fill="white"/>
</clipPath>
</defs>
</svg>
