<svg width="34" height="31" viewBox="0 0 34 31" fill="none" xmlns="http://www.w3.org/2000/svg">
<path d="M34 14.5332C34 22.5597 26.3883 29.0665 17 29.0665C15.3162 29.0702 13.6392 28.8565 12.0126 28.4312C10.7716 29.0457 7.922 30.225 3.128 30.9932C2.703 31.0596 2.38 30.6278 2.54787 30.2416C3.30013 28.5059 3.98012 26.1931 4.18412 24.0837C1.581 21.53 0 18.1873 0 14.5332C0 6.50674 7.61175 0 17 0C26.3883 0 34 6.50674 34 14.5332ZM9.5625 8.30471C9.28071 8.30471 9.01046 8.41408 8.8112 8.60876C8.61194 8.80344 8.5 9.06748 8.5 9.3428C8.5 9.61812 8.61194 9.88216 8.8112 10.0768C9.01046 10.2715 9.28071 10.3809 9.5625 10.3809H24.4375C24.7193 10.3809 24.9895 10.2715 25.1888 10.0768C25.3881 9.88216 25.5 9.61812 25.5 9.3428C25.5 9.06748 25.3881 8.80344 25.1888 8.60876C24.9895 8.41408 24.7193 8.30471 24.4375 8.30471H9.5625ZM9.5625 13.4952C9.28071 13.4952 9.01046 13.6045 8.8112 13.7992C8.61194 13.9939 8.5 14.2579 8.5 14.5332C8.5 14.8086 8.61194 15.0726 8.8112 15.2673C9.01046 15.462 9.28071 15.5713 9.5625 15.5713H24.4375C24.7193 15.5713 24.9895 15.462 25.1888 15.2673C25.3881 15.0726 25.5 14.8086 25.5 14.5332C25.5 14.2579 25.3881 13.9939 25.1888 13.7992C24.9895 13.6045 24.7193 13.4952 24.4375 13.4952H9.5625ZM9.5625 18.6856C9.28071 18.6856 9.01046 18.795 8.8112 18.9896C8.61194 19.1843 8.5 19.4484 8.5 19.7237C8.5 19.999 8.61194 20.2631 8.8112 20.4577C9.01046 20.6524 9.28071 20.7618 9.5625 20.7618H18.0625C18.3443 20.7618 18.6145 20.6524 18.8138 20.4577C19.0131 20.2631 19.125 19.999 19.125 19.7237C19.125 19.4484 19.0131 19.1843 18.8138 18.9896C18.6145 18.795 18.3443 18.6856 18.0625 18.6856H9.5625Z" fill="#3563D3"/>
</svg>
