<svg width="251" height="32" viewBox="0 0 251 32" fill="none" xmlns="http://www.w3.org/2000/svg">
<g clip-path="url(#clip0_266_821)">
<rect width="251" height="32" rx="7" fill="#4D4D4D" fill-opacity="0.1"/>
<path d="M58.9835 19.12C58.3275 19.12 57.6995 19.028 57.0995 18.844C56.4995 18.652 56.0235 18.408 55.6715 18.112L56.2115 16.9C56.5475 17.164 56.9635 17.384 57.4595 17.56C57.9555 17.736 58.4635 17.824 58.9835 17.824C59.4235 17.824 59.7795 17.776 60.0515 17.68C60.3235 17.584 60.5235 17.456 60.6515 17.296C60.7795 17.128 60.8435 16.94 60.8435 16.732C60.8435 16.476 60.7515 16.272 60.5675 16.12C60.3835 15.96 60.1435 15.836 59.8475 15.748C59.5595 15.652 59.2355 15.564 58.8755 15.484C58.5235 15.404 58.1675 15.312 57.8075 15.208C57.4555 15.096 57.1315 14.956 56.8355 14.788C56.5475 14.612 56.3115 14.38 56.1275 14.092C55.9435 13.804 55.8515 13.436 55.8515 12.988C55.8515 12.532 55.9715 12.116 56.2115 11.74C56.4595 11.356 56.8315 11.052 57.3275 10.828C57.8315 10.596 58.4675 10.48 59.2355 10.48C59.7395 10.48 60.2395 10.544 60.7355 10.672C61.2315 10.8 61.6635 10.984 62.0315 11.224L61.5395 12.436C61.1635 12.212 60.7755 12.048 60.3755 11.944C59.9755 11.832 59.5915 11.776 59.2235 11.776C58.7915 11.776 58.4395 11.828 58.1675 11.932C57.9035 12.036 57.7075 12.172 57.5795 12.34C57.4595 12.508 57.3995 12.7 57.3995 12.916C57.3995 13.172 57.4875 13.38 57.6635 13.54C57.8475 13.692 58.0835 13.812 58.3715 13.9C58.6675 13.988 58.9955 14.076 59.3555 14.164C59.7155 14.244 60.0715 14.336 60.4235 14.44C60.7835 14.544 61.1075 14.68 61.3955 14.848C61.6915 15.016 61.9275 15.244 62.1035 15.532C62.2875 15.82 62.3795 16.184 62.3795 16.624C62.3795 17.072 62.2555 17.488 62.0075 17.872C61.7675 18.248 61.3955 18.552 60.8915 18.784C60.3875 19.008 59.7515 19.12 58.9835 19.12ZM63.9263 19V10.6H65.4863V19H63.9263ZM67.2184 20.812L67.9144 18.16L68.1184 19.048C67.8384 19.048 67.6024 18.964 67.4104 18.796C67.2264 18.62 67.1344 18.384 67.1344 18.088C67.1344 17.784 67.2264 17.544 67.4104 17.368C67.6024 17.184 67.8344 17.092 68.1064 17.092C68.3864 17.092 68.6184 17.184 68.8024 17.368C68.9864 17.552 69.0784 17.792 69.0784 18.088C69.0784 18.168 69.0704 18.256 69.0544 18.352C69.0384 18.44 69.0104 18.544 68.9704 18.664C68.9384 18.784 68.8824 18.936 68.8024 19.12L68.1904 20.812H67.2184ZM77.4965 12.52C78.0085 12.52 78.4645 12.62 78.8645 12.82C79.2725 13.02 79.5925 13.328 79.8245 13.744C80.0565 14.152 80.1725 14.68 80.1725 15.328V19H78.6725V15.52C78.6725 14.952 78.5365 14.528 78.2645 14.248C78.0005 13.968 77.6285 13.828 77.1485 13.828C76.7965 13.828 76.4845 13.9 76.2125 14.044C75.9405 14.188 75.7285 14.404 75.5765 14.692C75.4325 14.972 75.3605 15.328 75.3605 15.76V19H73.8605V12.592H75.2885V14.32L75.0365 13.792C75.2605 13.384 75.5845 13.072 76.0085 12.856C76.4405 12.632 76.9365 12.52 77.4965 12.52ZM84.967 19.084C84.311 19.084 83.727 18.944 83.215 18.664C82.703 18.376 82.299 17.984 82.003 17.488C81.707 16.992 81.559 16.428 81.559 15.796C81.559 15.156 81.707 14.592 82.003 14.104C82.299 13.608 82.703 13.22 83.215 12.94C83.727 12.66 84.311 12.52 84.967 12.52C85.631 12.52 86.219 12.66 86.731 12.94C87.251 13.22 87.655 13.604 87.943 14.092C88.239 14.58 88.387 15.148 88.387 15.796C88.387 16.428 88.239 16.992 87.943 17.488C87.655 17.984 87.251 18.376 86.731 18.664C86.219 18.944 85.631 19.084 84.967 19.084ZM84.967 17.8C85.335 17.8 85.663 17.72 85.951 17.56C86.239 17.4 86.463 17.168 86.623 16.864C86.791 16.56 86.875 16.204 86.875 15.796C86.875 15.38 86.791 15.024 86.623 14.728C86.463 14.424 86.239 14.192 85.951 14.032C85.663 13.872 85.339 13.792 84.979 13.792C84.611 13.792 84.283 13.872 83.995 14.032C83.715 14.192 83.491 14.424 83.323 14.728C83.155 15.024 83.071 15.38 83.071 15.796C83.071 16.204 83.155 16.56 83.323 16.864C83.491 17.168 83.715 17.4 83.995 17.56C84.283 17.72 84.607 17.8 84.967 17.8ZM95.8498 19.084C95.2338 19.084 94.6778 18.948 94.1818 18.676C93.6938 18.396 93.3098 18.012 93.0298 17.524C92.7498 17.036 92.6098 16.46 92.6098 15.796C92.6098 15.132 92.7498 14.556 93.0298 14.068C93.3098 13.58 93.6938 13.2 94.1818 12.928C94.6778 12.656 95.2338 12.52 95.8498 12.52C96.3858 12.52 96.8658 12.64 97.2898 12.88C97.7138 13.112 98.0498 13.468 98.2978 13.948C98.5458 14.428 98.6698 15.044 98.6698 15.796C98.6698 16.54 98.5498 17.156 98.3098 17.644C98.0698 18.124 97.7378 18.484 97.3138 18.724C96.8898 18.964 96.4018 19.084 95.8498 19.084ZM96.0298 17.8C96.3898 17.8 96.7098 17.72 96.9898 17.56C97.2778 17.4 97.5058 17.168 97.6738 16.864C97.8498 16.56 97.9378 16.204 97.9378 15.796C97.9378 15.38 97.8498 15.024 97.6738 14.728C97.5058 14.424 97.2778 14.192 96.9898 14.032C96.7098 13.872 96.3898 13.792 96.0298 13.792C95.6698 13.792 95.3458 13.872 95.0578 14.032C94.7778 14.192 94.5498 14.424 94.3738 14.728C94.2058 15.024 94.1218 15.38 94.1218 15.796C94.1218 16.204 94.2058 16.56 94.3738 16.864C94.5498 17.168 94.7778 17.4 95.0578 17.56C95.3458 17.72 95.6698 17.8 96.0298 17.8ZM97.9738 19V17.488L98.0338 15.784L97.9138 14.08V10.096H99.4018V19H97.9738ZM104.388 19.084C103.676 19.084 103.052 18.944 102.516 18.664C101.988 18.376 101.576 17.984 101.28 17.488C100.992 16.992 100.848 16.428 100.848 15.796C100.848 15.156 100.988 14.592 101.268 14.104C101.556 13.608 101.948 13.22 102.444 12.94C102.948 12.66 103.52 12.52 104.16 12.52C104.784 12.52 105.34 12.656 105.828 12.928C106.316 13.2 106.7 13.584 106.98 14.08C107.26 14.576 107.4 15.16 107.4 15.832C107.4 15.896 107.396 15.968 107.388 16.048C107.388 16.128 107.384 16.204 107.376 16.276H102.036V15.28H106.584L105.996 15.592C106.004 15.224 105.928 14.9 105.768 14.62C105.608 14.34 105.388 14.12 105.108 13.96C104.836 13.8 104.52 13.72 104.16 13.72C103.792 13.72 103.468 13.8 103.188 13.96C102.916 14.12 102.7 14.344 102.54 14.632C102.388 14.912 102.312 15.244 102.312 15.628V15.868C102.312 16.252 102.4 16.592 102.576 16.888C102.752 17.184 103 17.412 103.32 17.572C103.64 17.732 104.008 17.812 104.424 17.812C104.784 17.812 105.108 17.756 105.396 17.644C105.684 17.532 105.94 17.356 106.164 17.116L106.968 18.04C106.68 18.376 106.316 18.636 105.876 18.82C105.444 18.996 104.948 19.084 104.388 19.084ZM110.821 19.084C110.285 19.084 109.769 19.016 109.273 18.88C108.785 18.736 108.397 18.564 108.109 18.364L108.685 17.224C108.973 17.408 109.317 17.56 109.717 17.68C110.117 17.8 110.517 17.86 110.917 17.86C111.389 17.86 111.729 17.796 111.937 17.668C112.153 17.54 112.261 17.368 112.261 17.152C112.261 16.976 112.189 16.844 112.045 16.756C111.901 16.66 111.713 16.588 111.481 16.54C111.249 16.492 110.989 16.448 110.701 16.408C110.421 16.368 110.137 16.316 109.849 16.252C109.569 16.18 109.313 16.08 109.081 15.952C108.849 15.816 108.661 15.636 108.517 15.412C108.373 15.188 108.301 14.892 108.301 14.524C108.301 14.116 108.417 13.764 108.649 13.468C108.881 13.164 109.205 12.932 109.621 12.772C110.045 12.604 110.545 12.52 111.121 12.52C111.553 12.52 111.989 12.568 112.429 12.664C112.869 12.76 113.233 12.896 113.521 13.072L112.945 14.212C112.641 14.028 112.333 13.904 112.021 13.84C111.717 13.768 111.413 13.732 111.109 13.732C110.653 13.732 110.313 13.8 110.089 13.936C109.873 14.072 109.765 14.244 109.765 14.452C109.765 14.644 109.837 14.788 109.981 14.884C110.125 14.98 110.313 15.056 110.545 15.112C110.777 15.168 111.033 15.216 111.313 15.256C111.601 15.288 111.885 15.34 112.165 15.412C112.445 15.484 112.701 15.584 112.933 15.712C113.173 15.832 113.365 16.004 113.509 16.228C113.653 16.452 113.725 16.744 113.725 17.104C113.725 17.504 113.605 17.852 113.365 18.148C113.133 18.444 112.801 18.676 112.369 18.844C111.937 19.004 111.421 19.084 110.821 19.084ZM118.029 19.084C117.317 19.084 116.693 18.944 116.157 18.664C115.629 18.376 115.217 17.984 114.921 17.488C114.633 16.992 114.489 16.428 114.489 15.796C114.489 15.156 114.629 14.592 114.909 14.104C115.197 13.608 115.589 13.22 116.085 12.94C116.589 12.66 117.161 12.52 117.801 12.52C118.425 12.52 118.981 12.656 119.469 12.928C119.957 13.2 120.341 13.584 120.621 14.08C120.901 14.576 121.041 15.16 121.041 15.832C121.041 15.896 121.037 15.968 121.029 16.048C121.029 16.128 121.025 16.204 121.017 16.276H115.677V15.28H120.225L119.637 15.592C119.645 15.224 119.569 14.9 119.409 14.62C119.249 14.34 119.029 14.12 118.749 13.96C118.477 13.8 118.161 13.72 117.801 13.72C117.433 13.72 117.109 13.8 116.829 13.96C116.557 14.12 116.341 14.344 116.181 14.632C116.029 14.912 115.953 15.244 115.953 15.628V15.868C115.953 16.252 116.041 16.592 116.217 16.888C116.393 17.184 116.641 17.412 116.961 17.572C117.281 17.732 117.649 17.812 118.065 17.812C118.425 17.812 118.749 17.756 119.037 17.644C119.325 17.532 119.581 17.356 119.805 17.116L120.609 18.04C120.321 18.376 119.957 18.636 119.517 18.82C119.085 18.996 118.589 19.084 118.029 19.084ZM126.254 19V17.704L126.17 17.428V15.16C126.17 14.72 126.038 14.38 125.774 14.14C125.51 13.892 125.11 13.768 124.574 13.768C124.214 13.768 123.858 13.824 123.506 13.936C123.162 14.048 122.87 14.204 122.63 14.404L122.042 13.312C122.386 13.048 122.794 12.852 123.266 12.724C123.746 12.588 124.242 12.52 124.754 12.52C125.682 12.52 126.398 12.744 126.902 13.192C127.414 13.632 127.67 14.316 127.67 15.244V19H126.254ZM124.238 19.084C123.758 19.084 123.338 19.004 122.978 18.844C122.618 18.676 122.338 18.448 122.138 18.16C121.946 17.864 121.85 17.532 121.85 17.164C121.85 16.804 121.934 16.48 122.102 16.192C122.278 15.904 122.562 15.676 122.954 15.508C123.346 15.34 123.866 15.256 124.514 15.256H126.374V16.252H124.622C124.11 16.252 123.766 16.336 123.59 16.504C123.414 16.664 123.326 16.864 123.326 17.104C123.326 17.376 123.434 17.592 123.65 17.752C123.866 17.912 124.166 17.992 124.55 17.992C124.918 17.992 125.246 17.908 125.534 17.74C125.83 17.572 126.042 17.324 126.17 16.996L126.422 17.896C126.278 18.272 126.018 18.564 125.642 18.772C125.274 18.98 124.806 19.084 124.238 19.084ZM135.923 19.084C135.211 19.084 134.587 18.944 134.051 18.664C133.523 18.376 133.111 17.984 132.815 17.488C132.527 16.992 132.383 16.428 132.383 15.796C132.383 15.156 132.523 14.592 132.803 14.104C133.091 13.608 133.483 13.22 133.979 12.94C134.483 12.66 135.055 12.52 135.695 12.52C136.319 12.52 136.875 12.656 137.363 12.928C137.851 13.2 138.235 13.584 138.515 14.08C138.795 14.576 138.935 15.16 138.935 15.832C138.935 15.896 138.931 15.968 138.923 16.048C138.923 16.128 138.919 16.204 138.911 16.276H133.571V15.28H138.119L137.531 15.592C137.539 15.224 137.463 14.9 137.303 14.62C137.143 14.34 136.923 14.12 136.643 13.96C136.371 13.8 136.055 13.72 135.695 13.72C135.327 13.72 135.003 13.8 134.723 13.96C134.451 14.12 134.235 14.344 134.075 14.632C133.923 14.912 133.847 15.244 133.847 15.628V15.868C133.847 16.252 133.935 16.592 134.111 16.888C134.287 17.184 134.535 17.412 134.855 17.572C135.175 17.732 135.543 17.812 135.959 17.812C136.319 17.812 136.643 17.756 136.931 17.644C137.219 17.532 137.475 17.356 137.699 17.116L138.503 18.04C138.215 18.376 137.851 18.636 137.411 18.82C136.979 18.996 136.483 19.084 135.923 19.084ZM140.376 19V10.096H141.876V19H140.376ZM149.141 19.084C148.605 19.084 148.089 19.016 147.593 18.88C147.105 18.736 146.717 18.564 146.429 18.364L147.005 17.224C147.293 17.408 147.637 17.56 148.037 17.68C148.437 17.8 148.837 17.86 149.237 17.86C149.709 17.86 150.049 17.796 150.257 17.668C150.473 17.54 150.581 17.368 150.581 17.152C150.581 16.976 150.509 16.844 150.365 16.756C150.221 16.66 150.033 16.588 149.801 16.54C149.569 16.492 149.309 16.448 149.021 16.408C148.741 16.368 148.457 16.316 148.169 16.252C147.889 16.18 147.633 16.08 147.401 15.952C147.169 15.816 146.981 15.636 146.837 15.412C146.693 15.188 146.621 14.892 146.621 14.524C146.621 14.116 146.737 13.764 146.969 13.468C147.201 13.164 147.525 12.932 147.941 12.772C148.365 12.604 148.865 12.52 149.441 12.52C149.873 12.52 150.309 12.568 150.749 12.664C151.189 12.76 151.553 12.896 151.841 13.072L151.265 14.212C150.961 14.028 150.653 13.904 150.341 13.84C150.037 13.768 149.733 13.732 149.429 13.732C148.973 13.732 148.633 13.8 148.409 13.936C148.193 14.072 148.085 14.244 148.085 14.452C148.085 14.644 148.157 14.788 148.301 14.884C148.445 14.98 148.633 15.056 148.865 15.112C149.097 15.168 149.353 15.216 149.633 15.256C149.921 15.288 150.205 15.34 150.485 15.412C150.765 15.484 151.021 15.584 151.253 15.712C151.493 15.832 151.685 16.004 151.829 16.228C151.973 16.452 152.045 16.744 152.045 17.104C152.045 17.504 151.925 17.852 151.685 18.148C151.453 18.444 151.121 18.676 150.689 18.844C150.257 19.004 149.741 19.084 149.141 19.084ZM156.349 19.084C155.637 19.084 155.013 18.944 154.477 18.664C153.949 18.376 153.537 17.984 153.241 17.488C152.953 16.992 152.809 16.428 152.809 15.796C152.809 15.156 152.949 14.592 153.229 14.104C153.517 13.608 153.909 13.22 154.405 12.94C154.909 12.66 155.481 12.52 156.121 12.52C156.745 12.52 157.301 12.656 157.789 12.928C158.277 13.2 158.661 13.584 158.941 14.08C159.221 14.576 159.361 15.16 159.361 15.832C159.361 15.896 159.357 15.968 159.349 16.048C159.349 16.128 159.345 16.204 159.337 16.276H153.997V15.28H158.545L157.957 15.592C157.965 15.224 157.889 14.9 157.729 14.62C157.569 14.34 157.349 14.12 157.069 13.96C156.797 13.8 156.481 13.72 156.121 13.72C155.753 13.72 155.429 13.8 155.149 13.96C154.877 14.12 154.661 14.344 154.501 14.632C154.349 14.912 154.273 15.244 154.273 15.628V15.868C154.273 16.252 154.361 16.592 154.537 16.888C154.713 17.184 154.961 17.412 155.281 17.572C155.601 17.732 155.969 17.812 156.385 17.812C156.745 17.812 157.069 17.756 157.357 17.644C157.645 17.532 157.901 17.356 158.125 17.116L158.929 18.04C158.641 18.376 158.277 18.636 157.837 18.82C157.405 18.996 156.909 19.084 156.349 19.084ZM163.706 21.412C163.114 21.412 162.534 21.332 161.966 21.172C161.406 21.02 160.946 20.796 160.586 20.5L161.258 19.372C161.538 19.604 161.89 19.788 162.314 19.924C162.746 20.068 163.182 20.14 163.622 20.14C164.326 20.14 164.842 19.976 165.17 19.648C165.498 19.328 165.662 18.844 165.662 18.196V17.056L165.782 15.604L165.734 14.152V12.592H167.162V18.028C167.162 19.188 166.866 20.04 166.274 20.584C165.682 21.136 164.826 21.412 163.706 21.412ZM163.514 18.712C162.906 18.712 162.354 18.584 161.858 18.328C161.37 18.064 160.982 17.7 160.694 17.236C160.414 16.772 160.274 16.228 160.274 15.604C160.274 14.988 160.414 14.448 160.694 13.984C160.982 13.52 161.37 13.16 161.858 12.904C162.354 12.648 162.906 12.52 163.514 12.52C164.058 12.52 164.546 12.628 164.978 12.844C165.41 13.06 165.754 13.396 166.01 13.852C166.274 14.308 166.406 14.892 166.406 15.604C166.406 16.316 166.274 16.904 166.01 17.368C165.754 17.824 165.41 18.164 164.978 18.388C164.546 18.604 164.058 18.712 163.514 18.712ZM163.742 17.44C164.118 17.44 164.454 17.364 164.75 17.212C165.046 17.052 165.274 16.836 165.434 16.564C165.602 16.284 165.686 15.964 165.686 15.604C165.686 15.244 165.602 14.928 165.434 14.656C165.274 14.376 165.046 14.164 164.75 14.02C164.454 13.868 164.118 13.792 163.742 13.792C163.366 13.792 163.026 13.868 162.722 14.02C162.426 14.164 162.194 14.376 162.026 14.656C161.866 14.928 161.786 15.244 161.786 15.604C161.786 15.964 161.866 16.284 162.026 16.564C162.194 16.836 162.426 17.052 162.722 17.212C163.026 17.364 163.366 17.44 163.742 17.44ZM171.846 19.084C171.302 19.084 170.822 18.984 170.406 18.784C169.99 18.576 169.666 18.264 169.434 17.848C169.202 17.424 169.086 16.892 169.086 16.252V12.592H170.586V16.048C170.586 16.624 170.714 17.056 170.97 17.344C171.234 17.624 171.606 17.764 172.086 17.764C172.438 17.764 172.742 17.692 172.998 17.548C173.262 17.404 173.466 17.188 173.61 16.9C173.762 16.612 173.838 16.256 173.838 15.832V12.592H175.338V19H173.91V17.272L174.162 17.8C173.946 18.216 173.63 18.536 173.214 18.76C172.798 18.976 172.342 19.084 171.846 19.084ZM177.302 19V12.592H178.802V19H177.302ZM178.058 11.536C177.778 11.536 177.546 11.448 177.362 11.272C177.186 11.096 177.098 10.884 177.098 10.636C177.098 10.38 177.186 10.168 177.362 10C177.546 9.824 177.778 9.736 178.058 9.736C178.338 9.736 178.566 9.82 178.742 9.988C178.926 10.148 179.018 10.352 179.018 10.6C179.018 10.864 178.93 11.088 178.754 11.272C178.578 11.448 178.346 11.536 178.058 11.536ZM188.859 12.52C189.371 12.52 189.823 12.62 190.215 12.82C190.615 13.02 190.927 13.328 191.151 13.744C191.375 14.152 191.487 14.68 191.487 15.328V19H189.987V15.52C189.987 14.952 189.863 14.528 189.615 14.248C189.367 13.968 189.011 13.828 188.547 13.828C188.219 13.828 187.927 13.9 187.671 14.044C187.423 14.188 187.227 14.4 187.083 14.68C186.947 14.96 186.879 15.316 186.879 15.748V19H185.379V15.52C185.379 14.952 185.255 14.528 185.007 14.248C184.759 13.968 184.403 13.828 183.939 13.828C183.611 13.828 183.319 13.9 183.063 14.044C182.815 14.188 182.619 14.4 182.475 14.68C182.339 14.96 182.271 15.316 182.271 15.748V19H180.771V12.592H182.199V14.296L181.947 13.792C182.163 13.376 182.475 13.06 182.883 12.844C183.299 12.628 183.771 12.52 184.299 12.52C184.899 12.52 185.419 12.668 185.859 12.964C186.307 13.26 186.603 13.708 186.747 14.308L186.159 14.104C186.367 13.624 186.711 13.24 187.191 12.952C187.671 12.664 188.227 12.52 188.859 12.52ZM193.403 19V12.592H194.903V19H193.403ZM194.159 11.536C193.879 11.536 193.647 11.448 193.463 11.272C193.287 11.096 193.199 10.884 193.199 10.636C193.199 10.38 193.287 10.168 193.463 10C193.647 9.824 193.879 9.736 194.159 9.736C194.439 9.736 194.667 9.82 194.843 9.988C195.027 10.148 195.119 10.352 195.119 10.6C195.119 10.864 195.031 11.088 194.855 11.272C194.679 11.448 194.447 11.536 194.159 11.536ZM199.884 19.084C199.172 19.084 198.548 18.944 198.012 18.664C197.484 18.376 197.072 17.984 196.776 17.488C196.488 16.992 196.344 16.428 196.344 15.796C196.344 15.156 196.484 14.592 196.764 14.104C197.052 13.608 197.444 13.22 197.94 12.94C198.444 12.66 199.016 12.52 199.656 12.52C200.28 12.52 200.836 12.656 201.324 12.928C201.812 13.2 202.196 13.584 202.476 14.08C202.756 14.576 202.896 15.16 202.896 15.832C202.896 15.896 202.892 15.968 202.884 16.048C202.884 16.128 202.88 16.204 202.872 16.276H197.532V15.28H202.08L201.492 15.592C201.5 15.224 201.424 14.9 201.264 14.62C201.104 14.34 200.884 14.12 200.604 13.96C200.332 13.8 200.016 13.72 199.656 13.72C199.288 13.72 198.964 13.8 198.684 13.96C198.412 14.12 198.196 14.344 198.036 14.632C197.884 14.912 197.808 15.244 197.808 15.628V15.868C197.808 16.252 197.896 16.592 198.072 16.888C198.248 17.184 198.496 17.412 198.816 17.572C199.136 17.732 199.504 17.812 199.92 17.812C200.28 17.812 200.604 17.756 200.892 17.644C201.18 17.532 201.436 17.356 201.66 17.116L202.464 18.04C202.176 18.376 201.812 18.636 201.372 18.82C200.94 18.996 200.444 19.084 199.884 19.084ZM207.973 12.52C208.485 12.52 208.941 12.62 209.341 12.82C209.749 13.02 210.069 13.328 210.301 13.744C210.533 14.152 210.649 14.68 210.649 15.328V19H209.149V15.52C209.149 14.952 209.013 14.528 208.741 14.248C208.477 13.968 208.105 13.828 207.625 13.828C207.273 13.828 206.961 13.9 206.689 14.044C206.417 14.188 206.205 14.404 206.053 14.692C205.909 14.972 205.837 15.328 205.837 15.76V19H204.337V12.592H205.765V14.32L205.513 13.792C205.737 13.384 206.061 13.072 206.485 12.856C206.917 12.632 207.413 12.52 207.973 12.52ZM214.964 19.084C214.26 19.084 213.716 18.904 213.332 18.544C212.948 18.176 212.756 17.636 212.756 16.924V11.176H214.256V16.888C214.256 17.192 214.332 17.428 214.484 17.596C214.644 17.764 214.864 17.848 215.144 17.848C215.48 17.848 215.76 17.76 215.984 17.584L216.404 18.652C216.228 18.796 216.012 18.904 215.756 18.976C215.5 19.048 215.236 19.084 214.964 19.084ZM211.7 13.84V12.64H215.972V13.84H211.7ZM220.307 19.084C219.651 19.084 219.067 18.944 218.555 18.664C218.043 18.376 217.639 17.984 217.343 17.488C217.047 16.992 216.899 16.428 216.899 15.796C216.899 15.156 217.047 14.592 217.343 14.104C217.639 13.608 218.043 13.22 218.555 12.94C219.067 12.66 219.651 12.52 220.307 12.52C220.971 12.52 221.559 12.66 222.071 12.94C222.591 13.22 222.995 13.604 223.283 14.092C223.579 14.58 223.727 15.148 223.727 15.796C223.727 16.428 223.579 16.992 223.283 17.488C222.995 17.984 222.591 18.376 222.071 18.664C221.559 18.944 220.971 19.084 220.307 19.084ZM220.307 17.8C220.675 17.8 221.003 17.72 221.291 17.56C221.579 17.4 221.803 17.168 221.963 16.864C222.131 16.56 222.215 16.204 222.215 15.796C222.215 15.38 222.131 15.024 221.963 14.728C221.803 14.424 221.579 14.192 221.291 14.032C221.003 13.872 220.679 13.792 220.319 13.792C219.951 13.792 219.623 13.872 219.335 14.032C219.055 14.192 218.831 14.424 218.663 14.728C218.495 15.024 218.411 15.38 218.411 15.796C218.411 16.204 218.495 16.56 218.663 16.864C218.831 17.168 219.055 17.4 219.335 17.56C219.623 17.72 219.947 17.8 220.307 17.8Z" fill="#4D4D4D"/>
</g>
<defs>
<clipPath id="clip0_266_821">
<rect width="251" height="32" fill="white"/>
</clipPath>
</defs>
</svg>
