<svg width="148" height="24" viewBox="0 0 148 24" fill="none" xmlns="http://www.w3.org/2000/svg">
<rect width="148" height="24" rx="4" fill="#73B7AD"/>
<path d="M35.26 16.5V8.1H36.244L41.8 15H41.284V8.1H42.484V16.5H41.5L35.944 9.6H36.46V16.5H35.26ZM48.3583 16.596C47.2543 16.596 46.3863 16.28 45.7543 15.648C45.1223 15.016 44.8063 14.092 44.8063 12.876V8.1H46.0063V12.828C46.0063 13.764 46.2103 14.448 46.6183 14.88C47.0343 15.312 47.6183 15.528 48.3703 15.528C49.1303 15.528 49.7143 15.312 50.1223 14.88C50.5383 14.448 50.7463 13.764 50.7463 12.828V8.1H51.9103V12.876C51.9103 14.092 51.5943 15.016 50.9623 15.648C50.3383 16.28 49.4703 16.596 48.3583 16.596ZM55.3425 11.724H59.6625V12.744H55.3425V11.724ZM55.4505 15.456H60.3465V16.5H54.2505V8.1H60.1785V9.144H55.4505V15.456ZM64.4763 16.5L60.7803 8.1H62.0763L65.4723 15.852H64.7283L68.1483 8.1H69.3483L65.6643 16.5H64.4763ZM74.0095 16.596C73.3695 16.596 72.7735 16.488 72.2215 16.272C71.6775 16.056 71.2055 15.756 70.8055 15.372C70.4055 14.98 70.0935 14.524 69.8695 14.004C69.6455 13.484 69.5335 12.916 69.5335 12.3C69.5335 11.684 69.6455 11.116 69.8695 10.596C70.0935 10.076 70.4055 9.624 70.8055 9.24C71.2055 8.848 71.6775 8.544 72.2215 8.328C72.7655 8.112 73.3615 8.004 74.0095 8.004C74.6495 8.004 75.2375 8.112 75.7735 8.328C76.3175 8.536 76.7895 8.836 77.1895 9.228C77.5975 9.612 77.9095 10.064 78.1255 10.584C78.3495 11.104 78.4615 11.676 78.4615 12.3C78.4615 12.924 78.3495 13.496 78.1255 14.016C77.9095 14.536 77.5975 14.992 77.1895 15.384C76.7895 15.768 76.3175 16.068 75.7735 16.284C75.2375 16.492 74.6495 16.596 74.0095 16.596ZM74.0095 15.528C74.4735 15.528 74.9015 15.448 75.2935 15.288C75.6935 15.128 76.0375 14.904 76.3255 14.616C76.6215 14.32 76.8495 13.976 77.0095 13.584C77.1775 13.192 77.2615 12.764 77.2615 12.3C77.2615 11.836 77.1775 11.408 77.0095 11.016C76.8495 10.624 76.6215 10.284 76.3255 9.996C76.0375 9.7 75.6935 9.472 75.2935 9.312C74.9015 9.152 74.4735 9.072 74.0095 9.072C73.5375 9.072 73.1015 9.152 72.7015 9.312C72.3095 9.472 71.9655 9.7 71.6695 9.996C71.3735 10.284 71.1415 10.624 70.9735 11.016C70.8135 11.408 70.7335 11.836 70.7335 12.3C70.7335 12.764 70.8135 13.192 70.9735 13.584C71.1415 13.976 71.3735 14.32 71.6695 14.616C71.9655 14.904 72.3095 15.128 72.7015 15.288C73.1015 15.448 73.5375 15.528 74.0095 15.528ZM85.8823 16.572C85.2343 16.572 84.6543 16.432 84.1423 16.152C83.6383 15.872 83.2423 15.488 82.9543 15C82.6663 14.512 82.5223 13.952 82.5223 13.32C82.5223 12.688 82.6663 12.128 82.9543 11.64C83.2423 11.152 83.6383 10.772 84.1423 10.5C84.6543 10.22 85.2343 10.08 85.8823 10.08C86.4583 10.08 86.9703 10.196 87.4183 10.428C87.8743 10.652 88.2263 10.988 88.4743 11.436L87.5983 12C87.3903 11.688 87.1343 11.46 86.8303 11.316C86.5343 11.164 86.2143 11.088 85.8703 11.088C85.4543 11.088 85.0823 11.18 84.7543 11.364C84.4263 11.548 84.1663 11.808 83.9743 12.144C83.7823 12.472 83.6863 12.864 83.6863 13.32C83.6863 13.776 83.7823 14.172 83.9743 14.508C84.1663 14.844 84.4263 15.104 84.7543 15.288C85.0823 15.472 85.4543 15.564 85.8703 15.564C86.2143 15.564 86.5343 15.492 86.8303 15.348C87.1343 15.196 87.3903 14.964 87.5983 14.652L88.4743 15.204C88.2263 15.644 87.8743 15.984 87.4183 16.224C86.9703 16.456 86.4583 16.572 85.8823 16.572ZM92.476 16.572C91.836 16.572 91.268 16.432 90.772 16.152C90.276 15.872 89.884 15.488 89.596 15C89.308 14.504 89.164 13.944 89.164 13.32C89.164 12.688 89.308 12.128 89.596 11.64C89.884 11.152 90.276 10.772 90.772 10.5C91.268 10.22 91.836 10.08 92.476 10.08C93.108 10.08 93.672 10.22 94.168 10.5C94.672 10.772 95.064 11.152 95.344 11.64C95.632 12.12 95.776 12.68 95.776 13.32C95.776 13.952 95.632 14.512 95.344 15C95.064 15.488 94.672 15.872 94.168 16.152C93.672 16.432 93.108 16.572 92.476 16.572ZM92.476 15.564C92.884 15.564 93.248 15.472 93.568 15.288C93.896 15.104 94.152 14.844 94.336 14.508C94.52 14.164 94.612 13.768 94.612 13.32C94.612 12.864 94.52 12.472 94.336 12.144C94.152 11.808 93.896 11.548 93.568 11.364C93.248 11.18 92.884 11.088 92.476 11.088C92.068 11.088 91.704 11.18 91.384 11.364C91.064 11.548 90.808 11.808 90.616 12.144C90.424 12.472 90.328 12.864 90.328 13.32C90.328 13.768 90.424 14.164 90.616 14.508C90.808 14.844 91.064 15.104 91.384 15.288C91.704 15.472 92.068 15.564 92.476 15.564ZM100.645 10.08C101.165 10.08 101.621 10.18 102.013 10.38C102.413 10.58 102.725 10.884 102.949 11.292C103.173 11.7 103.285 12.216 103.285 12.84V16.5H102.133V12.972C102.133 12.356 101.981 11.892 101.677 11.58C101.381 11.268 100.961 11.112 100.417 11.112C100.009 11.112 99.6532 11.192 99.3492 11.352C99.0452 11.512 98.8092 11.748 98.6412 12.06C98.4812 12.372 98.4012 12.76 98.4012 13.224V16.5H97.2492V10.14H98.3532V11.856L98.1732 11.4C98.3812 10.984 98.7012 10.66 99.1332 10.428C99.5652 10.196 100.069 10.08 100.645 10.08ZM107.481 16.572C106.841 16.572 106.345 16.4 105.993 16.056C105.641 15.712 105.465 15.22 105.465 14.58V8.748H106.617V14.532C106.617 14.876 106.701 15.14 106.869 15.324C107.045 15.508 107.293 15.6 107.613 15.6C107.973 15.6 108.273 15.5 108.513 15.3L108.873 16.128C108.697 16.28 108.485 16.392 108.237 16.464C107.997 16.536 107.745 16.572 107.481 16.572ZM104.385 11.088V10.14H108.441V11.088H104.385ZM114.094 16.5V15.156L114.034 14.904V12.612C114.034 12.124 113.89 11.748 113.602 11.484C113.322 11.212 112.898 11.076 112.33 11.076C111.954 11.076 111.586 11.14 111.226 11.268C110.866 11.388 110.562 11.552 110.314 11.76L109.834 10.896C110.162 10.632 110.554 10.432 111.01 10.296C111.474 10.152 111.958 10.08 112.462 10.08C113.334 10.08 114.006 10.292 114.478 10.716C114.95 11.14 115.186 11.788 115.186 12.66V16.5H114.094ZM112.006 16.572C111.534 16.572 111.118 16.492 110.758 16.332C110.406 16.172 110.134 15.952 109.942 15.672C109.75 15.384 109.654 15.06 109.654 14.7C109.654 14.356 109.734 14.044 109.894 13.764C110.062 13.484 110.33 13.26 110.698 13.092C111.074 12.924 111.578 12.84 112.21 12.84H114.226V13.668H112.258C111.682 13.668 111.294 13.764 111.094 13.956C110.894 14.148 110.794 14.38 110.794 14.652C110.794 14.964 110.918 15.216 111.166 15.408C111.414 15.592 111.758 15.684 112.198 15.684C112.63 15.684 113.006 15.588 113.326 15.396C113.654 15.204 113.89 14.924 114.034 14.556L114.262 15.348C114.11 15.724 113.842 16.024 113.458 16.248C113.074 16.464 112.59 16.572 112.006 16.572ZM119.97 16.572C119.322 16.572 118.742 16.432 118.23 16.152C117.726 15.872 117.33 15.488 117.042 15C116.754 14.512 116.61 13.952 116.61 13.32C116.61 12.688 116.754 12.128 117.042 11.64C117.33 11.152 117.726 10.772 118.23 10.5C118.742 10.22 119.322 10.08 119.97 10.08C120.546 10.08 121.058 10.196 121.506 10.428C121.962 10.652 122.314 10.988 122.562 11.436L121.686 12C121.478 11.688 121.222 11.46 120.918 11.316C120.622 11.164 120.302 11.088 119.958 11.088C119.542 11.088 119.17 11.18 118.842 11.364C118.514 11.548 118.254 11.808 118.062 12.144C117.87 12.472 117.774 12.864 117.774 13.32C117.774 13.776 117.87 14.172 118.062 14.508C118.254 14.844 118.514 15.104 118.842 15.288C119.17 15.472 119.542 15.564 119.958 15.564C120.302 15.564 120.622 15.492 120.918 15.348C121.222 15.196 121.478 14.964 121.686 14.652L122.562 15.204C122.314 15.644 121.962 15.984 121.506 16.224C121.058 16.456 120.546 16.572 119.97 16.572ZM126.199 16.572C125.559 16.572 125.063 16.4 124.711 16.056C124.359 15.712 124.183 15.22 124.183 14.58V8.748H125.335V14.532C125.335 14.876 125.419 15.14 125.587 15.324C125.763 15.508 126.011 15.6 126.331 15.6C126.691 15.6 126.991 15.5 127.231 15.3L127.591 16.128C127.415 16.28 127.203 16.392 126.955 16.464C126.715 16.536 126.463 16.572 126.199 16.572ZM123.103 11.088V10.14H127.159V11.088H123.103ZM131.377 16.572C130.737 16.572 130.169 16.432 129.673 16.152C129.177 15.872 128.785 15.488 128.497 15C128.209 14.504 128.065 13.944 128.065 13.32C128.065 12.688 128.209 12.128 128.497 11.64C128.785 11.152 129.177 10.772 129.673 10.5C130.169 10.22 130.737 10.08 131.377 10.08C132.009 10.08 132.573 10.22 133.069 10.5C133.573 10.772 133.965 11.152 134.245 11.64C134.533 12.12 134.677 12.68 134.677 13.32C134.677 13.952 134.533 14.512 134.245 15C133.965 15.488 133.573 15.872 133.069 16.152C132.573 16.432 132.009 16.572 131.377 16.572ZM131.377 15.564C131.785 15.564 132.149 15.472 132.469 15.288C132.797 15.104 133.053 14.844 133.237 14.508C133.421 14.164 133.513 13.768 133.513 13.32C133.513 12.864 133.421 12.472 133.237 12.144C133.053 11.808 132.797 11.548 132.469 11.364C132.149 11.18 131.785 11.088 131.377 11.088C130.969 11.088 130.605 11.18 130.285 11.364C129.965 11.548 129.709 11.808 129.517 12.144C129.325 12.472 129.229 12.864 129.229 13.32C129.229 13.768 129.325 14.164 129.517 14.508C129.709 14.844 129.965 15.104 130.285 15.288C130.605 15.472 130.969 15.564 131.377 15.564Z" fill="white"/>
</svg>
