<svg width="148" height="24" viewBox="0 0 148 24" fill="none" xmlns="http://www.w3.org/2000/svg">
<rect width="148" height="24" rx="4" fill="#4D4D4D" fill-opacity="0.5"/>
<path d="M33.988 16.5L37.792 8.1H38.98L42.796 16.5H41.536L38.14 8.772H38.62L35.224 16.5H33.988ZM35.608 14.4L35.932 13.44H40.66L41.008 14.4H35.608ZM46.4865 18.9C45.9025 18.9 45.3345 18.816 44.7825 18.648C44.2385 18.488 43.7945 18.256 43.4505 17.952L44.0025 17.064C44.2985 17.32 44.6625 17.52 45.0945 17.664C45.5265 17.816 45.9785 17.892 46.4505 17.892C47.2025 17.892 47.7545 17.716 48.1065 17.364C48.4585 17.012 48.6345 16.476 48.6345 15.756V14.412L48.7545 13.152L48.6945 11.88V10.14H49.7865V15.636C49.7865 16.756 49.5065 17.58 48.9465 18.108C48.3865 18.636 47.5665 18.9 46.4865 18.9ZM46.3425 16.236C45.7265 16.236 45.1745 16.108 44.6865 15.852C44.2065 15.588 43.8225 15.224 43.5345 14.76C43.2545 14.296 43.1145 13.76 43.1145 13.152C43.1145 12.536 43.2545 12 43.5345 11.544C43.8225 11.08 44.2065 10.72 44.6865 10.464C45.1745 10.208 45.7265 10.08 46.3425 10.08C46.8865 10.08 47.3825 10.192 47.8305 10.416C48.2785 10.632 48.6345 10.968 48.8985 11.424C49.1705 11.88 49.3065 12.456 49.3065 13.152C49.3065 13.84 49.1705 14.412 48.8985 14.868C48.6345 15.324 48.2785 15.668 47.8305 15.9C47.3825 16.124 46.8865 16.236 46.3425 16.236ZM46.4745 15.228C46.8985 15.228 47.2745 15.14 47.6025 14.964C47.9305 14.788 48.1865 14.544 48.3705 14.232C48.5625 13.92 48.6585 13.56 48.6585 13.152C48.6585 12.744 48.5625 12.384 48.3705 12.072C48.1865 11.76 47.9305 11.52 47.6025 11.352C47.2745 11.176 46.8985 11.088 46.4745 11.088C46.0505 11.088 45.6705 11.176 45.3345 11.352C45.0065 11.52 44.7465 11.76 44.5545 12.072C44.3705 12.384 44.2785 12.744 44.2785 13.152C44.2785 13.56 44.3705 13.92 44.5545 14.232C44.7465 14.544 45.0065 14.788 45.3345 14.964C45.6705 15.14 46.0505 15.228 46.4745 15.228ZM51.8676 16.5V10.14H52.9716V11.868L52.8636 11.436C53.0396 10.996 53.3356 10.66 53.7516 10.428C54.1676 10.196 54.6796 10.08 55.2876 10.08V11.196C55.2396 11.188 55.1916 11.184 55.1436 11.184C55.1036 11.184 55.0636 11.184 55.0236 11.184C54.4076 11.184 53.9196 11.368 53.5596 11.736C53.1996 12.104 53.0196 12.636 53.0196 13.332V16.5H51.8676ZM59.3609 16.572C58.6809 16.572 58.0809 16.432 57.5609 16.152C57.0489 15.872 56.6489 15.488 56.3609 15C56.0809 14.512 55.9409 13.952 55.9409 13.32C55.9409 12.688 56.0769 12.128 56.3489 11.64C56.6289 11.152 57.0089 10.772 57.4889 10.5C57.9769 10.22 58.5249 10.08 59.1329 10.08C59.7489 10.08 60.2929 10.216 60.7649 10.488C61.2369 10.76 61.6049 11.144 61.8689 11.64C62.1409 12.128 62.2769 12.7 62.2769 13.356C62.2769 13.404 62.2729 13.46 62.2649 13.524C62.2649 13.588 62.2609 13.648 62.2529 13.704H56.8409V12.876H61.6529L61.1849 13.164C61.1929 12.756 61.1089 12.392 60.9329 12.072C60.7569 11.752 60.5129 11.504 60.2009 11.328C59.8969 11.144 59.5409 11.052 59.1329 11.052C58.7329 11.052 58.3769 11.144 58.0649 11.328C57.7529 11.504 57.5089 11.756 57.3329 12.084C57.1569 12.404 57.0689 12.772 57.0689 13.188V13.38C57.0689 13.804 57.1649 14.184 57.3569 14.52C57.5569 14.848 57.8329 15.104 58.1849 15.288C58.5369 15.472 58.9409 15.564 59.3969 15.564C59.7729 15.564 60.1129 15.5 60.4169 15.372C60.7289 15.244 61.0009 15.052 61.2329 14.796L61.8689 15.54C61.5809 15.876 61.2209 16.132 60.7889 16.308C60.3649 16.484 59.8889 16.572 59.3609 16.572ZM66.5405 18.9C65.9565 18.9 65.3885 18.816 64.8365 18.648C64.2925 18.488 63.8485 18.256 63.5045 17.952L64.0565 17.064C64.3525 17.32 64.7165 17.52 65.1485 17.664C65.5805 17.816 66.0325 17.892 66.5045 17.892C67.2565 17.892 67.8085 17.716 68.1605 17.364C68.5125 17.012 68.6885 16.476 68.6885 15.756V14.412L68.8085 13.152L68.7485 11.88V10.14H69.8405V15.636C69.8405 16.756 69.5605 17.58 69.0005 18.108C68.4405 18.636 67.6205 18.9 66.5405 18.9ZM66.3965 16.236C65.7805 16.236 65.2285 16.108 64.7405 15.852C64.2605 15.588 63.8765 15.224 63.5885 14.76C63.3085 14.296 63.1685 13.76 63.1685 13.152C63.1685 12.536 63.3085 12 63.5885 11.544C63.8765 11.08 64.2605 10.72 64.7405 10.464C65.2285 10.208 65.7805 10.08 66.3965 10.08C66.9405 10.08 67.4365 10.192 67.8845 10.416C68.3325 10.632 68.6885 10.968 68.9525 11.424C69.2245 11.88 69.3605 12.456 69.3605 13.152C69.3605 13.84 69.2245 14.412 68.9525 14.868C68.6885 15.324 68.3325 15.668 67.8845 15.9C67.4365 16.124 66.9405 16.236 66.3965 16.236ZM66.5285 15.228C66.9525 15.228 67.3285 15.14 67.6565 14.964C67.9845 14.788 68.2405 14.544 68.4245 14.232C68.6165 13.92 68.7125 13.56 68.7125 13.152C68.7125 12.744 68.6165 12.384 68.4245 12.072C68.2405 11.76 67.9845 11.52 67.6565 11.352C67.3285 11.176 66.9525 11.088 66.5285 11.088C66.1045 11.088 65.7245 11.176 65.3885 11.352C65.0605 11.52 64.8005 11.76 64.6085 12.072C64.4245 12.384 64.3325 12.744 64.3325 13.152C64.3325 13.56 64.4245 13.92 64.6085 14.232C64.8005 14.544 65.0605 14.788 65.3885 14.964C65.7245 15.14 66.1045 15.228 66.5285 15.228ZM75.8697 16.5V15.156L75.8097 14.904V12.612C75.8097 12.124 75.6657 11.748 75.3777 11.484C75.0977 11.212 74.6737 11.076 74.1057 11.076C73.7297 11.076 73.3617 11.14 73.0017 11.268C72.6417 11.388 72.3377 11.552 72.0897 11.76L71.6097 10.896C71.9377 10.632 72.3297 10.432 72.7857 10.296C73.2497 10.152 73.7337 10.08 74.2377 10.08C75.1097 10.08 75.7817 10.292 76.2537 10.716C76.7257 11.14 76.9617 11.788 76.9617 12.66V16.5H75.8697ZM73.7817 16.572C73.3097 16.572 72.8937 16.492 72.5337 16.332C72.1817 16.172 71.9097 15.952 71.7177 15.672C71.5257 15.384 71.4297 15.06 71.4297 14.7C71.4297 14.356 71.5097 14.044 71.6697 13.764C71.8377 13.484 72.1057 13.26 72.4737 13.092C72.8497 12.924 73.3537 12.84 73.9857 12.84H76.0017V13.668H74.0337C73.4577 13.668 73.0697 13.764 72.8697 13.956C72.6697 14.148 72.5697 14.38 72.5697 14.652C72.5697 14.964 72.6937 15.216 72.9417 15.408C73.1897 15.592 73.5337 15.684 73.9737 15.684C74.4057 15.684 74.7817 15.588 75.1017 15.396C75.4297 15.204 75.6657 14.924 75.8097 14.556L76.0377 15.348C75.8857 15.724 75.6177 16.024 75.2337 16.248C74.8497 16.464 74.3657 16.572 73.7817 16.572ZM78.9736 16.5V10.14H80.0776V11.868L79.9696 11.436C80.1456 10.996 80.4416 10.66 80.8576 10.428C81.2736 10.196 81.7856 10.08 82.3936 10.08V11.196C82.3456 11.188 82.2976 11.184 82.2496 11.184C82.2096 11.184 82.1696 11.184 82.1296 11.184C81.5136 11.184 81.0256 11.368 80.6656 11.736C80.3056 12.104 80.1256 12.636 80.1256 13.332V16.5H78.9736ZM89.0621 16.572C88.4221 16.572 87.9261 16.4 87.5741 16.056C87.2221 15.712 87.0461 15.22 87.0461 14.58V8.748H88.1981V14.532C88.1981 14.876 88.2821 15.14 88.4501 15.324C88.6261 15.508 88.8741 15.6 89.1941 15.6C89.5541 15.6 89.8541 15.5 90.0941 15.3L90.4541 16.128C90.2781 16.28 90.0661 16.392 89.8181 16.464C89.5781 16.536 89.3261 16.572 89.0621 16.572ZM85.9661 11.088V10.14H90.0221V11.088H85.9661ZM94.3479 16.572C93.6679 16.572 93.0679 16.432 92.5479 16.152C92.0359 15.872 91.6359 15.488 91.3479 15C91.0679 14.512 90.9279 13.952 90.9279 13.32C90.9279 12.688 91.0639 12.128 91.3359 11.64C91.6159 11.152 91.9959 10.772 92.4759 10.5C92.9639 10.22 93.5119 10.08 94.1199 10.08C94.7359 10.08 95.2799 10.216 95.7519 10.488C96.2239 10.76 96.5919 11.144 96.8559 11.64C97.1279 12.128 97.2639 12.7 97.2639 13.356C97.2639 13.404 97.2599 13.46 97.2519 13.524C97.2519 13.588 97.2479 13.648 97.2399 13.704H91.8279V12.876H96.6399L96.1719 13.164C96.1799 12.756 96.0959 12.392 95.9199 12.072C95.7439 11.752 95.4999 11.504 95.1879 11.328C94.8839 11.144 94.5279 11.052 94.1199 11.052C93.7199 11.052 93.3639 11.144 93.0519 11.328C92.7399 11.504 92.4959 11.756 92.3199 12.084C92.1439 12.404 92.0559 12.772 92.0559 13.188V13.38C92.0559 13.804 92.1519 14.184 92.3439 14.52C92.5439 14.848 92.8199 15.104 93.1719 15.288C93.5239 15.472 93.9279 15.564 94.3839 15.564C94.7599 15.564 95.0999 15.5 95.4039 15.372C95.7159 15.244 95.9879 15.052 96.2199 14.796L96.8559 15.54C96.5679 15.876 96.2079 16.132 95.7759 16.308C95.3519 16.484 94.8759 16.572 94.3479 16.572ZM98.7436 16.5V7.596H99.8956V16.5H98.7436ZM104.807 16.572C104.127 16.572 103.527 16.432 103.007 16.152C102.495 15.872 102.095 15.488 101.807 15C101.527 14.512 101.387 13.952 101.387 13.32C101.387 12.688 101.523 12.128 101.795 11.64C102.075 11.152 102.455 10.772 102.935 10.5C103.423 10.22 103.971 10.08 104.579 10.08C105.195 10.08 105.739 10.216 106.211 10.488C106.683 10.76 107.051 11.144 107.315 11.64C107.587 12.128 107.723 12.7 107.723 13.356C107.723 13.404 107.719 13.46 107.711 13.524C107.711 13.588 107.707 13.648 107.699 13.704H102.287V12.876H107.099L106.631 13.164C106.639 12.756 106.555 12.392 106.379 12.072C106.203 11.752 105.959 11.504 105.647 11.328C105.343 11.144 104.987 11.052 104.579 11.052C104.179 11.052 103.823 11.144 103.511 11.328C103.199 11.504 102.955 11.756 102.779 12.084C102.603 12.404 102.515 12.772 102.515 13.188V13.38C102.515 13.804 102.611 14.184 102.803 14.52C103.003 14.848 103.279 15.104 103.631 15.288C103.983 15.472 104.387 15.564 104.843 15.564C105.219 15.564 105.559 15.5 105.863 15.372C106.175 15.244 106.447 15.052 106.679 14.796L107.315 15.54C107.027 15.876 106.667 16.132 106.235 16.308C105.811 16.484 105.335 16.572 104.807 16.572ZM103.667 9.216L105.299 7.656H106.763L104.747 9.216H103.667ZM109.371 16.5V9.576C109.371 8.952 109.551 8.456 109.911 8.088C110.279 7.712 110.799 7.524 111.471 7.524C111.719 7.524 111.955 7.556 112.179 7.62C112.411 7.676 112.607 7.768 112.767 7.896L112.419 8.772C112.299 8.676 112.163 8.604 112.011 8.556C111.859 8.5 111.699 8.472 111.531 8.472C111.195 8.472 110.939 8.568 110.763 8.76C110.587 8.944 110.499 9.22 110.499 9.588V10.44L110.523 10.968V16.5H109.371ZM108.291 11.088V10.14H112.347V11.088H108.291ZM115.944 16.572C115.304 16.572 114.736 16.432 114.24 16.152C113.744 15.872 113.352 15.488 113.064 15C112.776 14.504 112.632 13.944 112.632 13.32C112.632 12.688 112.776 12.128 113.064 11.64C113.352 11.152 113.744 10.772 114.24 10.5C114.736 10.22 115.304 10.08 115.944 10.08C116.576 10.08 117.14 10.22 117.636 10.5C118.14 10.772 118.532 11.152 118.812 11.64C119.1 12.12 119.244 12.68 119.244 13.32C119.244 13.952 119.1 14.512 118.812 15C118.532 15.488 118.14 15.872 117.636 16.152C117.14 16.432 116.576 16.572 115.944 16.572ZM115.944 15.564C116.352 15.564 116.716 15.472 117.036 15.288C117.364 15.104 117.62 14.844 117.804 14.508C117.988 14.164 118.08 13.768 118.08 13.32C118.08 12.864 117.988 12.472 117.804 12.144C117.62 11.808 117.364 11.548 117.036 11.364C116.716 11.18 116.352 11.088 115.944 11.088C115.536 11.088 115.172 11.18 114.852 11.364C114.532 11.548 114.276 11.808 114.084 12.144C113.892 12.472 113.796 12.864 113.796 13.32C113.796 13.768 113.892 14.164 114.084 14.508C114.276 14.844 114.532 15.104 114.852 15.288C115.172 15.472 115.536 15.564 115.944 15.564ZM124.113 10.08C124.633 10.08 125.089 10.18 125.481 10.38C125.881 10.58 126.193 10.884 126.417 11.292C126.641 11.7 126.753 12.216 126.753 12.84V16.5H125.601V12.972C125.601 12.356 125.449 11.892 125.145 11.58C124.849 11.268 124.429 11.112 123.885 11.112C123.477 11.112 123.121 11.192 122.817 11.352C122.513 11.512 122.277 11.748 122.109 12.06C121.949 12.372 121.869 12.76 121.869 13.224V16.5H120.717V10.14H121.821V11.856L121.641 11.4C121.849 10.984 122.169 10.66 122.601 10.428C123.033 10.196 123.537 10.08 124.113 10.08ZM131.489 16.572C130.849 16.572 130.281 16.432 129.785 16.152C129.289 15.872 128.897 15.488 128.609 15C128.321 14.504 128.177 13.944 128.177 13.32C128.177 12.688 128.321 12.128 128.609 11.64C128.897 11.152 129.289 10.772 129.785 10.5C130.281 10.22 130.849 10.08 131.489 10.08C132.121 10.08 132.685 10.22 133.181 10.5C133.685 10.772 134.077 11.152 134.357 11.64C134.645 12.12 134.789 12.68 134.789 13.32C134.789 13.952 134.645 14.512 134.357 15C134.077 15.488 133.685 15.872 133.181 16.152C132.685 16.432 132.121 16.572 131.489 16.572ZM131.489 15.564C131.897 15.564 132.261 15.472 132.581 15.288C132.909 15.104 133.165 14.844 133.349 14.508C133.533 14.164 133.625 13.768 133.625 13.32C133.625 12.864 133.533 12.472 133.349 12.144C133.165 11.808 132.909 11.548 132.581 11.364C132.261 11.18 131.897 11.088 131.489 11.088C131.081 11.088 130.717 11.18 130.397 11.364C130.077 11.548 129.821 11.808 129.629 12.144C129.437 12.472 129.341 12.864 129.341 13.32C129.341 13.768 129.437 14.164 129.629 14.508C129.821 14.844 130.077 15.104 130.397 15.288C130.717 15.472 131.081 15.564 131.489 15.564Z" fill="white"/>
</svg>
