<svg width="56" height="31" viewBox="0 0 56 31" fill="none" xmlns="http://www.w3.org/2000/svg">
<g clip-path="url(#clip0_213_1244)">
<rect width="56" height="31" rx="7" fill="#4D4D4D" fill-opacity="0.1"/>
<path d="M19.553 19V10.6H20.837L26.105 17.068H25.469V10.6H27.017V19H25.733L20.465 12.532H21.101V19H19.553ZM33.2039 19.12C32.5479 19.12 31.9439 19.012 31.3919 18.796C30.8399 18.58 30.3599 18.28 29.9519 17.896C29.5439 17.504 29.2279 17.048 29.0039 16.528C28.7799 16 28.6679 15.424 28.6679 14.8C28.6679 14.176 28.7799 13.604 29.0039 13.084C29.2279 12.556 29.5439 12.1 29.9519 11.716C30.3599 11.324 30.8399 11.02 31.3919 10.804C31.9439 10.588 32.5439 10.48 33.1919 10.48C33.8479 10.48 34.4479 10.588 34.9919 10.804C35.5439 11.02 36.0239 11.324 36.4319 11.716C36.8399 12.1 37.1559 12.556 37.3799 13.084C37.6039 13.604 37.7159 14.176 37.7159 14.8C37.7159 15.424 37.6039 16 37.3799 16.528C37.1559 17.056 36.8399 17.512 36.4319 17.896C36.0239 18.28 35.5439 18.58 34.9919 18.796C34.4479 19.012 33.8519 19.12 33.2039 19.12ZM33.1919 17.752C33.6159 17.752 34.0079 17.68 34.3679 17.536C34.7279 17.392 35.0399 17.188 35.3039 16.924C35.5679 16.652 35.7719 16.34 35.9159 15.988C36.0679 15.628 36.1439 15.232 36.1439 14.8C36.1439 14.368 36.0679 13.976 35.9159 13.624C35.7719 13.264 35.5679 12.952 35.3039 12.688C35.0399 12.416 34.7279 12.208 34.3679 12.064C34.0079 11.92 33.6159 11.848 33.1919 11.848C32.7679 11.848 32.3759 11.92 32.0159 12.064C31.6639 12.208 31.3519 12.416 31.0799 12.688C30.8159 12.952 30.6079 13.264 30.4559 13.624C30.3119 13.976 30.2399 14.368 30.2399 14.8C30.2399 15.224 30.3119 15.616 30.4559 15.976C30.6079 16.336 30.8159 16.652 31.0799 16.924C31.3439 17.188 31.6559 17.392 32.0159 17.536C32.3759 17.68 32.7679 17.752 33.1919 17.752Z" fill="#4D4D4D"/>
</g>
<defs>
<clipPath id="clip0_213_1244">
<rect width="56" height="31" fill="white"/>
</clipPath>
</defs>
</svg>
