<svg width="252" height="33" viewBox="0 0 252 33" fill="none" xmlns="http://www.w3.org/2000/svg">
<g clip-path="url(#clip0_266_817)">
<rect width="252" height="33" rx="7" fill="#4D4D4D" fill-opacity="0.1"/>
<path d="M32.0035 20.12C31.3475 20.12 30.7195 20.028 30.1195 19.844C29.5195 19.652 29.0435 19.408 28.6915 19.112L29.2315 17.9C29.5675 18.164 29.9835 18.384 30.4795 18.56C30.9755 18.736 31.4835 18.824 32.0035 18.824C32.4435 18.824 32.7995 18.776 33.0715 18.68C33.3435 18.584 33.5435 18.456 33.6715 18.296C33.7995 18.128 33.8635 17.94 33.8635 17.732C33.8635 17.476 33.7715 17.272 33.5875 17.12C33.4035 16.96 33.1635 16.836 32.8675 16.748C32.5795 16.652 32.2555 16.564 31.8955 16.484C31.5435 16.404 31.1875 16.312 30.8275 16.208C30.4755 16.096 30.1515 15.956 29.8555 15.788C29.5675 15.612 29.3315 15.38 29.1475 15.092C28.9635 14.804 28.8715 14.436 28.8715 13.988C28.8715 13.532 28.9915 13.116 29.2315 12.74C29.4795 12.356 29.8515 12.052 30.3475 11.828C30.8515 11.596 31.4875 11.48 32.2555 11.48C32.7595 11.48 33.2595 11.544 33.7555 11.672C34.2515 11.8 34.6835 11.984 35.0515 12.224L34.5595 13.436C34.1835 13.212 33.7955 13.048 33.3955 12.944C32.9955 12.832 32.6115 12.776 32.2435 12.776C31.8115 12.776 31.4595 12.828 31.1875 12.932C30.9235 13.036 30.7275 13.172 30.5995 13.34C30.4795 13.508 30.4195 13.7 30.4195 13.916C30.4195 14.172 30.5075 14.38 30.6835 14.54C30.8675 14.692 31.1035 14.812 31.3915 14.9C31.6875 14.988 32.0155 15.076 32.3755 15.164C32.7355 15.244 33.0915 15.336 33.4435 15.44C33.8035 15.544 34.1275 15.68 34.4155 15.848C34.7115 16.016 34.9475 16.244 35.1235 16.532C35.3075 16.82 35.3995 17.184 35.3995 17.624C35.3995 18.072 35.2755 18.488 35.0275 18.872C34.7875 19.248 34.4155 19.552 33.9115 19.784C33.4075 20.008 32.7715 20.12 32.0035 20.12ZM36.9464 20V11.6H38.5064V20H36.9464ZM40.2384 21.812L40.9344 19.16L41.1384 20.048C40.8584 20.048 40.6224 19.964 40.4304 19.796C40.2464 19.62 40.1544 19.384 40.1544 19.088C40.1544 18.784 40.2464 18.544 40.4304 18.368C40.6224 18.184 40.8544 18.092 41.1264 18.092C41.4064 18.092 41.6384 18.184 41.8224 18.368C42.0064 18.552 42.0984 18.792 42.0984 19.088C42.0984 19.168 42.0904 19.256 42.0744 19.352C42.0584 19.44 42.0304 19.544 41.9904 19.664C41.9584 19.784 41.9024 19.936 41.8224 20.12L41.2104 21.812H40.2384ZM50.5165 13.52C51.0285 13.52 51.4845 13.62 51.8845 13.82C52.2925 14.02 52.6125 14.328 52.8445 14.744C53.0765 15.152 53.1925 15.68 53.1925 16.328V20H51.6925V16.52C51.6925 15.952 51.5565 15.528 51.2845 15.248C51.0205 14.968 50.6485 14.828 50.1685 14.828C49.8165 14.828 49.5045 14.9 49.2325 15.044C48.9605 15.188 48.7485 15.404 48.5965 15.692C48.4525 15.972 48.3805 16.328 48.3805 16.76V20H46.8805V13.592H48.3085V15.32L48.0565 14.792C48.2805 14.384 48.6045 14.072 49.0285 13.856C49.4605 13.632 49.9565 13.52 50.5165 13.52ZM57.987 20.084C57.331 20.084 56.747 19.944 56.235 19.664C55.723 19.376 55.319 18.984 55.023 18.488C54.727 17.992 54.579 17.428 54.579 16.796C54.579 16.156 54.727 15.592 55.023 15.104C55.319 14.608 55.723 14.22 56.235 13.94C56.747 13.66 57.331 13.52 57.987 13.52C58.651 13.52 59.239 13.66 59.751 13.94C60.271 14.22 60.675 14.604 60.963 15.092C61.259 15.58 61.407 16.148 61.407 16.796C61.407 17.428 61.259 17.992 60.963 18.488C60.675 18.984 60.271 19.376 59.751 19.664C59.239 19.944 58.651 20.084 57.987 20.084ZM57.987 18.8C58.355 18.8 58.683 18.72 58.971 18.56C59.259 18.4 59.483 18.168 59.643 17.864C59.811 17.56 59.895 17.204 59.895 16.796C59.895 16.38 59.811 16.024 59.643 15.728C59.483 15.424 59.259 15.192 58.971 15.032C58.683 14.872 58.359 14.792 57.999 14.792C57.631 14.792 57.303 14.872 57.015 15.032C56.735 15.192 56.511 15.424 56.343 15.728C56.175 16.024 56.091 16.38 56.091 16.796C56.091 17.204 56.175 17.56 56.343 17.864C56.511 18.168 56.735 18.4 57.015 18.56C57.303 18.72 57.627 18.8 57.987 18.8ZM69.7098 20.084C69.1898 20.084 68.7138 19.964 68.2818 19.724C67.8578 19.484 67.5178 19.124 67.2618 18.644C67.0138 18.156 66.8898 17.54 66.8898 16.796C66.8898 16.044 67.0098 15.428 67.2498 14.948C67.4978 14.468 67.8338 14.112 68.2578 13.88C68.6818 13.64 69.1658 13.52 69.7098 13.52C70.3418 13.52 70.8978 13.656 71.3778 13.928C71.8658 14.2 72.2498 14.58 72.5298 15.068C72.8178 15.556 72.9618 16.132 72.9618 16.796C72.9618 17.46 72.8178 18.04 72.5298 18.536C72.2498 19.024 71.8658 19.404 71.3778 19.676C70.8978 19.948 70.3418 20.084 69.7098 20.084ZM66.1578 22.328V13.592H67.5858V15.104L67.5378 16.808L67.6578 18.512V22.328H66.1578ZM69.5418 18.8C69.9018 18.8 70.2218 18.72 70.5018 18.56C70.7898 18.4 71.0178 18.168 71.1858 17.864C71.3538 17.56 71.4378 17.204 71.4378 16.796C71.4378 16.38 71.3538 16.024 71.1858 15.728C71.0178 15.424 70.7898 15.192 70.5018 15.032C70.2218 14.872 69.9018 14.792 69.5418 14.792C69.1818 14.792 68.8578 14.872 68.5698 15.032C68.2818 15.192 68.0538 15.424 67.8858 15.728C67.7178 16.024 67.6338 16.38 67.6338 16.796C67.6338 17.204 67.7178 17.56 67.8858 17.864C68.0538 18.168 68.2818 18.4 68.5698 18.56C68.8578 18.72 69.1818 18.8 69.5418 18.8ZM77.0964 20.084C76.5524 20.084 76.0724 19.984 75.6564 19.784C75.2404 19.576 74.9164 19.264 74.6844 18.848C74.4524 18.424 74.3364 17.892 74.3364 17.252V13.592H75.8364V17.048C75.8364 17.624 75.9644 18.056 76.2204 18.344C76.4844 18.624 76.8564 18.764 77.3364 18.764C77.6884 18.764 77.9924 18.692 78.2484 18.548C78.5124 18.404 78.7164 18.188 78.8604 17.9C79.0124 17.612 79.0884 17.256 79.0884 16.832V13.592H80.5884V20H79.1604V18.272L79.4124 18.8C79.1964 19.216 78.8804 19.536 78.4644 19.76C78.0484 19.976 77.5924 20.084 77.0964 20.084ZM85.5644 20.084C84.8524 20.084 84.2284 19.944 83.6924 19.664C83.1644 19.376 82.7524 18.984 82.4564 18.488C82.1684 17.992 82.0244 17.428 82.0244 16.796C82.0244 16.156 82.1644 15.592 82.4444 15.104C82.7324 14.608 83.1244 14.22 83.6204 13.94C84.1244 13.66 84.6964 13.52 85.3364 13.52C85.9604 13.52 86.5164 13.656 87.0044 13.928C87.4924 14.2 87.8764 14.584 88.1564 15.08C88.4364 15.576 88.5764 16.16 88.5764 16.832C88.5764 16.896 88.5724 16.968 88.5644 17.048C88.5644 17.128 88.5604 17.204 88.5524 17.276H83.2124V16.28H87.7604L87.1724 16.592C87.1804 16.224 87.1044 15.9 86.9444 15.62C86.7844 15.34 86.5644 15.12 86.2844 14.96C86.0124 14.8 85.6964 14.72 85.3364 14.72C84.9684 14.72 84.6444 14.8 84.3644 14.96C84.0924 15.12 83.8764 15.344 83.7164 15.632C83.5644 15.912 83.4884 16.244 83.4884 16.628V16.868C83.4884 17.252 83.5764 17.592 83.7524 17.888C83.9284 18.184 84.1764 18.412 84.4964 18.572C84.8164 18.732 85.1844 18.812 85.6004 18.812C85.9604 18.812 86.2844 18.756 86.5724 18.644C86.8604 18.532 87.1164 18.356 87.3404 18.116L88.1444 19.04C87.8564 19.376 87.4924 19.636 87.0524 19.82C86.6204 19.996 86.1244 20.084 85.5644 20.084ZM92.7292 20.084C92.1132 20.084 91.5572 19.948 91.0612 19.676C90.5732 19.396 90.1892 19.012 89.9092 18.524C89.6292 18.036 89.4892 17.46 89.4892 16.796C89.4892 16.132 89.6292 15.556 89.9092 15.068C90.1892 14.58 90.5732 14.2 91.0612 13.928C91.5572 13.656 92.1132 13.52 92.7292 13.52C93.2652 13.52 93.7452 13.64 94.1692 13.88C94.5932 14.112 94.9292 14.468 95.1772 14.948C95.4252 15.428 95.5492 16.044 95.5492 16.796C95.5492 17.54 95.4292 18.156 95.1892 18.644C94.9492 19.124 94.6172 19.484 94.1932 19.724C93.7692 19.964 93.2812 20.084 92.7292 20.084ZM92.9092 18.8C93.2692 18.8 93.5892 18.72 93.8692 18.56C94.1572 18.4 94.3852 18.168 94.5532 17.864C94.7292 17.56 94.8172 17.204 94.8172 16.796C94.8172 16.38 94.7292 16.024 94.5532 15.728C94.3852 15.424 94.1572 15.192 93.8692 15.032C93.5892 14.872 93.2692 14.792 92.9092 14.792C92.5492 14.792 92.2252 14.872 91.9372 15.032C91.6572 15.192 91.4292 15.424 91.2532 15.728C91.0852 16.024 91.0012 16.38 91.0012 16.796C91.0012 17.204 91.0852 17.56 91.2532 17.864C91.4292 18.168 91.6572 18.4 91.9372 18.56C92.2252 18.72 92.5492 18.8 92.9092 18.8ZM94.8532 20V18.488L94.9132 16.784L94.7932 15.08V11.096H96.2812V20H94.8532ZM101.267 20.084C100.555 20.084 99.9315 19.944 99.3955 19.664C98.8675 19.376 98.4555 18.984 98.1595 18.488C97.8715 17.992 97.7275 17.428 97.7275 16.796C97.7275 16.156 97.8675 15.592 98.1475 15.104C98.4355 14.608 98.8275 14.22 99.3235 13.94C99.8275 13.66 100.399 13.52 101.039 13.52C101.663 13.52 102.219 13.656 102.707 13.928C103.195 14.2 103.579 14.584 103.859 15.08C104.139 15.576 104.279 16.16 104.279 16.832C104.279 16.896 104.275 16.968 104.267 17.048C104.267 17.128 104.263 17.204 104.255 17.276H98.9155V16.28H103.463L102.875 16.592C102.883 16.224 102.807 15.9 102.647 15.62C102.487 15.34 102.267 15.12 101.987 14.96C101.715 14.8 101.399 14.72 101.039 14.72C100.671 14.72 100.347 14.8 100.067 14.96C99.7955 15.12 99.5795 15.344 99.4195 15.632C99.2675 15.912 99.1915 16.244 99.1915 16.628V16.868C99.1915 17.252 99.2795 17.592 99.4555 17.888C99.6315 18.184 99.8795 18.412 100.199 18.572C100.519 18.732 100.887 18.812 101.303 18.812C101.663 18.812 101.987 18.756 102.275 18.644C102.563 18.532 102.819 18.356 103.043 18.116L103.847 19.04C103.559 19.376 103.195 19.636 102.755 19.82C102.323 19.996 101.827 20.084 101.267 20.084ZM112.985 20V18.704L112.901 18.428V16.16C112.901 15.72 112.769 15.38 112.505 15.14C112.241 14.892 111.841 14.768 111.305 14.768C110.945 14.768 110.589 14.824 110.237 14.936C109.893 15.048 109.601 15.204 109.361 15.404L108.773 14.312C109.117 14.048 109.525 13.852 109.997 13.724C110.477 13.588 110.973 13.52 111.485 13.52C112.413 13.52 113.129 13.744 113.633 14.192C114.145 14.632 114.401 15.316 114.401 16.244V20H112.985ZM110.969 20.084C110.489 20.084 110.069 20.004 109.709 19.844C109.349 19.676 109.069 19.448 108.869 19.16C108.677 18.864 108.581 18.532 108.581 18.164C108.581 17.804 108.665 17.48 108.833 17.192C109.009 16.904 109.293 16.676 109.685 16.508C110.077 16.34 110.597 16.256 111.245 16.256H113.105V17.252H111.353C110.841 17.252 110.497 17.336 110.321 17.504C110.145 17.664 110.057 17.864 110.057 18.104C110.057 18.376 110.165 18.592 110.381 18.752C110.597 18.912 110.897 18.992 111.281 18.992C111.649 18.992 111.977 18.908 112.265 18.74C112.561 18.572 112.773 18.324 112.901 17.996L113.153 18.896C113.009 19.272 112.749 19.564 112.373 19.772C112.005 19.98 111.537 20.084 110.969 20.084ZM118.738 20.084C118.034 20.084 117.49 19.904 117.106 19.544C116.722 19.176 116.53 18.636 116.53 17.924V12.176H118.03V17.888C118.03 18.192 118.106 18.428 118.258 18.596C118.418 18.764 118.638 18.848 118.918 18.848C119.254 18.848 119.534 18.76 119.758 18.584L120.178 19.652C120.002 19.796 119.786 19.904 119.53 19.976C119.274 20.048 119.01 20.084 118.738 20.084ZM115.474 14.84V13.64H119.746V14.84H115.474ZM124.213 20.084C123.501 20.084 122.877 19.944 122.341 19.664C121.813 19.376 121.401 18.984 121.105 18.488C120.817 17.992 120.673 17.428 120.673 16.796C120.673 16.156 120.813 15.592 121.093 15.104C121.381 14.608 121.773 14.22 122.269 13.94C122.773 13.66 123.345 13.52 123.985 13.52C124.609 13.52 125.165 13.656 125.653 13.928C126.141 14.2 126.525 14.584 126.805 15.08C127.085 15.576 127.225 16.16 127.225 16.832C127.225 16.896 127.221 16.968 127.213 17.048C127.213 17.128 127.209 17.204 127.201 17.276H121.861V16.28H126.409L125.821 16.592C125.829 16.224 125.753 15.9 125.593 15.62C125.433 15.34 125.213 15.12 124.933 14.96C124.661 14.8 124.345 14.72 123.985 14.72C123.617 14.72 123.293 14.8 123.013 14.96C122.741 15.12 122.525 15.344 122.365 15.632C122.213 15.912 122.137 16.244 122.137 16.628V16.868C122.137 17.252 122.225 17.592 122.401 17.888C122.577 18.184 122.825 18.412 123.145 18.572C123.465 18.732 123.833 18.812 124.249 18.812C124.609 18.812 124.933 18.756 125.221 18.644C125.509 18.532 125.765 18.356 125.989 18.116L126.793 19.04C126.505 19.376 126.141 19.636 125.701 19.82C125.269 19.996 124.773 20.084 124.213 20.084ZM132.302 13.52C132.814 13.52 133.27 13.62 133.67 13.82C134.078 14.02 134.398 14.328 134.63 14.744C134.862 15.152 134.978 15.68 134.978 16.328V20H133.478V16.52C133.478 15.952 133.342 15.528 133.07 15.248C132.806 14.968 132.434 14.828 131.954 14.828C131.602 14.828 131.29 14.9 131.018 15.044C130.746 15.188 130.534 15.404 130.382 15.692C130.238 15.972 130.166 16.328 130.166 16.76V20H128.666V13.592H130.094V15.32L129.842 14.792C130.066 14.384 130.39 14.072 130.814 13.856C131.246 13.632 131.742 13.52 132.302 13.52ZM139.604 20.084C138.988 20.084 138.432 19.948 137.936 19.676C137.448 19.396 137.064 19.012 136.784 18.524C136.504 18.036 136.364 17.46 136.364 16.796C136.364 16.132 136.504 15.556 136.784 15.068C137.064 14.58 137.448 14.2 137.936 13.928C138.432 13.656 138.988 13.52 139.604 13.52C140.14 13.52 140.62 13.64 141.044 13.88C141.468 14.112 141.804 14.468 142.052 14.948C142.3 15.428 142.424 16.044 142.424 16.796C142.424 17.54 142.304 18.156 142.064 18.644C141.824 19.124 141.492 19.484 141.068 19.724C140.644 19.964 140.156 20.084 139.604 20.084ZM139.784 18.8C140.144 18.8 140.464 18.72 140.744 18.56C141.032 18.4 141.26 18.168 141.428 17.864C141.604 17.56 141.692 17.204 141.692 16.796C141.692 16.38 141.604 16.024 141.428 15.728C141.26 15.424 141.032 15.192 140.744 15.032C140.464 14.872 140.144 14.792 139.784 14.792C139.424 14.792 139.1 14.872 138.812 15.032C138.532 15.192 138.304 15.424 138.128 15.728C137.96 16.024 137.876 16.38 137.876 16.796C137.876 17.204 137.96 17.56 138.128 17.864C138.304 18.168 138.532 18.4 138.812 18.56C139.1 18.72 139.424 18.8 139.784 18.8ZM141.728 20V18.488L141.788 16.784L141.668 15.08V11.096H143.156V20H141.728ZM148.142 20.084C147.43 20.084 146.806 19.944 146.27 19.664C145.742 19.376 145.33 18.984 145.034 18.488C144.746 17.992 144.602 17.428 144.602 16.796C144.602 16.156 144.742 15.592 145.022 15.104C145.31 14.608 145.702 14.22 146.198 13.94C146.702 13.66 147.274 13.52 147.914 13.52C148.538 13.52 149.094 13.656 149.582 13.928C150.07 14.2 150.454 14.584 150.734 15.08C151.014 15.576 151.154 16.16 151.154 16.832C151.154 16.896 151.15 16.968 151.142 17.048C151.142 17.128 151.138 17.204 151.13 17.276H145.79V16.28H150.338L149.75 16.592C149.758 16.224 149.682 15.9 149.522 15.62C149.362 15.34 149.142 15.12 148.862 14.96C148.59 14.8 148.274 14.72 147.914 14.72C147.546 14.72 147.222 14.8 146.942 14.96C146.67 15.12 146.454 15.344 146.294 15.632C146.142 15.912 146.066 16.244 146.066 16.628V16.868C146.066 17.252 146.154 17.592 146.33 17.888C146.506 18.184 146.754 18.412 147.074 18.572C147.394 18.732 147.762 18.812 148.178 18.812C148.538 18.812 148.862 18.756 149.15 18.644C149.438 18.532 149.694 18.356 149.918 18.116L150.722 19.04C150.434 19.376 150.07 19.636 149.63 19.82C149.198 19.996 148.702 20.084 148.142 20.084ZM152.595 20V13.592H154.023V15.356L153.855 14.84C154.047 14.408 154.347 14.08 154.755 13.856C155.171 13.632 155.687 13.52 156.303 13.52V14.948C156.239 14.932 156.179 14.924 156.123 14.924C156.067 14.916 156.011 14.912 155.955 14.912C155.387 14.912 154.935 15.08 154.599 15.416C154.263 15.744 154.095 16.236 154.095 16.892V20H152.595ZM160.951 20V11.096H162.451V20H160.951ZM168.368 20V18.704L168.284 18.428V16.16C168.284 15.72 168.152 15.38 167.888 15.14C167.624 14.892 167.224 14.768 166.688 14.768C166.328 14.768 165.972 14.824 165.62 14.936C165.276 15.048 164.984 15.204 164.744 15.404L164.156 14.312C164.5 14.048 164.908 13.852 165.38 13.724C165.86 13.588 166.356 13.52 166.868 13.52C167.796 13.52 168.512 13.744 169.016 14.192C169.528 14.632 169.784 15.316 169.784 16.244V20H168.368ZM166.352 20.084C165.872 20.084 165.452 20.004 165.092 19.844C164.732 19.676 164.452 19.448 164.252 19.16C164.06 18.864 163.964 18.532 163.964 18.164C163.964 17.804 164.048 17.48 164.216 17.192C164.392 16.904 164.676 16.676 165.068 16.508C165.46 16.34 165.98 16.256 166.628 16.256H168.488V17.252H166.736C166.224 17.252 165.88 17.336 165.704 17.504C165.528 17.664 165.44 17.864 165.44 18.104C165.44 18.376 165.548 18.592 165.764 18.752C165.98 18.912 166.28 18.992 166.664 18.992C167.032 18.992 167.36 18.908 167.648 18.74C167.944 18.572 168.156 18.324 168.284 17.996L168.536 18.896C168.392 19.272 168.132 19.564 167.756 19.772C167.388 19.98 166.92 20.084 166.352 20.084ZM175.025 20V11.096H176.525V20H175.025ZM178.494 20V11.096H179.994V20H178.494ZM185.911 20V18.704L185.827 18.428V16.16C185.827 15.72 185.695 15.38 185.431 15.14C185.167 14.892 184.767 14.768 184.231 14.768C183.871 14.768 183.515 14.824 183.163 14.936C182.819 15.048 182.527 15.204 182.287 15.404L181.699 14.312C182.043 14.048 182.451 13.852 182.923 13.724C183.403 13.588 183.899 13.52 184.411 13.52C185.339 13.52 186.055 13.744 186.559 14.192C187.071 14.632 187.327 15.316 187.327 16.244V20H185.911ZM183.895 20.084C183.415 20.084 182.995 20.004 182.635 19.844C182.275 19.676 181.995 19.448 181.795 19.16C181.603 18.864 181.507 18.532 181.507 18.164C181.507 17.804 181.591 17.48 181.759 17.192C181.935 16.904 182.219 16.676 182.611 16.508C183.003 16.34 183.523 16.256 184.171 16.256H186.031V17.252H184.279C183.767 17.252 183.423 17.336 183.247 17.504C183.071 17.664 182.983 17.864 182.983 18.104C182.983 18.376 183.091 18.592 183.307 18.752C183.523 18.912 183.823 18.992 184.207 18.992C184.575 18.992 184.903 18.908 185.191 18.74C185.487 18.572 185.699 18.324 185.827 17.996L186.079 18.896C185.935 19.272 185.675 19.564 185.299 19.772C184.931 19.98 184.463 20.084 183.895 20.084ZM197.34 13.52C197.852 13.52 198.304 13.62 198.696 13.82C199.096 14.02 199.408 14.328 199.632 14.744C199.856 15.152 199.968 15.68 199.968 16.328V20H198.468V16.52C198.468 15.952 198.344 15.528 198.096 15.248C197.848 14.968 197.492 14.828 197.028 14.828C196.7 14.828 196.408 14.9 196.152 15.044C195.904 15.188 195.708 15.4 195.564 15.68C195.428 15.96 195.36 16.316 195.36 16.748V20H193.86V16.52C193.86 15.952 193.736 15.528 193.488 15.248C193.24 14.968 192.884 14.828 192.42 14.828C192.092 14.828 191.8 14.9 191.544 15.044C191.296 15.188 191.1 15.4 190.956 15.68C190.82 15.96 190.752 16.316 190.752 16.748V20H189.252V13.592H190.68V15.296L190.428 14.792C190.644 14.376 190.956 14.06 191.364 13.844C191.78 13.628 192.252 13.52 192.78 13.52C193.38 13.52 193.9 13.668 194.34 13.964C194.788 14.26 195.084 14.708 195.228 15.308L194.64 15.104C194.848 14.624 195.192 14.24 195.672 13.952C196.152 13.664 196.708 13.52 197.34 13.52ZM205.832 20V18.704L205.748 18.428V16.16C205.748 15.72 205.616 15.38 205.352 15.14C205.088 14.892 204.688 14.768 204.152 14.768C203.792 14.768 203.436 14.824 203.084 14.936C202.74 15.048 202.448 15.204 202.208 15.404L201.62 14.312C201.964 14.048 202.372 13.852 202.844 13.724C203.324 13.588 203.82 13.52 204.332 13.52C205.26 13.52 205.976 13.744 206.48 14.192C206.992 14.632 207.248 15.316 207.248 16.244V20H205.832ZM203.816 20.084C203.336 20.084 202.916 20.004 202.556 19.844C202.196 19.676 201.916 19.448 201.716 19.16C201.524 18.864 201.428 18.532 201.428 18.164C201.428 17.804 201.512 17.48 201.68 17.192C201.856 16.904 202.14 16.676 202.532 16.508C202.924 16.34 203.444 16.256 204.092 16.256H205.952V17.252H204.2C203.688 17.252 203.344 17.336 203.168 17.504C202.992 17.664 202.904 17.864 202.904 18.104C202.904 18.376 203.012 18.592 203.228 18.752C203.444 18.912 203.744 18.992 204.128 18.992C204.496 18.992 204.824 18.908 205.112 18.74C205.408 18.572 205.62 18.324 205.748 17.996L206 18.896C205.856 19.272 205.596 19.564 205.22 19.772C204.852 19.98 204.384 20.084 203.816 20.084ZM211.897 20.084C211.281 20.084 210.725 19.948 210.229 19.676C209.741 19.396 209.357 19.012 209.077 18.524C208.797 18.036 208.657 17.46 208.657 16.796C208.657 16.132 208.797 15.556 209.077 15.068C209.357 14.58 209.741 14.2 210.229 13.928C210.725 13.656 211.281 13.52 211.897 13.52C212.433 13.52 212.913 13.64 213.337 13.88C213.761 14.112 214.097 14.468 214.345 14.948C214.593 15.428 214.717 16.044 214.717 16.796C214.717 17.54 214.597 18.156 214.357 18.644C214.117 19.124 213.785 19.484 213.361 19.724C212.937 19.964 212.449 20.084 211.897 20.084ZM212.077 18.8C212.437 18.8 212.757 18.72 213.037 18.56C213.325 18.4 213.553 18.168 213.721 17.864C213.897 17.56 213.985 17.204 213.985 16.796C213.985 16.38 213.897 16.024 213.721 15.728C213.553 15.424 213.325 15.192 213.037 15.032C212.757 14.872 212.437 14.792 212.077 14.792C211.717 14.792 211.393 14.872 211.105 15.032C210.825 15.192 210.597 15.424 210.421 15.728C210.253 16.024 210.169 16.38 210.169 16.796C210.169 17.204 210.253 17.56 210.421 17.864C210.597 18.168 210.825 18.4 211.105 18.56C211.393 18.72 211.717 18.8 212.077 18.8ZM214.021 20V18.488L214.081 16.784L213.961 15.08V11.096H215.449V20H214.021ZM221.371 20V18.704L221.287 18.428V16.16C221.287 15.72 221.155 15.38 220.891 15.14C220.627 14.892 220.227 14.768 219.691 14.768C219.331 14.768 218.975 14.824 218.623 14.936C218.279 15.048 217.987 15.204 217.747 15.404L217.159 14.312C217.503 14.048 217.911 13.852 218.383 13.724C218.863 13.588 219.359 13.52 219.871 13.52C220.799 13.52 221.515 13.744 222.019 14.192C222.531 14.632 222.787 15.316 222.787 16.244V20H221.371ZM219.355 20.084C218.875 20.084 218.455 20.004 218.095 19.844C217.735 19.676 217.455 19.448 217.255 19.16C217.063 18.864 216.967 18.532 216.967 18.164C216.967 17.804 217.051 17.48 217.219 17.192C217.395 16.904 217.679 16.676 218.071 16.508C218.463 16.34 218.983 16.256 219.631 16.256H221.491V17.252H219.739C219.227 17.252 218.883 17.336 218.707 17.504C218.531 17.664 218.443 17.864 218.443 18.104C218.443 18.376 218.551 18.592 218.767 18.752C218.983 18.912 219.283 18.992 219.667 18.992C220.035 18.992 220.363 18.908 220.651 18.74C220.947 18.572 221.159 18.324 221.287 17.996L221.539 18.896C221.395 19.272 221.135 19.564 220.759 19.772C220.391 19.98 219.923 20.084 219.355 20.084Z" fill="#4D4D4D"/>
</g>
<defs>
<clipPath id="clip0_266_817">
<rect width="252" height="33" fill="white"/>
</clipPath>
</defs>
</svg>
