<svg width="185" height="31" viewBox="0 0 185 31" fill="none" xmlns="http://www.w3.org/2000/svg">
<g clip-path="url(#clip0_213_1242)">
<rect width="185" height="31" rx="7" fill="#73B7AD"/>
<path d="M27.6868 19.12C27.0308 19.12 26.4028 19.028 25.8028 18.844C25.2028 18.652 24.7268 18.408 24.3748 18.112L24.9148 16.9C25.2508 17.164 25.6668 17.384 26.1628 17.56C26.6588 17.736 27.1668 17.824 27.6868 17.824C28.1268 17.824 28.4828 17.776 28.7548 17.68C29.0268 17.584 29.2268 17.456 29.3548 17.296C29.4828 17.128 29.5468 16.94 29.5468 16.732C29.5468 16.476 29.4548 16.272 29.2708 16.12C29.0868 15.96 28.8468 15.836 28.5508 15.748C28.2628 15.652 27.9388 15.564 27.5788 15.484C27.2268 15.404 26.8708 15.312 26.5108 15.208C26.1588 15.096 25.8348 14.956 25.5388 14.788C25.2508 14.612 25.0148 14.38 24.8308 14.092C24.6468 13.804 24.5548 13.436 24.5548 12.988C24.5548 12.532 24.6748 12.116 24.9148 11.74C25.1628 11.356 25.5348 11.052 26.0308 10.828C26.5348 10.596 27.1708 10.48 27.9388 10.48C28.4428 10.48 28.9428 10.544 29.4388 10.672C29.9348 10.8 30.3668 10.984 30.7348 11.224L30.2428 12.436C29.8668 12.212 29.4788 12.048 29.0788 11.944C28.6788 11.832 28.2948 11.776 27.9268 11.776C27.4948 11.776 27.1428 11.828 26.8708 11.932C26.6068 12.036 26.4108 12.172 26.2828 12.34C26.1628 12.508 26.1028 12.7 26.1028 12.916C26.1028 13.172 26.1908 13.38 26.3668 13.54C26.5508 13.692 26.7868 13.812 27.0748 13.9C27.3708 13.988 27.6988 14.076 28.0588 14.164C28.4188 14.244 28.7748 14.336 29.1268 14.44C29.4868 14.544 29.8108 14.68 30.0988 14.848C30.3948 15.016 30.6308 15.244 30.8068 15.532C30.9908 15.82 31.0828 16.184 31.0828 16.624C31.0828 17.072 30.9588 17.488 30.7108 17.872C30.4708 18.248 30.0988 18.552 29.5948 18.784C29.0908 19.008 28.4548 19.12 27.6868 19.12ZM32.6297 19V10.6H34.1897V19H32.6297ZM35.9217 20.812L36.6177 18.16L36.8217 19.048C36.5417 19.048 36.3057 18.964 36.1137 18.796C35.9297 18.62 35.8377 18.384 35.8377 18.088C35.8377 17.784 35.9297 17.544 36.1137 17.368C36.3057 17.184 36.5377 17.092 36.8097 17.092C37.0897 17.092 37.3217 17.184 37.5057 17.368C37.6897 17.552 37.7817 17.792 37.7817 18.088C37.7817 18.168 37.7737 18.256 37.7577 18.352C37.7417 18.44 37.7137 18.544 37.6737 18.664C37.6417 18.784 37.5857 18.936 37.5057 19.12L36.8937 20.812H35.9217ZM42.5638 19V12.592H44.0638V19H42.5638ZM43.3198 11.536C43.0398 11.536 42.8078 11.448 42.6238 11.272C42.4478 11.096 42.3598 10.884 42.3598 10.636C42.3598 10.38 42.4478 10.168 42.6238 10C42.8078 9.824 43.0398 9.736 43.3198 9.736C43.5998 9.736 43.8278 9.82 44.0038 9.988C44.1878 10.148 44.2798 10.352 44.2798 10.6C44.2798 10.864 44.1918 11.088 44.0158 11.272C43.8398 11.448 43.6078 11.536 43.3198 11.536ZM49.6686 12.52C50.1806 12.52 50.6366 12.62 51.0366 12.82C51.4446 13.02 51.7646 13.328 51.9966 13.744C52.2286 14.152 52.3446 14.68 52.3446 15.328V19H50.8446V15.52C50.8446 14.952 50.7086 14.528 50.4366 14.248C50.1726 13.968 49.8006 13.828 49.3206 13.828C48.9686 13.828 48.6566 13.9 48.3846 14.044C48.1126 14.188 47.9006 14.404 47.7486 14.692C47.6046 14.972 47.5326 15.328 47.5326 15.76V19H46.0326V12.592H47.4606V14.32L47.2086 13.792C47.4326 13.384 47.7566 13.072 48.1806 12.856C48.6126 12.632 49.1086 12.52 49.6686 12.52ZM54.2474 19V12.592H55.7474V19H54.2474ZM55.0034 11.536C54.7234 11.536 54.4914 11.448 54.3074 11.272C54.1314 11.096 54.0434 10.884 54.0434 10.636C54.0434 10.38 54.1314 10.168 54.3074 10C54.4914 9.824 54.7234 9.736 55.0034 9.736C55.2834 9.736 55.5114 9.82 55.6874 9.988C55.8714 10.148 55.9634 10.352 55.9634 10.6C55.9634 10.864 55.8754 11.088 55.6994 11.272C55.5234 11.448 55.2914 11.536 55.0034 11.536ZM60.6562 19.084C59.9842 19.084 59.3842 18.944 58.8562 18.664C58.3362 18.376 57.9282 17.984 57.6322 17.488C57.3362 16.992 57.1882 16.428 57.1882 15.796C57.1882 15.156 57.3362 14.592 57.6322 14.104C57.9282 13.608 58.3362 13.22 58.8562 12.94C59.3842 12.66 59.9842 12.52 60.6562 12.52C61.2802 12.52 61.8282 12.648 62.3002 12.904C62.7802 13.152 63.1442 13.52 63.3922 14.008L62.2402 14.68C62.0482 14.376 61.8122 14.152 61.5322 14.008C61.2602 13.864 60.9642 13.792 60.6442 13.792C60.2762 13.792 59.9442 13.872 59.6482 14.032C59.3522 14.192 59.1202 14.424 58.9522 14.728C58.7842 15.024 58.7002 15.38 58.7002 15.796C58.7002 16.212 58.7842 16.572 58.9522 16.876C59.1202 17.172 59.3522 17.4 59.6482 17.56C59.9442 17.72 60.2762 17.8 60.6442 17.8C60.9642 17.8 61.2602 17.728 61.5322 17.584C61.8122 17.44 62.0482 17.216 62.2402 16.912L63.3922 17.584C63.1442 18.064 62.7802 18.436 62.3002 18.7C61.8282 18.956 61.2802 19.084 60.6562 19.084ZM64.6302 19V12.592H66.1302V19H64.6302ZM65.3862 11.536C65.1062 11.536 64.8742 11.448 64.6902 11.272C64.5142 11.096 64.4262 10.884 64.4262 10.636C64.4262 10.38 64.5142 10.168 64.6902 10C64.8742 9.824 65.1062 9.736 65.3862 9.736C65.6662 9.736 65.8942 9.82 66.0702 9.988C66.2542 10.148 66.3462 10.352 66.3462 10.6C66.3462 10.864 66.2582 11.088 66.0822 11.272C65.9062 11.448 65.6742 11.536 65.3862 11.536ZM72.047 19V17.704L71.963 17.428V15.16C71.963 14.72 71.831 14.38 71.567 14.14C71.303 13.892 70.903 13.768 70.367 13.768C70.007 13.768 69.651 13.824 69.299 13.936C68.955 14.048 68.663 14.204 68.423 14.404L67.835 13.312C68.179 13.048 68.587 12.852 69.059 12.724C69.539 12.588 70.035 12.52 70.547 12.52C71.475 12.52 72.191 12.744 72.695 13.192C73.207 13.632 73.463 14.316 73.463 15.244V19H72.047ZM70.031 19.084C69.551 19.084 69.131 19.004 68.771 18.844C68.411 18.676 68.131 18.448 67.931 18.16C67.739 17.864 67.643 17.532 67.643 17.164C67.643 16.804 67.727 16.48 67.895 16.192C68.071 15.904 68.355 15.676 68.747 15.508C69.139 15.34 69.659 15.256 70.307 15.256H72.167V16.252H70.415C69.903 16.252 69.559 16.336 69.383 16.504C69.207 16.664 69.119 16.864 69.119 17.104C69.119 17.376 69.227 17.592 69.443 17.752C69.659 17.912 69.959 17.992 70.343 17.992C70.711 17.992 71.039 17.908 71.327 17.74C71.623 17.572 71.835 17.324 71.963 16.996L72.215 17.896C72.071 18.272 71.811 18.564 71.435 18.772C71.067 18.98 70.599 19.084 70.031 19.084ZM75.3881 19V12.592H76.8161V14.356L76.6481 13.84C76.8401 13.408 77.1401 13.08 77.5481 12.856C77.9641 12.632 78.4801 12.52 79.0961 12.52V13.948C79.0321 13.932 78.9721 13.924 78.9161 13.924C78.8601 13.916 78.8041 13.912 78.7481 13.912C78.1801 13.912 77.7281 14.08 77.3921 14.416C77.0561 14.744 76.8881 15.236 76.8881 15.892V19H75.3881ZM85.7235 19.084C85.1875 19.084 84.6715 19.016 84.1755 18.88C83.6875 18.736 83.2995 18.564 83.0115 18.364L83.5875 17.224C83.8755 17.408 84.2195 17.56 84.6195 17.68C85.0195 17.8 85.4195 17.86 85.8195 17.86C86.2915 17.86 86.6315 17.796 86.8395 17.668C87.0555 17.54 87.1635 17.368 87.1635 17.152C87.1635 16.976 87.0915 16.844 86.9475 16.756C86.8035 16.66 86.6155 16.588 86.3835 16.54C86.1515 16.492 85.8915 16.448 85.6035 16.408C85.3235 16.368 85.0395 16.316 84.7515 16.252C84.4715 16.18 84.2155 16.08 83.9835 15.952C83.7515 15.816 83.5635 15.636 83.4195 15.412C83.2755 15.188 83.2035 14.892 83.2035 14.524C83.2035 14.116 83.3195 13.764 83.5515 13.468C83.7835 13.164 84.1075 12.932 84.5235 12.772C84.9475 12.604 85.4475 12.52 86.0235 12.52C86.4555 12.52 86.8915 12.568 87.3315 12.664C87.7715 12.76 88.1355 12.896 88.4235 13.072L87.8475 14.212C87.5435 14.028 87.2355 13.904 86.9235 13.84C86.6195 13.768 86.3155 13.732 86.0115 13.732C85.5555 13.732 85.2155 13.8 84.9915 13.936C84.7755 14.072 84.6675 14.244 84.6675 14.452C84.6675 14.644 84.7395 14.788 84.8835 14.884C85.0275 14.98 85.2155 15.056 85.4475 15.112C85.6795 15.168 85.9355 15.216 86.2155 15.256C86.5035 15.288 86.7875 15.34 87.0675 15.412C87.3475 15.484 87.6035 15.584 87.8355 15.712C88.0755 15.832 88.2675 16.004 88.4115 16.228C88.5555 16.452 88.6275 16.744 88.6275 17.104C88.6275 17.504 88.5075 17.852 88.2675 18.148C88.0355 18.444 87.7035 18.676 87.2715 18.844C86.8395 19.004 86.3235 19.084 85.7235 19.084ZM92.9313 19.084C92.2193 19.084 91.5953 18.944 91.0593 18.664C90.5313 18.376 90.1193 17.984 89.8233 17.488C89.5353 16.992 89.3913 16.428 89.3913 15.796C89.3913 15.156 89.5313 14.592 89.8113 14.104C90.0993 13.608 90.4913 13.22 90.9873 12.94C91.4913 12.66 92.0633 12.52 92.7033 12.52C93.3273 12.52 93.8833 12.656 94.3713 12.928C94.8593 13.2 95.2433 13.584 95.5233 14.08C95.8033 14.576 95.9433 15.16 95.9433 15.832C95.9433 15.896 95.9393 15.968 95.9313 16.048C95.9313 16.128 95.9273 16.204 95.9193 16.276H90.5793V15.28H95.1273L94.5393 15.592C94.5473 15.224 94.4713 14.9 94.3113 14.62C94.1513 14.34 93.9313 14.12 93.6513 13.96C93.3793 13.8 93.0633 13.72 92.7033 13.72C92.3353 13.72 92.0113 13.8 91.7313 13.96C91.4593 14.12 91.2433 14.344 91.0833 14.632C90.9313 14.912 90.8553 15.244 90.8553 15.628V15.868C90.8553 16.252 90.9433 16.592 91.1193 16.888C91.2953 17.184 91.5433 17.412 91.8633 17.572C92.1833 17.732 92.5513 17.812 92.9673 17.812C93.3273 17.812 93.6513 17.756 93.9393 17.644C94.2273 17.532 94.4833 17.356 94.7073 17.116L95.5113 18.04C95.2233 18.376 94.8593 18.636 94.4193 18.82C93.9873 18.996 93.4913 19.084 92.9313 19.084ZM100.288 21.412C99.6961 21.412 99.1161 21.332 98.5481 21.172C97.9881 21.02 97.5281 20.796 97.1681 20.5L97.8401 19.372C98.1201 19.604 98.4721 19.788 98.8961 19.924C99.3281 20.068 99.7641 20.14 100.204 20.14C100.908 20.14 101.424 19.976 101.752 19.648C102.08 19.328 102.244 18.844 102.244 18.196V17.056L102.364 15.604L102.316 14.152V12.592H103.744V18.028C103.744 19.188 103.448 20.04 102.856 20.584C102.264 21.136 101.408 21.412 100.288 21.412ZM100.096 18.712C99.4881 18.712 98.9361 18.584 98.4401 18.328C97.9521 18.064 97.5641 17.7 97.2761 17.236C96.9961 16.772 96.8561 16.228 96.8561 15.604C96.8561 14.988 96.9961 14.448 97.2761 13.984C97.5641 13.52 97.9521 13.16 98.4401 12.904C98.9361 12.648 99.4881 12.52 100.096 12.52C100.64 12.52 101.128 12.628 101.56 12.844C101.992 13.06 102.336 13.396 102.592 13.852C102.856 14.308 102.988 14.892 102.988 15.604C102.988 16.316 102.856 16.904 102.592 17.368C102.336 17.824 101.992 18.164 101.56 18.388C101.128 18.604 100.64 18.712 100.096 18.712ZM100.324 17.44C100.7 17.44 101.036 17.364 101.332 17.212C101.628 17.052 101.856 16.836 102.016 16.564C102.184 16.284 102.268 15.964 102.268 15.604C102.268 15.244 102.184 14.928 102.016 14.656C101.856 14.376 101.628 14.164 101.332 14.02C101.036 13.868 100.7 13.792 100.324 13.792C99.9481 13.792 99.6081 13.868 99.3041 14.02C99.0081 14.164 98.7761 14.376 98.6081 14.656C98.4481 14.928 98.3681 15.244 98.3681 15.604C98.3681 15.964 98.4481 16.284 98.6081 16.564C98.7761 16.836 99.0081 17.052 99.3041 17.212C99.6081 17.364 99.9481 17.44 100.324 17.44ZM108.428 19.084C107.884 19.084 107.404 18.984 106.988 18.784C106.572 18.576 106.248 18.264 106.016 17.848C105.784 17.424 105.668 16.892 105.668 16.252V12.592H107.168V16.048C107.168 16.624 107.296 17.056 107.552 17.344C107.816 17.624 108.188 17.764 108.668 17.764C109.02 17.764 109.324 17.692 109.58 17.548C109.844 17.404 110.048 17.188 110.192 16.9C110.344 16.612 110.42 16.256 110.42 15.832V12.592H111.92V19H110.492V17.272L110.744 17.8C110.528 18.216 110.212 18.536 109.796 18.76C109.38 18.976 108.924 19.084 108.428 19.084ZM113.884 19V12.592H115.384V19H113.884ZM114.64 11.536C114.36 11.536 114.128 11.448 113.944 11.272C113.768 11.096 113.68 10.884 113.68 10.636C113.68 10.38 113.768 10.168 113.944 10C114.128 9.824 114.36 9.736 114.64 9.736C114.92 9.736 115.148 9.82 115.324 9.988C115.508 10.148 115.6 10.352 115.6 10.6C115.6 10.864 115.512 11.088 115.336 11.272C115.16 11.448 114.928 11.536 114.64 11.536ZM125.441 12.52C125.953 12.52 126.405 12.62 126.797 12.82C127.197 13.02 127.509 13.328 127.733 13.744C127.957 14.152 128.069 14.68 128.069 15.328V19H126.569V15.52C126.569 14.952 126.445 14.528 126.197 14.248C125.949 13.968 125.593 13.828 125.129 13.828C124.801 13.828 124.509 13.9 124.253 14.044C124.005 14.188 123.809 14.4 123.665 14.68C123.529 14.96 123.461 15.316 123.461 15.748V19H121.961V15.52C121.961 14.952 121.837 14.528 121.589 14.248C121.341 13.968 120.985 13.828 120.521 13.828C120.193 13.828 119.901 13.9 119.645 14.044C119.397 14.188 119.201 14.4 119.057 14.68C118.921 14.96 118.853 15.316 118.853 15.748V19H117.353V12.592H118.781V14.296L118.529 13.792C118.745 13.376 119.057 13.06 119.465 12.844C119.881 12.628 120.353 12.52 120.881 12.52C121.481 12.52 122.001 12.668 122.441 12.964C122.889 13.26 123.185 13.708 123.329 14.308L122.741 14.104C122.949 13.624 123.293 13.24 123.773 12.952C124.253 12.664 124.809 12.52 125.441 12.52ZM129.986 19V12.592H131.486V19H129.986ZM130.742 11.536C130.462 11.536 130.23 11.448 130.046 11.272C129.87 11.096 129.782 10.884 129.782 10.636C129.782 10.38 129.87 10.168 130.046 10C130.23 9.824 130.462 9.736 130.742 9.736C131.022 9.736 131.25 9.82 131.426 9.988C131.61 10.148 131.702 10.352 131.702 10.6C131.702 10.864 131.614 11.088 131.438 11.272C131.262 11.448 131.03 11.536 130.742 11.536ZM136.466 19.084C135.754 19.084 135.13 18.944 134.594 18.664C134.066 18.376 133.654 17.984 133.358 17.488C133.07 16.992 132.926 16.428 132.926 15.796C132.926 15.156 133.066 14.592 133.346 14.104C133.634 13.608 134.026 13.22 134.522 12.94C135.026 12.66 135.598 12.52 136.238 12.52C136.862 12.52 137.418 12.656 137.906 12.928C138.394 13.2 138.778 13.584 139.058 14.08C139.338 14.576 139.478 15.16 139.478 15.832C139.478 15.896 139.474 15.968 139.466 16.048C139.466 16.128 139.462 16.204 139.454 16.276H134.114V15.28H138.662L138.074 15.592C138.082 15.224 138.006 14.9 137.846 14.62C137.686 14.34 137.466 14.12 137.186 13.96C136.914 13.8 136.598 13.72 136.238 13.72C135.87 13.72 135.546 13.8 135.266 13.96C134.994 14.12 134.778 14.344 134.618 14.632C134.466 14.912 134.39 15.244 134.39 15.628V15.868C134.39 16.252 134.478 16.592 134.654 16.888C134.83 17.184 135.078 17.412 135.398 17.572C135.718 17.732 136.086 17.812 136.502 17.812C136.862 17.812 137.186 17.756 137.474 17.644C137.762 17.532 138.018 17.356 138.242 17.116L139.046 18.04C138.758 18.376 138.394 18.636 137.954 18.82C137.522 18.996 137.026 19.084 136.466 19.084ZM144.555 12.52C145.067 12.52 145.523 12.62 145.923 12.82C146.331 13.02 146.651 13.328 146.883 13.744C147.115 14.152 147.231 14.68 147.231 15.328V19H145.731V15.52C145.731 14.952 145.595 14.528 145.323 14.248C145.059 13.968 144.687 13.828 144.207 13.828C143.855 13.828 143.543 13.9 143.271 14.044C142.999 14.188 142.787 14.404 142.635 14.692C142.491 14.972 142.419 15.328 142.419 15.76V19H140.919V12.592H142.347V14.32L142.095 13.792C142.319 13.384 142.643 13.072 143.067 12.856C143.499 12.632 143.995 12.52 144.555 12.52ZM151.546 19.084C150.842 19.084 150.298 18.904 149.914 18.544C149.53 18.176 149.338 17.636 149.338 16.924V11.176H150.838V16.888C150.838 17.192 150.914 17.428 151.066 17.596C151.226 17.764 151.446 17.848 151.726 17.848C152.062 17.848 152.342 17.76 152.566 17.584L152.986 18.652C152.81 18.796 152.594 18.904 152.338 18.976C152.082 19.048 151.818 19.084 151.546 19.084ZM148.282 13.84V12.64H152.554V13.84H148.282ZM156.889 19.084C156.233 19.084 155.649 18.944 155.137 18.664C154.625 18.376 154.221 17.984 153.925 17.488C153.629 16.992 153.481 16.428 153.481 15.796C153.481 15.156 153.629 14.592 153.925 14.104C154.221 13.608 154.625 13.22 155.137 12.94C155.649 12.66 156.233 12.52 156.889 12.52C157.553 12.52 158.141 12.66 158.653 12.94C159.173 13.22 159.577 13.604 159.865 14.092C160.161 14.58 160.309 15.148 160.309 15.796C160.309 16.428 160.161 16.992 159.865 17.488C159.577 17.984 159.173 18.376 158.653 18.664C158.141 18.944 157.553 19.084 156.889 19.084ZM156.889 17.8C157.257 17.8 157.585 17.72 157.873 17.56C158.161 17.4 158.385 17.168 158.545 16.864C158.713 16.56 158.797 16.204 158.797 15.796C158.797 15.38 158.713 15.024 158.545 14.728C158.385 14.424 158.161 14.192 157.873 14.032C157.585 13.872 157.261 13.792 156.901 13.792C156.533 13.792 156.205 13.872 155.917 14.032C155.637 14.192 155.413 14.424 155.245 14.728C155.077 15.024 154.993 15.38 154.993 15.796C154.993 16.204 155.077 16.56 155.245 16.864C155.413 17.168 155.637 17.4 155.917 17.56C156.205 17.72 156.529 17.8 156.889 17.8Z" fill="white"/>
</g>
<defs>
<clipPath id="clip0_213_1242">
<rect width="185" height="31" fill="white"/>
</clipPath>
</defs>
</svg>
