<svg width="244" height="72" viewBox="0 0 244 72" fill="none" xmlns="http://www.w3.org/2000/svg">
<g filter="url(#filter0_d_395_1919)">
<rect x="12" y="6" width="220" height="48" rx="14" fill="#008E65"/>
</g>
<path d="M31.8101 35V23.72H39.3141V25.352H33.7781V28.456H38.9621V30.088H33.7781V33.368H39.3141V35H31.8101ZM39.9509 35L44.2549 29.256L40.1109 23.72H42.4949L45.4229 27.768L48.3509 23.72H50.7509L46.6069 29.256L50.8949 35H48.4949L45.4229 30.776L42.3669 35H39.9509ZM52.0289 35V23.72H54.0769V35H52.0289ZM59.2489 35V25.432H55.3769V23.72H65.1689V25.432H61.2969V35H59.2489ZM70.8349 35.16C69.7469 35.16 68.7922 34.92 67.9709 34.44C67.1602 33.96 66.5309 33.288 66.0829 32.424C65.6349 31.5493 65.4109 30.5253 65.4109 29.352C65.4109 28.168 65.6349 27.144 66.0829 26.28C66.5309 25.416 67.1602 24.7493 67.9709 24.28C68.7815 23.8 69.7362 23.56 70.8349 23.56C71.9335 23.56 72.8882 23.8 73.6989 24.28C74.5095 24.7493 75.1389 25.416 75.5869 26.28C76.0349 27.144 76.2589 28.1627 76.2589 29.336C76.2589 30.52 76.0349 31.5493 75.5869 32.424C75.1389 33.288 74.5095 33.96 73.6989 34.44C72.8882 34.92 71.9335 35.16 70.8349 35.16ZM70.8349 33.4C71.8695 33.4 72.6749 33.0427 73.2509 32.328C73.8269 31.6133 74.1149 30.6213 74.1149 29.352C74.1149 28.072 73.8269 27.08 73.2509 26.376C72.6855 25.672 71.8802 25.32 70.8349 25.32C69.8002 25.32 68.9949 25.672 68.4189 26.376C67.8429 27.08 67.5549 28.072 67.5549 29.352C67.5549 30.6213 67.8429 31.6133 68.4189 32.328C68.9949 33.0427 69.8002 33.4 70.8349 33.4ZM82.2294 35.16C81.344 35.16 80.5227 35.048 79.7654 34.824C79.008 34.5893 78.368 34.2747 77.8454 33.88L78.4694 32.264C78.992 32.6373 79.5627 32.9253 80.1814 33.128C80.8107 33.3307 81.4934 33.432 82.2294 33.432C83.072 33.432 83.6854 33.2933 84.0694 33.016C84.4534 32.728 84.6454 32.36 84.6454 31.912C84.6454 31.5387 84.5067 31.2453 84.2294 31.032C83.9627 30.8187 83.4987 30.6427 82.8374 30.504L81.0774 30.136C79.072 29.7093 78.0694 28.68 78.0694 27.048C78.0694 26.344 78.256 25.7307 78.6294 25.208C79.0027 24.6853 79.52 24.28 80.1814 23.992C80.8427 23.704 81.6054 23.56 82.4694 23.56C83.2374 23.56 83.9574 23.6773 84.6294 23.912C85.3014 24.136 85.8614 24.456 86.3094 24.872L85.6854 26.408C84.8 25.6613 83.7227 25.288 82.4534 25.288C81.7174 25.288 81.1414 25.4427 80.7254 25.752C80.3094 26.0613 80.1014 26.4667 80.1014 26.968C80.1014 27.352 80.2294 27.6613 80.4854 27.896C80.7414 28.12 81.1787 28.296 81.7974 28.424L83.5414 28.792C84.5974 29.016 85.3814 29.368 85.8934 29.848C86.416 30.328 86.6774 30.968 86.6774 31.768C86.6774 32.44 86.496 33.032 86.1334 33.544C85.7707 34.056 85.2534 34.456 84.5814 34.744C83.92 35.0213 83.136 35.16 82.2294 35.16ZM93.4911 35.16C92.4031 35.16 91.4485 34.92 90.6271 34.44C89.8165 33.96 89.1871 33.288 88.7391 32.424C88.2911 31.5493 88.0671 30.5253 88.0671 29.352C88.0671 28.168 88.2911 27.144 88.7391 26.28C89.1871 25.416 89.8165 24.7493 90.6271 24.28C91.4378 23.8 92.3925 23.56 93.4911 23.56C94.5898 23.56 95.5445 23.8 96.3551 24.28C97.1658 24.7493 97.7951 25.416 98.2431 26.28C98.6911 27.144 98.9151 28.1627 98.9151 29.336C98.9151 30.52 98.6911 31.5493 98.2431 32.424C97.7951 33.288 97.1658 33.96 96.3551 34.44C95.5445 34.92 94.5898 35.16 93.4911 35.16ZM93.4911 33.4C94.5258 33.4 95.3311 33.0427 95.9071 32.328C96.4831 31.6133 96.7711 30.6213 96.7711 29.352C96.7711 28.072 96.4831 27.08 95.9071 26.376C95.3418 25.672 94.5365 25.32 93.4911 25.32C92.4565 25.32 91.6511 25.672 91.0751 26.376C90.4991 27.08 90.2111 28.072 90.2111 29.352C90.2111 30.6213 90.4991 31.6133 91.0751 32.328C91.6511 33.0427 92.4565 33.4 93.4911 33.4ZM100.996 37.128L100.18 36.488C100.447 36.2213 100.644 35.9653 100.772 35.72C100.911 35.4853 101.007 35.2453 101.06 35H100.02V32.776H102.26V34.248C102.26 34.792 102.164 35.288 101.972 35.736C101.791 36.1947 101.466 36.6587 100.996 37.128ZM108.67 35V23.72H110.718V35H108.67ZM112.978 35V27.176H114.93V28.392C115.196 27.944 115.554 27.6027 116.002 27.368C116.46 27.1333 116.972 27.016 117.538 27.016C119.383 27.016 120.306 28.088 120.306 30.232V35H118.306V30.328C118.306 29.72 118.188 29.2773 117.954 29C117.73 28.7227 117.378 28.584 116.898 28.584C116.311 28.584 115.842 28.7707 115.49 29.144C115.148 29.5067 114.978 29.992 114.978 30.6V35H112.978ZM122.209 25.496V23.544H124.449V25.496H122.209ZM122.337 35V27.176H124.337V35H122.337ZM130.031 35.16C129.21 35.16 128.495 34.9947 127.887 34.664C127.279 34.3227 126.81 33.8427 126.479 33.224C126.148 32.6053 125.983 31.88 125.983 31.048C125.983 30.216 126.148 29.5013 126.479 28.904C126.81 28.296 127.279 27.832 127.887 27.512C128.495 27.1813 129.21 27.016 130.031 27.016C130.532 27.016 131.028 27.096 131.519 27.256C132.01 27.416 132.415 27.64 132.735 27.928L132.143 29.32C131.866 29.0747 131.551 28.888 131.199 28.76C130.858 28.632 130.527 28.568 130.207 28.568C129.514 28.568 128.975 28.7867 128.591 29.224C128.218 29.6507 128.031 30.264 128.031 31.064C128.031 31.8533 128.218 32.4773 128.591 32.936C128.975 33.384 129.514 33.608 130.207 33.608C130.516 33.608 130.847 33.544 131.199 33.416C131.551 33.288 131.866 33.096 132.143 32.84L132.735 34.248C132.415 34.5253 132.004 34.7493 131.503 34.92C131.012 35.08 130.522 35.16 130.031 35.16ZM133.834 25.496V23.544H136.074V25.496H133.834ZM133.962 35V27.176H135.962V35H133.962ZM140.616 35.16C140.051 35.16 139.544 35.0533 139.096 34.84C138.659 34.616 138.312 34.3173 138.056 33.944C137.811 33.5707 137.688 33.1493 137.688 32.68C137.688 32.104 137.837 31.6507 138.136 31.32C138.435 30.9787 138.92 30.7333 139.592 30.584C140.264 30.4347 141.165 30.36 142.296 30.36H142.856V30.024C142.856 29.4907 142.739 29.1067 142.504 28.872C142.269 28.6373 141.875 28.52 141.32 28.52C140.883 28.52 140.435 28.5893 139.976 28.728C139.517 28.856 139.053 29.0587 138.584 29.336L138.008 27.976C138.285 27.784 138.611 27.6187 138.984 27.48C139.368 27.3307 139.768 27.2187 140.184 27.144C140.611 27.0587 141.011 27.016 141.384 27.016C142.525 27.016 143.373 27.2827 143.928 27.816C144.483 28.3387 144.76 29.1547 144.76 30.264V35H142.888V33.752C142.707 34.1893 142.419 34.536 142.024 34.792C141.629 35.0373 141.16 35.16 140.616 35.16ZM141.032 33.784C141.555 33.784 141.987 33.6027 142.328 33.24C142.68 32.8773 142.856 32.4187 142.856 31.864V31.512H142.312C141.309 31.512 140.611 31.592 140.216 31.752C139.832 31.9013 139.64 32.1787 139.64 32.584C139.64 32.936 139.763 33.224 140.008 33.448C140.253 33.672 140.595 33.784 141.032 33.784ZM146.79 35V27.176H148.742V28.552C149.126 27.624 149.947 27.112 151.206 27.016L151.814 26.968L151.942 28.664L150.79 28.776C149.478 28.904 148.822 29.576 148.822 30.792V35H146.79ZM160.088 35.16C159.16 35.16 158.472 34.9093 158.024 34.408C157.587 33.896 157.368 33.1493 157.368 32.168V23.72H159.368V32.072C159.368 33.032 159.773 33.512 160.584 33.512C160.701 33.512 160.819 33.5067 160.936 33.496C161.053 33.4853 161.165 33.464 161.272 33.432L161.24 35.016C160.856 35.112 160.472 35.16 160.088 35.16ZM165.198 35.16C164.27 35.16 163.582 34.9093 163.134 34.408C162.696 33.896 162.478 33.1493 162.478 32.168V23.72H164.478V32.072C164.478 33.032 164.883 33.512 165.694 33.512C165.811 33.512 165.928 33.5067 166.046 33.496C166.163 33.4853 166.275 33.464 166.382 33.432L166.35 35.016C165.966 35.112 165.582 35.16 165.198 35.16ZM170.163 35.16C169.598 35.16 169.091 35.0533 168.643 34.84C168.206 34.616 167.859 34.3173 167.603 33.944C167.358 33.5707 167.235 33.1493 167.235 32.68C167.235 32.104 167.384 31.6507 167.683 31.32C167.982 30.9787 168.467 30.7333 169.139 30.584C169.811 30.4347 170.712 30.36 171.843 30.36H172.403V30.024C172.403 29.4907 172.286 29.1067 172.051 28.872C171.816 28.6373 171.422 28.52 170.867 28.52C170.43 28.52 169.982 28.5893 169.523 28.728C169.064 28.856 168.6 29.0587 168.131 29.336L167.555 27.976C167.832 27.784 168.158 27.6187 168.531 27.48C168.915 27.3307 169.315 27.2187 169.731 27.144C170.158 27.0587 170.558 27.016 170.931 27.016C172.072 27.016 172.92 27.2827 173.475 27.816C174.03 28.3387 174.307 29.1547 174.307 30.264V35H172.435V33.752C172.254 34.1893 171.966 34.536 171.571 34.792C171.176 35.0373 170.707 35.16 170.163 35.16ZM170.579 33.784C171.102 33.784 171.534 33.6027 171.875 33.24C172.227 32.8773 172.403 32.4187 172.403 31.864V31.512H171.859C170.856 31.512 170.158 31.592 169.763 31.752C169.379 31.9013 169.187 32.1787 169.187 32.584C169.187 32.936 169.31 33.224 169.555 33.448C169.8 33.672 170.142 33.784 170.579 33.784ZM176.369 35V27.176H178.321V28.376C178.556 27.9493 178.881 27.6187 179.297 27.384C179.713 27.1387 180.193 27.016 180.737 27.016C181.91 27.016 182.678 27.528 183.041 28.552C183.286 28.072 183.638 27.6987 184.097 27.432C184.556 27.1547 185.078 27.016 185.665 27.016C187.425 27.016 188.305 28.088 188.305 30.232V35H186.305V30.312C186.305 29.7147 186.204 29.2773 186.001 29C185.809 28.7227 185.478 28.584 185.009 28.584C184.486 28.584 184.076 28.7707 183.777 29.144C183.478 29.5067 183.329 30.0133 183.329 30.664V35H181.329V30.312C181.329 29.7147 181.228 29.2773 181.025 29C180.833 28.7227 180.508 28.584 180.049 28.584C179.526 28.584 179.116 28.7707 178.817 29.144C178.518 29.5067 178.369 30.0133 178.369 30.664V35H176.369ZM192.944 35.16C192.379 35.16 191.872 35.0533 191.424 34.84C190.987 34.616 190.64 34.3173 190.384 33.944C190.139 33.5707 190.016 33.1493 190.016 32.68C190.016 32.104 190.165 31.6507 190.464 31.32C190.763 30.9787 191.248 30.7333 191.92 30.584C192.592 30.4347 193.493 30.36 194.624 30.36H195.184V30.024C195.184 29.4907 195.067 29.1067 194.832 28.872C194.597 28.6373 194.203 28.52 193.648 28.52C193.211 28.52 192.763 28.5893 192.304 28.728C191.845 28.856 191.381 29.0587 190.912 29.336L190.336 27.976C190.613 27.784 190.939 27.6187 191.312 27.48C191.696 27.3307 192.096 27.2187 192.512 27.144C192.939 27.0587 193.339 27.016 193.712 27.016C194.853 27.016 195.701 27.2827 196.256 27.816C196.811 28.3387 197.088 29.1547 197.088 30.264V35H195.216V33.752C195.035 34.1893 194.747 34.536 194.352 34.792C193.957 35.0373 193.488 35.16 192.944 35.16ZM193.36 33.784C193.883 33.784 194.315 33.6027 194.656 33.24C195.008 32.8773 195.184 32.4187 195.184 31.864V31.512H194.64C193.637 31.512 192.939 31.592 192.544 31.752C192.16 31.9013 191.968 32.1787 191.968 32.584C191.968 32.936 192.091 33.224 192.336 33.448C192.581 33.672 192.923 33.784 193.36 33.784ZM202.126 35.16C201.443 35.16 200.841 34.9947 200.318 34.664C199.806 34.3333 199.406 33.864 199.118 33.256C198.83 32.6373 198.686 31.912 198.686 31.08C198.686 30.2373 198.83 29.5173 199.118 28.92C199.406 28.312 199.806 27.8427 200.318 27.512C200.841 27.1813 201.443 27.016 202.126 27.016C202.681 27.016 203.182 27.1387 203.63 27.384C204.078 27.6293 204.414 27.9547 204.638 28.36V23.72H206.638V35H204.686V33.704C204.473 34.152 204.137 34.5093 203.678 34.776C203.219 35.032 202.702 35.16 202.126 35.16ZM202.686 33.64C203.283 33.64 203.763 33.4267 204.126 33C204.489 32.5627 204.67 31.9227 204.67 31.08C204.67 30.2267 204.489 29.592 204.126 29.176C203.763 28.7493 203.283 28.536 202.686 28.536C202.089 28.536 201.609 28.7493 201.246 29.176C200.883 29.592 200.702 30.2267 200.702 31.08C200.702 31.9227 200.883 32.5627 201.246 33C201.609 33.4267 202.089 33.64 202.686 33.64ZM211.288 35.16C210.723 35.16 210.216 35.0533 209.768 34.84C209.331 34.616 208.984 34.3173 208.728 33.944C208.483 33.5707 208.36 33.1493 208.36 32.68C208.36 32.104 208.509 31.6507 208.808 31.32C209.107 30.9787 209.592 30.7333 210.264 30.584C210.936 30.4347 211.837 30.36 212.968 30.36H213.528V30.024C213.528 29.4907 213.411 29.1067 213.176 28.872C212.941 28.6373 212.547 28.52 211.992 28.52C211.555 28.52 211.107 28.5893 210.648 28.728C210.189 28.856 209.725 29.0587 209.256 29.336L208.68 27.976C208.957 27.784 209.283 27.6187 209.656 27.48C210.04 27.3307 210.44 27.2187 210.856 27.144C211.283 27.0587 211.683 27.016 212.056 27.016C213.197 27.016 214.045 27.2827 214.6 27.816C215.155 28.3387 215.432 29.1547 215.432 30.264V35H213.56V33.752C213.379 34.1893 213.091 34.536 212.696 34.792C212.301 35.0373 211.832 35.16 211.288 35.16ZM211.704 33.784C212.227 33.784 212.659 33.6027 213 33.24C213.352 32.8773 213.528 32.4187 213.528 31.864V31.512H212.984C211.981 31.512 211.283 31.592 210.888 31.752C210.504 31.9013 210.312 32.1787 210.312 32.584C210.312 32.936 210.435 33.224 210.68 33.448C210.925 33.672 211.267 33.784 211.704 33.784Z" fill="white"/>
<defs>
<filter id="filter0_d_395_1919" x="0" y="0" width="244" height="72" filterUnits="userSpaceOnUse" color-interpolation-filters="sRGB">
<feFlood flood-opacity="0" result="BackgroundImageFix"/>
<feColorMatrix in="SourceAlpha" type="matrix" values="0 0 0 0 0 0 0 0 0 0 0 0 0 0 0 0 0 0 127 0" result="hardAlpha"/>
<feOffset dy="6"/>
<feGaussianBlur stdDeviation="6"/>
<feColorMatrix type="matrix" values="0 0 0 0 0.247059 0 0 0 0 0.54902 0 0 0 0 1 0 0 0 0.263686 0"/>
<feBlend mode="normal" in2="BackgroundImageFix" result="effect1_dropShadow_395_1919"/>
<feBlend mode="normal" in="SourceGraphic" in2="effect1_dropShadow_395_1919" result="shape"/>
</filter>
</defs>
</svg>
