<svg width="244" height="72" viewBox="0 0 244 72" fill="none" xmlns="http://www.w3.org/2000/svg">
<g filter="url(#filter0_d_395_1923)">
<rect x="12" y="6" width="220" height="48" rx="14" fill="#4D4D4D" fill-opacity="0.4"/>
</g>
<path d="M91.1148 35V23.72H98.4908V25.352H93.1628V28.536H98.1548V30.168H93.1628V35H91.1148ZM98.0082 35L103.112 23.72H104.792L109.896 35H107.816L106.696 32.392H101.192L100.088 35H98.0082ZM103.928 25.944L101.896 30.76H105.992L103.96 25.944H103.928ZM111.13 35V23.72H113.178V33.256H118.586V35H111.13ZM120.115 35V23.72H122.163V33.256H127.571V35H120.115ZM129.099 35V23.72H131.147V35H129.099ZM133.599 35V23.72H137.791C139.679 23.72 141.135 24.2053 142.159 25.176C143.194 26.1467 143.711 27.5387 143.711 29.352C143.711 31.1547 143.194 32.5467 142.159 33.528C141.135 34.5093 139.679 35 137.791 35H133.599ZM135.647 33.304H137.663C140.266 33.304 141.567 31.9867 141.567 29.352C141.567 26.728 140.266 25.416 137.663 25.416H135.647V33.304ZM150.843 35.16C149.755 35.16 148.8 34.92 147.979 34.44C147.168 33.96 146.539 33.288 146.091 32.424C145.643 31.5493 145.419 30.5253 145.419 29.352C145.419 28.168 145.643 27.144 146.091 26.28C146.539 25.416 147.168 24.7493 147.979 24.28C148.789 23.8 149.744 23.56 150.843 23.56C151.941 23.56 152.896 23.8 153.707 24.28C154.517 24.7493 155.147 25.416 155.595 26.28C156.043 27.144 156.267 28.1627 156.267 29.336C156.267 30.52 156.043 31.5493 155.595 32.424C155.147 33.288 154.517 33.96 153.707 34.44C152.896 34.92 151.941 35.16 150.843 35.16ZM150.843 33.4C151.877 33.4 152.683 33.0427 153.259 32.328C153.835 31.6133 154.123 30.6213 154.123 29.352C154.123 28.072 153.835 27.08 153.259 26.376C152.693 25.672 151.888 25.32 150.843 25.32C149.808 25.32 149.003 25.672 148.427 26.376C147.851 27.08 147.563 28.072 147.563 29.352C147.563 30.6213 147.851 31.6133 148.427 32.328C149.003 33.0427 149.808 33.4 150.843 33.4Z" fill="white"/>
<defs>
<filter id="filter0_d_395_1923" x="0" y="0" width="244" height="72" filterUnits="userSpaceOnUse" color-interpolation-filters="sRGB">
<feFlood flood-opacity="0" result="BackgroundImageFix"/>
<feColorMatrix in="SourceAlpha" type="matrix" values="0 0 0 0 0 0 0 0 0 0 0 0 0 0 0 0 0 0 127 0" result="hardAlpha"/>
<feOffset dy="6"/>
<feGaussianBlur stdDeviation="6"/>
<feColorMatrix type="matrix" values="0 0 0 0 0.247059 0 0 0 0 0.54902 0 0 0 0 1 0 0 0 0.263686 0"/>
<feBlend mode="normal" in2="BackgroundImageFix" result="effect1_dropShadow_395_1923"/>
<feBlend mode="normal" in="SourceGraphic" in2="effect1_dropShadow_395_1923" result="shape"/>
</filter>
</defs>
</svg>
