<svg width="92" height="31" viewBox="0 0 92 31" fill="none" xmlns="http://www.w3.org/2000/svg">
<g clip-path="url(#clip0_278_1078)">
<rect width="92" height="31" rx="7" fill="#4D4D4D" fill-opacity="0.1"/>
<path d="M19.6539 19V10.6H20.9379L24.6099 16.732H23.9379L27.5499 10.6H28.8339L28.8459 19H27.3699L27.3579 12.916H27.6699L24.5979 18.04H23.9019L20.7819 12.916H21.1419V19H19.6539ZM34.9188 19V17.704L34.8348 17.428V15.16C34.8348 14.72 34.7028 14.38 34.4388 14.14C34.1748 13.892 33.7748 13.768 33.2388 13.768C32.8788 13.768 32.5228 13.824 32.1708 13.936C31.8268 14.048 31.5348 14.204 31.2948 14.404L30.7068 13.312C31.0508 13.048 31.4588 12.852 31.9308 12.724C32.4108 12.588 32.9068 12.52 33.4188 12.52C34.3468 12.52 35.0628 12.744 35.5668 13.192C36.0788 13.632 36.3348 14.316 36.3348 15.244V19H34.9188ZM32.9028 19.084C32.4228 19.084 32.0028 19.004 31.6428 18.844C31.2828 18.676 31.0028 18.448 30.8028 18.16C30.6108 17.864 30.5148 17.532 30.5148 17.164C30.5148 16.804 30.5988 16.48 30.7668 16.192C30.9428 15.904 31.2268 15.676 31.6188 15.508C32.0108 15.34 32.5308 15.256 33.1788 15.256H35.0388V16.252H33.2868C32.7748 16.252 32.4308 16.336 32.2548 16.504C32.0788 16.664 31.9908 16.864 31.9908 17.104C31.9908 17.376 32.0988 17.592 32.3148 17.752C32.5308 17.912 32.8308 17.992 33.2148 17.992C33.5828 17.992 33.9108 17.908 34.1988 17.74C34.4948 17.572 34.7068 17.324 34.8348 16.996L35.0868 17.896C34.9428 18.272 34.6828 18.564 34.3068 18.772C33.9388 18.98 33.4708 19.084 32.9028 19.084ZM41.8959 12.52C42.4079 12.52 42.8639 12.62 43.2639 12.82C43.6719 13.02 43.9919 13.328 44.2239 13.744C44.4559 14.152 44.5719 14.68 44.5719 15.328V19H43.0719V15.52C43.0719 14.952 42.9359 14.528 42.6639 14.248C42.3999 13.968 42.0279 13.828 41.5479 13.828C41.1959 13.828 40.8839 13.9 40.6119 14.044C40.3399 14.188 40.1279 14.404 39.9759 14.692C39.8319 14.972 39.7599 15.328 39.7599 15.76V19H38.2599V12.592H39.6879V14.32L39.4359 13.792C39.6599 13.384 39.9839 13.072 40.4079 12.856C40.8399 12.632 41.3359 12.52 41.8959 12.52ZM42.2799 11.716C42.0879 11.716 41.9119 11.68 41.7519 11.608C41.5999 11.528 41.4599 11.436 41.3319 11.332C41.2119 11.22 41.0959 11.124 40.9839 11.044C40.8719 10.964 40.7599 10.924 40.6479 10.924C40.4799 10.924 40.3439 10.988 40.2399 11.116C40.1359 11.244 40.0759 11.42 40.0599 11.644H39.2559C39.2719 11.148 39.3919 10.756 39.6159 10.468C39.8479 10.18 40.1599 10.036 40.5519 10.036C40.7439 10.036 40.9199 10.076 41.0799 10.156C41.2399 10.236 41.3799 10.328 41.4999 10.432C41.6279 10.536 41.7479 10.628 41.8599 10.708C41.9719 10.788 42.0799 10.828 42.1839 10.828C42.3519 10.828 42.4879 10.768 42.5919 10.648C42.7039 10.528 42.7639 10.36 42.7719 10.144H43.5759C43.5679 10.608 43.4479 10.988 43.2159 11.284C42.9839 11.572 42.6719 11.716 42.2799 11.716ZM50.4227 19V17.704L50.3387 17.428V15.16C50.3387 14.72 50.2067 14.38 49.9427 14.14C49.6787 13.892 49.2787 13.768 48.7427 13.768C48.3827 13.768 48.0267 13.824 47.6747 13.936C47.3307 14.048 47.0387 14.204 46.7987 14.404L46.2107 13.312C46.5547 13.048 46.9627 12.852 47.4347 12.724C47.9147 12.588 48.4107 12.52 48.9227 12.52C49.8507 12.52 50.5667 12.744 51.0707 13.192C51.5827 13.632 51.8387 14.316 51.8387 15.244V19H50.4227ZM48.4067 19.084C47.9267 19.084 47.5067 19.004 47.1467 18.844C46.7867 18.676 46.5067 18.448 46.3067 18.16C46.1147 17.864 46.0187 17.532 46.0187 17.164C46.0187 16.804 46.1027 16.48 46.2707 16.192C46.4467 15.904 46.7307 15.676 47.1227 15.508C47.5147 15.34 48.0347 15.256 48.6827 15.256H50.5427V16.252H48.7907C48.2787 16.252 47.9347 16.336 47.7587 16.504C47.5827 16.664 47.4947 16.864 47.4947 17.104C47.4947 17.376 47.6027 17.592 47.8187 17.752C48.0347 17.912 48.3347 17.992 48.7187 17.992C49.0867 17.992 49.4147 17.908 49.7027 17.74C49.9987 17.572 50.2107 17.324 50.3387 16.996L50.5907 17.896C50.4467 18.272 50.1867 18.564 49.8107 18.772C49.4427 18.98 48.9747 19.084 48.4067 19.084ZM57.3998 12.52C57.9118 12.52 58.3678 12.62 58.7678 12.82C59.1758 13.02 59.4958 13.328 59.7278 13.744C59.9598 14.152 60.0758 14.68 60.0758 15.328V19H58.5758V15.52C58.5758 14.952 58.4398 14.528 58.1678 14.248C57.9038 13.968 57.5318 13.828 57.0518 13.828C56.6998 13.828 56.3878 13.9 56.1158 14.044C55.8438 14.188 55.6318 14.404 55.4798 14.692C55.3358 14.972 55.2638 15.328 55.2638 15.76V19H53.7638V12.592H55.1918V14.32L54.9398 13.792C55.1638 13.384 55.4878 13.072 55.9118 12.856C56.3438 12.632 56.8398 12.52 57.3998 12.52ZM65.9266 19V17.704L65.8426 17.428V15.16C65.8426 14.72 65.7106 14.38 65.4466 14.14C65.1826 13.892 64.7826 13.768 64.2466 13.768C63.8866 13.768 63.5306 13.824 63.1786 13.936C62.8346 14.048 62.5426 14.204 62.3026 14.404L61.7146 13.312C62.0586 13.048 62.4666 12.852 62.9386 12.724C63.4186 12.588 63.9146 12.52 64.4266 12.52C65.3546 12.52 66.0706 12.744 66.5746 13.192C67.0866 13.632 67.3426 14.316 67.3426 15.244V19H65.9266ZM63.9106 19.084C63.4306 19.084 63.0106 19.004 62.6506 18.844C62.2906 18.676 62.0106 18.448 61.8106 18.16C61.6186 17.864 61.5226 17.532 61.5226 17.164C61.5226 16.804 61.6066 16.48 61.7746 16.192C61.9506 15.904 62.2346 15.676 62.6266 15.508C63.0186 15.34 63.5386 15.256 64.1866 15.256H66.0466V16.252H64.2946C63.7826 16.252 63.4386 16.336 63.2626 16.504C63.0866 16.664 62.9986 16.864 62.9986 17.104C62.9986 17.376 63.1066 17.592 63.3226 17.752C63.5386 17.912 63.8386 17.992 64.2226 17.992C64.5906 17.992 64.9186 17.908 65.2066 17.74C65.5026 17.572 65.7146 17.324 65.8426 16.996L66.0946 17.896C65.9506 18.272 65.6906 18.564 65.3146 18.772C64.9466 18.98 64.4786 19.084 63.9106 19.084Z" fill="#4D4D4D"/>
</g>
<defs>
<clipPath id="clip0_278_1078">
<rect width="92" height="31" fill="white"/>
</clipPath>
</defs>
</svg>
