<svg width="189" height="66" viewBox="0 0 189 66" fill="none" xmlns="http://www.w3.org/2000/svg">
<g filter="url(#filter0_d_2_14)">
<rect width="177" height="48" rx="14" fill="#73B7AD"/>
</g>
<path d="M58.6374 29V17.72H60.1734L66.6534 26.136H66.2374V17.72H68.1414V29H66.6214L60.1414 20.568H60.5414V29H58.6374ZM73.9821 29.16C73.1715 29.16 72.4675 28.9947 71.8701 28.664C71.2728 28.3333 70.8088 27.864 70.4781 27.256C70.1475 26.6373 69.9821 25.912 69.9821 25.08C69.9821 24.248 70.1475 23.528 70.4781 22.92C70.8088 22.312 71.2728 21.8427 71.8701 21.512C72.4675 21.1813 73.1715 21.016 73.9821 21.016C74.7928 21.016 75.4968 21.1813 76.0941 21.512C76.6915 21.8427 77.1555 22.312 77.4861 22.92C77.8168 23.528 77.9821 24.248 77.9821 25.08C77.9821 25.912 77.8168 26.6373 77.4861 27.256C77.1555 27.864 76.6915 28.3333 76.0941 28.664C75.4968 28.9947 74.7928 29.16 73.9821 29.16ZM73.9821 27.64C74.5795 27.64 75.0595 27.4267 75.4221 27C75.7848 26.5627 75.9661 25.9227 75.9661 25.08C75.9661 24.2267 75.7848 23.592 75.4221 23.176C75.0595 22.7493 74.5795 22.536 73.9821 22.536C73.3848 22.536 72.9048 22.7493 72.5421 23.176C72.1795 23.592 71.9981 24.2267 71.9981 25.08C71.9981 25.9227 72.1795 26.5627 72.5421 27C72.9048 27.4267 73.3848 27.64 73.9821 27.64ZM83.1388 29.16C82.0934 29.16 81.3148 28.8987 80.8028 28.376C80.2908 27.8533 80.0348 27.0907 80.0348 26.088V22.68H78.5308V21.176H80.0348V18.84H82.0348V21.176H84.4028V22.68H82.0348V25.976C82.0348 26.488 82.1468 26.872 82.3708 27.128C82.5948 27.384 82.9574 27.512 83.4588 27.512C83.6081 27.512 83.7628 27.496 83.9228 27.464C84.0828 27.4213 84.2481 27.3787 84.4188 27.336L84.7228 28.808C84.5308 28.9147 84.2854 29 83.9868 29.064C83.6988 29.128 83.4161 29.16 83.1388 29.16ZM85.5674 19.496V17.544H87.8074V19.496H85.5674ZM85.6954 29V21.176H87.6954V29H85.6954ZM90.3015 29V22.68H88.7975V21.176H90.8775L90.3015 21.704V21.16C90.3015 20.0507 90.5895 19.2133 91.1655 18.648C91.7522 18.0827 92.6589 17.7627 93.8855 17.688L94.5895 17.656L94.6855 19.128L94.0615 19.16C93.6349 19.1813 93.2935 19.2613 93.0375 19.4C92.7815 19.528 92.5949 19.7093 92.4775 19.944C92.3602 20.1787 92.3015 20.4773 92.3015 20.84V21.368V21.176H97.4695V29H95.4695V22.68H92.3015V29H90.3015ZM95.3575 19.496V17.544H97.5815V19.496H95.3575ZM103.171 29.16C102.349 29.16 101.635 28.9947 101.027 28.664C100.419 28.3227 99.9494 27.8427 99.6188 27.224C99.2881 26.6053 99.1228 25.88 99.1228 25.048C99.1228 24.216 99.2881 23.5013 99.6188 22.904C99.9494 22.296 100.419 21.832 101.027 21.512C101.635 21.1813 102.349 21.016 103.171 21.016C103.672 21.016 104.168 21.096 104.659 21.256C105.149 21.416 105.555 21.64 105.875 21.928L105.283 23.32C105.005 23.0747 104.691 22.888 104.339 22.76C103.997 22.632 103.667 22.568 103.347 22.568C102.653 22.568 102.115 22.7867 101.731 23.224C101.357 23.6507 101.171 24.264 101.171 25.064C101.171 25.8533 101.357 26.4773 101.731 26.936C102.115 27.384 102.653 27.608 103.347 27.608C103.656 27.608 103.987 27.544 104.339 27.416C104.691 27.288 105.005 27.096 105.283 26.84L105.875 28.248C105.555 28.5253 105.144 28.7493 104.643 28.92C104.152 29.08 103.661 29.16 103.171 29.16ZM109.631 29.16C109.065 29.16 108.559 29.0533 108.111 28.84C107.673 28.616 107.327 28.3173 107.071 27.944C106.825 27.5707 106.703 27.1493 106.703 26.68C106.703 26.104 106.852 25.6507 107.151 25.32C107.449 24.9787 107.935 24.7333 108.607 24.584C109.279 24.4347 110.18 24.36 111.311 24.36H112.111V25.512H111.327C110.825 25.512 110.404 25.5333 110.063 25.576C109.721 25.608 109.444 25.6667 109.231 25.752C109.028 25.8267 108.879 25.9333 108.783 26.072C108.697 26.2107 108.655 26.3813 108.655 26.584C108.655 26.936 108.777 27.224 109.023 27.448C109.268 27.672 109.609 27.784 110.047 27.784C110.399 27.784 110.708 27.704 110.975 27.544C111.252 27.3733 111.471 27.144 111.631 26.856C111.791 26.568 111.871 26.2373 111.871 25.864V24.024C111.871 23.4907 111.753 23.1067 111.519 22.872C111.284 22.6373 110.889 22.52 110.335 22.52C109.897 22.52 109.449 22.5893 108.991 22.728C108.532 22.856 108.068 23.0587 107.599 23.336L107.023 21.976C107.3 21.784 107.625 21.6187 107.999 21.48C108.383 21.3307 108.783 21.2187 109.199 21.144C109.625 21.0587 110.025 21.016 110.399 21.016C111.167 21.016 111.796 21.1333 112.287 21.368C112.788 21.6027 113.161 21.96 113.407 22.44C113.652 22.9093 113.775 23.5173 113.775 24.264V29H111.903V27.336H112.031C111.956 27.7093 111.807 28.0347 111.583 28.312C111.369 28.5787 111.097 28.7867 110.767 28.936C110.436 29.0853 110.057 29.16 109.631 29.16ZM119.421 29.16C118.599 29.16 117.885 28.9947 117.277 28.664C116.669 28.3227 116.199 27.8427 115.869 27.224C115.538 26.6053 115.373 25.88 115.373 25.048C115.373 24.216 115.538 23.5013 115.869 22.904C116.199 22.296 116.669 21.832 117.277 21.512C117.885 21.1813 118.599 21.016 119.421 21.016C119.922 21.016 120.418 21.096 120.909 21.256C121.399 21.416 121.805 21.64 122.125 21.928L121.533 23.32C121.255 23.0747 120.941 22.888 120.589 22.76C120.247 22.632 119.917 22.568 119.597 22.568C118.903 22.568 118.365 22.7867 117.981 23.224C117.607 23.6507 117.421 24.264 117.421 25.064C117.421 25.8533 117.607 26.4773 117.981 26.936C118.365 27.384 118.903 27.608 119.597 27.608C119.906 27.608 120.237 27.544 120.589 27.416C120.941 27.288 121.255 27.096 121.533 26.84L122.125 28.248C121.805 28.5253 121.394 28.7493 120.893 28.92C120.402 29.08 119.911 29.16 119.421 29.16ZM123.224 19.496V17.544H125.464V19.496H123.224ZM123.352 29V21.176H125.352V29H123.352ZM130.998 29.16C130.187 29.16 129.483 28.9947 128.886 28.664C128.288 28.3333 127.824 27.864 127.494 27.256C127.163 26.6373 126.998 25.912 126.998 25.08C126.998 24.248 127.163 23.528 127.494 22.92C127.824 22.312 128.288 21.8427 128.886 21.512C129.483 21.1813 130.187 21.016 130.998 21.016C131.808 21.016 132.512 21.1813 133.11 21.512C133.707 21.8427 134.171 22.312 134.502 22.92C134.832 23.528 134.998 24.248 134.998 25.08C134.998 25.912 134.832 26.6373 134.502 27.256C134.171 27.864 133.707 28.3333 133.11 28.664C132.512 28.9947 131.808 29.16 130.998 29.16ZM130.998 27.64C131.595 27.64 132.075 27.4267 132.438 27C132.8 26.5627 132.982 25.9227 132.982 25.08C132.982 24.2267 132.8 23.592 132.438 23.176C132.075 22.7493 131.595 22.536 130.998 22.536C130.4 22.536 129.92 22.7493 129.558 23.176C129.195 23.592 129.014 24.2267 129.014 25.08C129.014 25.9227 129.195 26.5627 129.558 27C129.92 27.4267 130.4 27.64 130.998 27.64ZM136.649 29V21.176H138.601V22.744H138.425C138.659 22.1787 139.022 21.752 139.513 21.464C140.014 21.1653 140.579 21.016 141.209 21.016C141.838 21.016 142.355 21.1333 142.761 21.368C143.166 21.6027 143.47 21.96 143.673 22.44C143.875 22.9093 143.977 23.5067 143.977 24.232V29H141.977V24.328C141.977 23.9227 141.923 23.592 141.817 23.336C141.721 23.08 141.566 22.8933 141.353 22.776C141.15 22.648 140.889 22.584 140.569 22.584C140.185 22.584 139.849 22.6693 139.561 22.84C139.273 23 139.049 23.2347 138.889 23.544C138.729 23.8427 138.649 24.1947 138.649 24.6V29H136.649ZM149.864 29.16C148.979 29.16 148.216 28.9947 147.576 28.664C146.936 28.3333 146.44 27.864 146.088 27.256C145.747 26.648 145.576 25.928 145.576 25.096C145.576 24.2853 145.741 23.576 146.072 22.968C146.413 22.36 146.877 21.8853 147.464 21.544C148.061 21.192 148.739 21.016 149.496 21.016C150.243 21.016 150.883 21.176 151.416 21.496C151.949 21.816 152.36 22.2693 152.648 22.856C152.947 23.4427 153.096 24.1413 153.096 24.952V25.544H147.192V24.392H151.688L151.432 24.632C151.432 23.9067 151.272 23.352 150.952 22.968C150.632 22.5733 150.173 22.376 149.576 22.376C149.128 22.376 148.744 22.4827 148.424 22.696C148.115 22.8987 147.875 23.192 147.704 23.576C147.544 23.9493 147.464 24.3973 147.464 24.92V25.032C147.464 25.6187 147.555 26.104 147.736 26.488C147.917 26.872 148.189 27.16 148.552 27.352C148.915 27.544 149.363 27.64 149.896 27.64C150.333 27.64 150.771 27.576 151.208 27.448C151.645 27.3093 152.045 27.096 152.408 26.808L152.968 28.152C152.595 28.4613 152.125 28.7067 151.56 28.888C150.995 29.0693 150.429 29.16 149.864 29.16ZM157.544 29.16C157.106 29.16 156.68 29.1227 156.264 29.048C155.858 28.9733 155.485 28.872 155.144 28.744C154.802 28.6053 154.504 28.4347 154.248 28.232L154.76 26.92C155.026 27.0907 155.314 27.24 155.624 27.368C155.933 27.496 156.253 27.592 156.584 27.656C156.914 27.72 157.24 27.752 157.56 27.752C158.072 27.752 158.45 27.6667 158.696 27.496C158.952 27.3147 159.08 27.08 159.08 26.792C159.08 26.5467 158.994 26.36 158.824 26.232C158.664 26.0933 158.418 25.992 158.088 25.928L156.488 25.624C155.826 25.496 155.32 25.256 154.968 24.904C154.626 24.5413 154.456 24.0773 154.456 23.512C154.456 23 154.594 22.5573 154.872 22.184C155.16 21.8107 155.554 21.5227 156.056 21.32C156.557 21.1173 157.133 21.016 157.784 21.016C158.157 21.016 158.52 21.0533 158.872 21.128C159.224 21.192 159.554 21.2933 159.864 21.432C160.184 21.56 160.461 21.7307 160.696 21.944L160.152 23.256C159.949 23.0853 159.714 22.9413 159.448 22.824C159.181 22.696 158.904 22.6 158.616 22.536C158.338 22.4613 158.066 22.424 157.8 22.424C157.277 22.424 156.888 22.5147 156.632 22.696C156.386 22.8773 156.264 23.1173 156.264 23.416C156.264 23.64 156.338 23.8267 156.488 23.976C156.637 24.1253 156.866 24.2267 157.176 24.28L158.776 24.584C159.469 24.712 159.992 24.9467 160.344 25.288C160.706 25.6293 160.888 26.088 160.888 26.664C160.888 27.1867 160.749 27.6347 160.472 28.008C160.194 28.3813 159.805 28.6693 159.304 28.872C158.802 29.064 158.216 29.16 157.544 29.16Z" fill="white"/>
<path d="M30.625 33.0012C31.3543 33.0012 32.0538 32.7115 32.5695 32.1957C33.0853 31.68 33.375 30.9805 33.375 30.2512H27.875C27.875 30.9805 28.1647 31.68 28.6805 32.1957C29.1962 32.7115 29.8957 33.0012 30.625 33.0012ZM30.625 13.6385L29.5291 13.8598C28.2858 14.1126 27.1682 14.7875 26.3655 15.7701C25.5629 16.7526 25.1246 17.9825 25.125 19.2512C25.125 20.1147 24.9407 22.2721 24.4939 24.3965C24.2739 25.4511 23.9769 26.5497 23.5823 27.5012H37.6677C37.2731 26.5497 36.9775 25.4525 36.7561 24.3965C36.3092 22.2721 36.125 20.1147 36.125 19.2512C36.1251 17.9827 35.6867 16.7532 34.884 15.7709C34.0814 14.7886 32.9639 14.114 31.7209 13.8612L30.625 13.6385ZM39.1775 27.5012C39.4841 28.1158 39.8389 28.6026 40.25 28.8762H21C21.4111 28.6026 21.7659 28.1158 22.0725 27.5012C23.31 25.0262 23.75 20.4612 23.75 19.2512C23.75 15.9237 26.115 13.1462 29.2569 12.5123C29.2377 12.3211 29.2588 12.1281 29.3188 11.9455C29.3788 11.763 29.4764 11.5951 29.6053 11.4526C29.7342 11.3101 29.8916 11.1962 30.0672 11.1182C30.2428 11.0403 30.4329 11 30.625 11C30.8171 11 31.0072 11.0403 31.1828 11.1182C31.3584 11.1962 31.5158 11.3101 31.6447 11.4526C31.7736 11.5951 31.8712 11.763 31.9312 11.9455C31.9912 12.1281 32.0123 12.3211 31.9931 12.5123C33.5475 12.828 34.9449 13.6713 35.9486 14.8995C36.9522 16.1277 37.5003 17.6651 37.5 19.2512C37.5 20.4612 37.94 25.0262 39.1775 27.5012Z" fill="white"/>
<defs>
<filter id="filter0_d_2_14" x="-12" y="-6" width="201" height="72" filterUnits="userSpaceOnUse" color-interpolation-filters="sRGB">
<feFlood flood-opacity="0" result="BackgroundImageFix"/>
<feColorMatrix in="SourceAlpha" type="matrix" values="0 0 0 0 0 0 0 0 0 0 0 0 0 0 0 0 0 0 127 0" result="hardAlpha"/>
<feOffset dy="6"/>
<feGaussianBlur stdDeviation="6"/>
<feColorMatrix type="matrix" values="0 0 0 0 0.247059 0 0 0 0 0.54902 0 0 0 0 1 0 0 0 0.263686 0"/>
<feBlend mode="normal" in2="BackgroundImageFix" result="effect1_dropShadow_2_14"/>
<feBlend mode="normal" in="SourceGraphic" in2="effect1_dropShadow_2_14" result="shape"/>
</filter>
</defs>
</svg>
