<svg width="23" height="23" viewBox="0 0 23 23" fill="none" xmlns="http://www.w3.org/2000/svg">
<path fill-rule="evenodd" clip-rule="evenodd" d="M2.71028 0.733403C2.9618 0.482244 3.26382 0.28741 3.59632 0.161813C3.92883 0.0362152 4.28423 -0.0172781 4.63897 0.00487797C4.99371 0.027034 5.33969 0.124334 5.65399 0.290328C5.96829 0.456323 6.24372 0.687223 6.46204 0.967727L9.04227 4.28275C9.51519 4.89084 9.68194 5.68294 9.49507 6.43048L8.70878 9.57875C8.66841 9.74182 8.67075 9.91255 8.71556 10.0745C8.76038 10.2364 8.84617 10.384 8.96465 10.5031L12.4965 14.0352C12.6157 14.1539 12.7636 14.2399 12.9257 14.2847C13.0879 14.3295 13.2589 14.3317 13.4222 14.2911L16.5688 13.5047C16.9377 13.413 17.3226 13.4061 17.6945 13.4846C18.0665 13.563 18.4159 13.7247 18.7163 13.9576L22.0311 16.5366C23.2228 17.4638 23.332 19.2248 22.2654 20.2901L20.7791 21.7765C19.7154 22.8403 18.1255 23.3075 16.6435 22.7857C12.8496 21.4524 9.40528 19.2805 6.56697 16.4316C3.71847 13.5935 1.54673 10.1494 0.21342 6.35572C-0.306938 4.87503 0.160234 3.28365 1.22395 2.21985L2.71028 0.733403ZM17.9689 1.43637C18.1595 1.43637 18.3423 1.5121 18.4771 1.6469C18.6119 1.7817 18.6876 1.96452 18.6876 2.15516V4.3115H20.8438C21.0344 4.3115 21.2172 4.38723 21.352 4.52203C21.4868 4.65683 21.5625 4.83965 21.5625 5.03029C21.5625 5.22092 21.4868 5.40375 21.352 5.53854C21.2172 5.67334 21.0344 5.74907 20.8438 5.74907H18.6876V7.90542C18.6876 8.09605 18.6119 8.27888 18.4771 8.41368C18.3423 8.54847 18.1595 8.6242 17.9689 8.6242C17.7782 8.6242 17.5954 8.54847 17.4606 8.41368C17.3259 8.27888 17.2501 8.09605 17.2501 7.90542V5.74907H15.094C14.9033 5.74907 14.7205 5.67334 14.5857 5.53854C14.4509 5.40375 14.3752 5.22092 14.3752 5.03029C14.3752 4.83965 14.4509 4.65683 14.5857 4.52203C14.7205 4.38723 14.9033 4.3115 15.094 4.3115H17.2501V2.15516C17.2501 1.96452 17.3259 1.7817 17.4606 1.6469C17.5954 1.5121 17.7782 1.43637 17.9689 1.43637Z" fill="#008E65"/>
</svg>
